<svg width="326" height="32" viewBox="0 0 326 32" fill="none" xmlns="http://www.w3.org/2000/svg">
<path d="M21.51 2.18V6.03H17.24V2.18H16.12V11H17.24V7.01H21.51V11H22.63V2.18H21.51ZM27.04 4.63C25.64 4.63 24.8 5.47 24.66 6.52H25.78C25.92 5.96 26.27 5.61 27.04 5.61C27.81 5.61 28.37 6.17 28.37 6.8V7.15C25.22 7.15 24.38 7.99 24.38 9.18C24.38 10.23 25.22 11.07 26.48 11.07C27.74 11.07 28.37 10.3 28.37 10.3L28.65 11H29.42V6.8C29.42 5.61 28.44 4.63 27.04 4.63ZM26.48 10.09C25.85 10.09 25.43 9.67 25.43 9.25C25.43 8.55 25.85 8.13 28.37 8.13V8.62C28.37 9.32 27.6 10.09 26.48 10.09ZM33.8978 11H34.9478V4.7H33.8978V11ZM31.4478 11L33.8978 7.71L31.6578 4.7H30.4678L32.7078 7.64L30.1878 11H31.4478ZM38.6578 11L36.1378 7.64L38.3778 4.7H37.1878L34.9478 7.71L37.3978 11H38.6578ZM43.764 4.7L40.544 9.39V4.7H39.494V11H40.544L43.764 6.31V11H44.814V4.7H43.764ZM50.2707 11L52.1607 7.08V11H53.2107V4.7H52.3007L49.9207 9.6L47.5407 4.7H46.6307V11H47.6807V7.08L49.5707 11H50.2707ZM57.4052 4.63C56.0052 4.63 55.1652 5.47 55.0252 6.52H56.1452C56.2852 5.96 56.6352 5.61 57.4052 5.61C58.1752 5.61 58.7352 6.17 58.7352 6.8V7.15C55.5852 7.15 54.7452 7.99 54.7452 9.18C54.7452 10.23 55.5852 11.07 56.8452 11.07C58.1052 11.07 58.7352 10.3 58.7352 10.3L59.0152 11H59.7852V6.8C59.7852 5.61 58.8052 4.63 57.4052 4.63ZM56.8452 10.09C56.2152 10.09 55.7952 9.67 55.7952 9.25C55.7952 8.55 56.2152 8.13 58.7352 8.13V8.62C58.7352 9.32 57.9652 10.09 56.8452 10.09ZM65.103 8.76V11H66.153V4.7H63.493C62.163 4.7 61.323 5.54 61.323 6.73C61.323 8.27 62.583 8.62 62.583 8.62L61.113 11H62.303L63.703 8.76H65.103ZM65.103 5.68V7.78H63.493C62.863 7.78 62.373 7.29 62.373 6.73C62.373 6.17 62.863 5.68 63.493 5.68H65.103ZM75.2503 4.7V7.29H72.0303V4.7H70.9803V11H72.0303V8.27H75.2503V11H76.3003V4.7H75.2503ZM80.497 4.63C79.097 4.63 78.257 5.47 78.117 6.52H79.237C79.377 5.96 79.727 5.61 80.497 5.61C81.267 5.61 81.827 6.17 81.827 6.8V7.15C78.677 7.15 77.837 7.99 77.837 9.18C77.837 10.23 78.677 11.07 79.937 11.07C81.197 11.07 81.827 10.3 81.827 10.3L82.107 11H82.877V6.8C82.877 5.61 81.897 4.63 80.497 4.63ZM79.937 10.09C79.307 10.09 78.887 9.67 78.887 9.25C78.887 8.55 79.307 8.13 81.827 8.13V8.62C81.827 9.32 81.057 10.09 79.937 10.09ZM88.6827 4.7H87.6327V11H88.6827V4.7ZM92.6027 11L89.8727 7.64L92.2527 4.7H91.0627L88.6827 7.71L91.3427 11H92.6027ZM97.7132 4.7V7.29H94.4932V4.7H93.4432V11H94.4932V8.27H97.7132V11H98.7632V4.7H97.7132ZM101.21 7.85C101.21 6.52 102.12 5.61 103.1 5.61C104.08 5.61 104.99 6.52 104.99 7.85C104.99 9.18 104.08 10.09 103.1 10.09C102.12 10.09 101.21 9.18 101.21 7.85ZM106.04 7.85C106.04 5.96 104.71 4.63 103.1 4.63C101.49 4.63 100.16 5.96 100.16 7.85C100.16 9.74 101.49 11.07 103.1 11.07C104.71 11.07 106.04 9.74 106.04 7.85ZM107.443 4.7V11H108.493V5.68H111.713V11H112.763V4.7H107.443ZM115.63 4.7H114.58V11H115.63V4.7ZM119.55 11L116.82 7.64L119.2 4.7H118.01L115.63 7.71L118.29 11H119.55ZM122.07 10.86L121.79 11.56C121.566 12.12 121.3 12.4 120.67 12.4V13.24C120.67 13.24 120.88 13.31 121.09 13.31C121.916 13.31 122.406 12.82 122.91 11.56L125.64 4.7H124.52L122.63 9.53L120.74 4.7H119.62L122.07 10.86ZM129.351 7.22L131.703 4.406L132.585 4.91L130.625 7.304L132.585 9.698L131.703 10.216L129.351 7.402V7.22ZM132.123 7.22L134.503 4.406L135.371 4.91L133.411 7.304L135.371 9.698L134.503 10.216L132.123 7.402V7.22ZM137.524 6.59C137.524 4.56 138.994 3.09 140.534 3.09C142.074 3.09 143.544 4.56 143.544 6.59C143.544 8.62 142.074 10.09 140.534 10.09C138.994 10.09 137.524 8.62 137.524 6.59ZM144.664 6.59C144.664 4.07 142.704 2.11 140.534 2.11C138.364 2.11 136.404 4.07 136.404 6.59C136.404 9.11 138.364 11.07 140.534 11.07C142.704 11.07 144.664 9.11 144.664 6.59ZM145.366 5.68H147.326V11H148.376V5.68H150.336V4.7H145.366V5.68ZM151.453 4.7V11H152.503V5.68H155.723V11H156.773V4.7H151.453ZM159.5 7.85C159.5 6.52 160.41 5.61 161.46 5.61C162.51 5.61 163.42 6.52 163.42 7.85C163.42 9.18 162.51 10.09 161.46 10.09C160.41 10.09 159.5 9.18 159.5 7.85ZM159.36 4.7H158.59V13.24H159.64V10.23C159.64 10.23 160.27 11.07 161.53 11.07C163.14 11.07 164.47 9.74 164.47 7.85C164.47 5.96 163.14 4.63 161.53 4.63C160.27 4.63 159.64 5.4 159.64 5.4L159.36 4.7ZM168.243 4.63C166.843 4.63 166.003 5.47 165.863 6.52H166.983C167.123 5.96 167.473 5.61 168.243 5.61C169.013 5.61 169.573 6.17 169.573 6.8V7.15C166.423 7.15 165.583 7.99 165.583 9.18C165.583 10.23 166.423 11.07 167.683 11.07C168.943 11.07 169.573 10.3 169.573 10.3L169.853 11H170.623V6.8C170.623 5.61 169.643 4.63 168.243 4.63ZM167.683 10.09C167.053 10.09 166.633 9.67 166.633 9.25C166.633 8.55 167.053 8.13 169.573 8.13V8.62C169.573 9.32 168.803 10.09 167.683 10.09ZM176.221 7.71C176.221 7.71 176.991 7.36 176.991 6.45C176.991 5.47 176.221 4.7 175.171 4.7H172.371V11H175.381C176.431 11 177.201 10.23 177.201 9.18C177.201 8.06 176.221 7.71 176.221 7.71ZM175.031 5.68C175.591 5.68 175.941 6.03 175.941 6.52C175.941 6.94 175.591 7.29 175.031 7.29H173.421V5.68H175.031ZM175.241 10.02H173.421V8.27H175.241C175.731 8.27 176.151 8.69 176.151 9.11C176.151 9.6 175.731 10.02 175.241 10.02ZM182.944 4.7L179.724 9.39V4.7H178.674V11H179.724L182.944 6.31V11H183.994V4.7H182.944ZM185.11 5.68H187.07V11H188.12V5.68H190.08V4.7H185.11V5.68ZM192.247 6.94V4.7H191.197V11H193.787C195.117 11 195.957 10.16 195.957 8.97C195.957 7.78 195.117 6.94 193.787 6.94H192.247ZM192.247 10.02V7.92H193.787C194.417 7.92 194.907 8.41 194.907 8.97C194.907 9.6 194.417 10.02 193.787 10.02H192.247ZM202.869 7.402L200.489 10.216L199.621 9.698L201.581 7.304L199.621 4.91L200.489 4.406L202.869 7.22V7.402ZM200.083 7.402L197.717 10.216L196.849 9.698L198.809 7.304L196.849 4.91L197.717 4.406L200.083 7.22V7.402ZM211.194 7.71C211.194 7.71 211.964 7.36 211.964 6.45C211.964 5.47 211.194 4.7 210.144 4.7H207.344V11H210.354C211.404 11 212.174 10.23 212.174 9.18C212.174 8.06 211.194 7.71 211.194 7.71ZM210.004 5.68C210.564 5.68 210.914 6.03 210.914 6.52C210.914 6.94 210.564 7.29 210.004 7.29H208.394V5.68H210.004ZM210.214 10.02H208.394V8.27H210.214C210.704 8.27 211.124 8.69 211.124 9.11C211.124 9.6 210.704 10.02 210.214 10.02ZM219.246 4.7V11H220.296V4.7H219.246ZM214.696 6.94V4.7H213.646V11H216.096C217.426 11 218.266 10.16 218.266 8.97C218.266 7.78 217.426 6.94 216.096 6.94H214.696ZM214.696 10.02V7.92H216.096C216.726 7.92 217.216 8.41 217.216 8.97C217.216 9.53 216.726 10.02 216.096 10.02H214.696ZM227.651 5.61C228.491 5.61 229.121 6.24 229.331 6.94H230.381C230.101 5.68 229.051 4.63 227.651 4.63C226.041 4.63 224.711 5.96 224.711 7.85C224.711 9.74 226.041 11.07 227.651 11.07C229.051 11.07 230.101 10.02 230.381 8.76H229.331C229.121 9.46 228.491 10.09 227.651 10.09C226.671 10.09 225.761 9.18 225.761 7.85C225.761 6.52 226.671 5.61 227.651 5.61ZM232.337 7.85C232.337 6.52 233.247 5.61 234.227 5.61C235.207 5.61 236.117 6.52 236.117 7.85C236.117 9.18 235.207 10.09 234.227 10.09C233.247 10.09 232.337 9.18 232.337 7.85ZM237.167 7.85C237.167 5.96 235.837 4.63 234.227 4.63C232.617 4.63 231.287 5.96 231.287 7.85C231.287 9.74 232.617 11.07 234.227 11.07C235.837 11.07 237.167 9.74 237.167 7.85ZM242.63 4.7H238.57V11H239.62V5.68H242.63V4.7ZM244.313 4.7L243.963 8.97C243.893 9.74 243.543 10.09 242.843 10.09H242.703V11C242.703 11 242.913 11.07 243.123 11.07C244.173 11.07 244.929 10.3 245.013 8.97L245.223 5.61H247.533V11H248.583V4.7H244.313ZM252.79 4.63C251.39 4.63 250.55 5.47 250.41 6.52H251.53C251.67 5.96 252.02 5.61 252.79 5.61C253.56 5.61 254.12 6.17 254.12 6.8V7.15C250.97 7.15 250.13 7.99 250.13 9.18C250.13 10.23 250.97 11.07 252.23 11.07C253.49 11.07 254.12 10.3 254.12 10.3L254.4 11H255.17V6.8C255.17 5.61 254.19 4.63 252.79 4.63ZM252.23 10.09C251.6 10.09 251.18 9.67 251.18 9.25C251.18 8.55 251.6 8.13 254.12 8.13V8.62C254.12 9.32 253.35 10.09 252.23 10.09ZM263.638 4.7V10.02H261.328V4.7H260.278V10.02H257.968V4.7H256.918V11H264.688V4.7H263.638ZM268.882 4.63C267.482 4.63 266.642 5.47 266.502 6.52H267.622C267.762 5.96 268.112 5.61 268.882 5.61C269.652 5.61 270.212 6.17 270.212 6.8V7.15C267.062 7.15 266.222 7.99 266.222 9.18C266.222 10.23 267.062 11.07 268.322 11.07C269.582 11.07 270.212 10.3 270.212 10.3L270.492 11H271.262V6.8C271.262 5.61 270.282 4.63 268.882 4.63ZM268.322 10.09C267.692 10.09 267.272 9.67 267.272 9.25C267.272 8.55 267.692 8.13 270.212 8.13V8.62C270.212 9.32 269.442 10.09 268.322 10.09ZM277 9.32C276.79 9.6 276.3 10.09 275.53 10.09C274.62 10.09 273.78 9.25 273.71 8.34H278.19C278.19 8.34 278.26 8.13 278.26 7.78C278.26 5.89 277 4.63 275.46 4.63C273.92 4.63 272.59 5.96 272.59 7.85C272.59 9.74 273.92 11.07 275.53 11.07C276.86 11.07 277.7 10.23 278.12 9.32H277ZM275.46 5.61C276.3 5.61 277 6.31 277.14 7.43H273.71C273.85 6.38 274.62 5.61 275.46 5.61ZM278.954 5.68H280.914V11H281.964V5.68H283.924V4.7H278.954V5.68ZM289.031 9.32C288.821 9.6 288.331 10.09 287.561 10.09C286.651 10.09 285.811 9.25 285.741 8.34H290.221C290.221 8.34 290.291 8.13 290.291 7.78C290.291 5.89 289.031 4.63 287.491 4.63C285.951 4.63 284.621 5.96 284.621 7.85C284.621 9.74 285.951 11.07 287.561 11.07C288.891 11.07 289.731 10.23 290.151 9.32H289.031ZM287.491 5.61C288.331 5.61 289.031 6.31 289.171 7.43H285.741C285.881 6.38 286.651 5.61 287.491 5.61ZM294.205 5.61C295.045 5.61 295.675 6.24 295.885 6.94H296.935C296.655 5.68 295.605 4.63 294.205 4.63C292.595 4.63 291.265 5.96 291.265 7.85C291.265 9.74 292.595 11.07 294.205 11.07C295.605 11.07 296.655 10.02 296.935 8.76H295.885C295.675 9.46 295.045 10.09 294.205 10.09C293.225 10.09 292.315 9.18 292.315 7.85C292.315 6.52 293.225 5.61 294.205 5.61ZM299.312 6.94V4.7H298.262V11H300.852C302.182 11 303.022 10.16 303.022 8.97C303.022 7.78 302.182 6.94 300.852 6.94H299.312ZM299.312 10.02V7.92H300.852C301.482 7.92 301.972 8.41 301.972 8.97C301.972 9.6 301.482 10.02 300.852 10.02H299.312ZM18.43 21.61C19.27 21.61 19.9 22.24 20.11 22.94H21.16C20.88 21.68 19.83 20.63 18.43 20.63C16.82 20.63 15.49 21.96 15.49 23.85C15.49 25.74 16.82 27.07 18.43 27.07C19.83 27.07 20.88 26.02 21.16 24.76H20.11C19.9 25.46 19.27 26.09 18.43 26.09C17.45 26.09 16.54 25.18 16.54 23.85C16.54 22.52 17.45 21.61 18.43 21.61ZM29.764 20.7V23.29H26.544V20.7H25.494V27H26.544V24.27H29.764V27H30.814V20.7H29.764ZM35.0107 20.63C33.6107 20.63 32.7707 21.47 32.6307 22.52H33.7507C33.8907 21.96 34.2407 21.61 35.0107 21.61C35.7807 21.61 36.3407 22.17 36.3407 22.8V23.15C33.1907 23.15 32.3507 23.99 32.3507 25.18C32.3507 26.23 33.1907 27.07 34.4507 27.07C35.7107 27.07 36.3407 26.3 36.3407 26.3L36.6207 27H37.3907V22.8C37.3907 21.61 36.4107 20.63 35.0107 20.63ZM34.4507 26.09C33.8207 26.09 33.4007 25.67 33.4007 25.25C33.4007 24.55 33.8207 24.13 36.3407 24.13V24.62C36.3407 25.32 35.5707 26.09 34.4507 26.09ZM45.8585 20.7V26.02H43.5485V20.7H42.4985V26.02H40.1885V20.7H39.1385V27H46.9085V20.7H45.8585ZM52.7125 25.32C52.5025 25.6 52.0125 26.09 51.2425 26.09C50.3325 26.09 49.4925 25.25 49.4225 24.34H53.9025C53.9025 24.34 53.9725 24.13 53.9725 23.78C53.9725 21.89 52.7125 20.63 51.1725 20.63C49.6325 20.63 48.3025 21.96 48.3025 23.85C48.3025 25.74 49.6325 27.07 51.2425 27.07C52.5725 27.07 53.4125 26.23 53.8325 25.32H52.7125ZM51.1725 21.61C52.0125 21.61 52.7125 22.31 52.8525 23.43H49.4225C49.5625 22.38 50.3325 21.61 51.1725 21.61ZM59.637 20.7L56.417 25.39V20.7H55.367V27H56.417L59.637 22.31V27H60.687V20.7H59.637ZM58.027 19.72C58.937 19.72 59.567 19.02 59.707 18.18H58.867C58.797 18.67 58.447 19.02 58.027 19.02C57.607 19.02 57.257 18.67 57.187 18.18H56.347C56.487 19.02 57.117 19.72 58.027 19.72ZM65.5116 20.7V27H66.5616V21.68H69.7816V27H70.8316V20.7H65.5116ZM73.2783 23.85C73.2783 22.52 74.1883 21.61 75.1683 21.61C76.1483 21.61 77.0583 22.52 77.0583 23.85C77.0583 25.18 76.1483 26.09 75.1683 26.09C74.1883 26.09 73.2783 25.18 73.2783 23.85ZM78.1083 23.85C78.1083 21.96 76.7783 20.63 75.1683 20.63C73.5583 20.63 72.2283 21.96 72.2283 23.85C72.2283 25.74 73.5583 27.07 75.1683 27.07C76.7783 27.07 78.1083 25.74 78.1083 23.85ZM80.1416 20.7L79.7916 24.97C79.7216 25.74 79.3716 26.09 78.6716 26.09H78.5316V27C78.5316 27 78.7416 27.07 78.9516 27.07C80.0016 27.07 80.7576 26.3 80.8416 24.97L81.0516 21.61H83.3616V27H84.4116V20.7H80.1416ZM90.5081 20.7L87.2881 25.39V20.7H86.2381V27H87.2881L90.5081 22.31V27H91.5581V20.7H90.5081ZM92.6748 21.68H94.6348V27H95.6848V21.68H97.6448V20.7H92.6748V21.68ZM103.032 20.7L99.8116 25.39V20.7H98.7616V27H99.8116L103.032 22.31V27H104.082V20.7H103.032ZM106.948 20.7H105.898V27H106.948V20.7ZM110.868 27L108.138 23.64L110.518 20.7H109.328L106.948 23.71L109.608 27H110.868ZM112.339 23.85C112.339 22.52 113.249 21.61 114.229 21.61C115.209 21.61 116.119 22.52 116.119 23.85C116.119 25.18 115.209 26.09 114.229 26.09C113.249 26.09 112.339 25.18 112.339 23.85ZM117.169 23.85C117.169 21.96 115.839 20.63 114.229 20.63C112.619 20.63 111.289 21.96 111.289 23.85C111.289 25.74 112.619 27.07 114.229 27.07C115.839 27.07 117.169 25.74 117.169 23.85ZM122.842 20.7L119.622 25.39V20.7H118.572V27H119.622L122.842 22.31V27H123.892V20.7H122.842ZM121.232 19.72C122.142 19.72 122.772 19.02 122.912 18.18H122.072C122.002 18.67 121.652 19.02 121.232 19.02C120.812 19.02 120.462 18.67 120.392 18.18H119.552C119.692 19.02 120.322 19.72 121.232 19.72ZM129.767 20.7H128.717V27H129.767V20.7ZM133.687 27L130.957 23.64L133.337 20.7H132.147L129.767 23.71L132.427 27H133.687ZM135.157 23.85C135.157 22.52 136.067 21.61 137.047 21.61C138.027 21.61 138.937 22.52 138.937 23.85C138.937 25.18 138.027 26.09 137.047 26.09C136.067 26.09 135.157 25.18 135.157 23.85ZM139.987 23.85C139.987 21.96 138.657 20.63 137.047 20.63C135.437 20.63 134.107 21.96 134.107 23.85C134.107 25.74 135.437 27.07 137.047 27.07C138.657 27.07 139.987 25.74 139.987 23.85ZM145.66 20.7V23.29H142.44V20.7H141.39V27H142.44V24.27H145.66V27H146.71V20.7H145.66ZM153.077 22.17C153.077 22.17 153.567 21.54 154.337 21.54C155.247 21.54 155.947 22.24 155.947 23.85C155.947 25.46 155.247 26.16 154.337 26.16C153.567 26.16 153.077 25.53 153.077 25.53V22.17ZM152.027 29.24H153.077V26.58C153.077 26.58 153.637 27.07 154.407 27.07C155.807 27.07 156.997 25.88 156.997 23.85C156.997 21.82 155.807 20.63 154.407 20.63C153.637 20.63 153.077 21.12 153.077 21.12V18.18H152.027V21.12C152.027 21.12 151.467 20.63 150.697 20.63C149.297 20.63 148.107 21.82 148.107 23.85C148.107 25.88 149.297 27.07 150.697 27.07C151.467 27.07 152.027 26.58 152.027 26.58V29.24ZM152.027 25.53C152.027 25.53 151.537 26.16 150.767 26.16C149.857 26.16 149.157 25.46 149.157 23.85C149.157 22.24 149.857 21.54 150.767 21.54C151.537 21.54 152.027 22.17 152.027 22.17V25.53ZM162.668 20.7L159.448 25.39V20.7H158.398V27H159.448L162.668 22.31V27H163.718V20.7H162.668ZM170.365 26.02V20.7H166.235L165.815 24.62C165.717 25.53 164.975 26.02 164.975 26.02H164.625V28.54H165.605V27H170.225V28.54H171.205V26.02H170.365ZM167.173 21.68H169.315V26.02H166.235C166.235 26.02 166.781 25.53 166.865 24.62L167.173 21.68ZM176.388 25.32C176.178 25.6 175.688 26.09 174.918 26.09C174.008 26.09 173.168 25.25 173.098 24.34H177.578C177.578 24.34 177.648 24.13 177.648 23.78C177.648 21.89 176.388 20.63 174.848 20.63C173.308 20.63 171.978 21.96 171.978 23.85C171.978 25.74 173.308 27.07 174.918 27.07C176.248 27.07 177.088 26.23 177.508 25.32H176.388ZM174.848 21.61C175.688 21.61 176.388 22.31 176.528 23.43H173.098C173.238 22.38 174.008 21.61 174.848 21.61ZM183.313 20.7V23.29H180.093V20.7H179.043V27H180.093V24.27H183.313V27H184.363V20.7H183.313ZM191.36 26.02V20.7H190.31V26.02H187.23V20.7H186.18V27H191.22V28.54H192.2V26.02H191.36ZM197.655 20.7L194.435 25.39V20.7H193.385V27H194.435L197.655 22.31V27H198.705V20.7H197.655ZM202.901 20.63C201.501 20.63 200.661 21.47 200.521 22.52H201.641C201.781 21.96 202.131 21.61 202.901 21.61C203.671 21.61 204.231 22.17 204.231 22.8V23.15C201.081 23.15 200.241 23.99 200.241 25.18C200.241 26.23 201.081 27.07 202.341 27.07C203.601 27.07 204.231 26.3 204.231 26.3L204.511 27H205.281V22.8C205.281 21.61 204.301 20.63 202.901 20.63ZM202.341 26.09C201.711 26.09 201.291 25.67 201.291 25.25C201.291 24.55 201.711 24.13 204.231 24.13V24.62C204.231 25.32 203.461 26.09 202.341 26.09ZM207.659 20.7L207.309 24.97C207.239 25.74 206.889 26.09 206.189 26.09H206.049V27C206.049 27 206.259 27.07 206.469 27.07C207.519 27.07 208.275 26.3 208.359 24.97L208.569 21.61H210.879V27H211.929V20.7H207.659ZM214.806 22.94V20.7H213.756V27H216.346C217.676 27 218.516 26.16 218.516 24.97C218.516 23.78 217.676 22.94 216.346 22.94H214.806ZM214.806 26.02V23.92H216.346C216.976 23.92 217.466 24.41 217.466 24.97C217.466 25.6 216.976 26.02 216.346 26.02H214.806ZM224.041 20.7V23.29H220.821V20.7H219.771V27H220.821V24.27H224.041V27H225.091V20.7H224.041ZM227.538 23.85C227.538 22.52 228.448 21.61 229.428 21.61C230.408 21.61 231.318 22.52 231.318 23.85C231.318 25.18 230.408 26.09 229.428 26.09C228.448 26.09 227.538 25.18 227.538 23.85ZM232.368 23.85C232.368 21.96 231.038 20.63 229.428 20.63C227.818 20.63 226.488 21.96 226.488 23.85C226.488 25.74 227.818 27.07 229.428 27.07C231.038 27.07 232.368 25.74 232.368 23.85ZM236.291 21.61C237.131 21.61 237.761 22.24 237.971 22.94H239.021C238.741 21.68 237.691 20.63 236.291 20.63C234.681 20.63 233.351 21.96 233.351 23.85C233.351 25.74 234.681 27.07 236.291 27.07C237.691 27.07 238.741 26.02 239.021 24.76H237.971C237.761 25.46 237.131 26.09 236.291 26.09C235.311 26.09 234.401 25.18 234.401 23.85C234.401 22.52 235.311 21.61 236.291 21.61ZM239.648 21.68H241.608V27H242.658V21.68H244.618V20.7H239.648V21.68ZM250.004 20.7L246.784 25.39V20.7H245.734V27H246.784L250.004 22.31V27H251.054V20.7H250.004Z" fill="#192632"/>
<rect x="0.5" y="1.5" width="9" height="9" stroke="#FC0000"/>
</svg>
