<svg width="613" height="46" viewBox="0 0 613 46" fill="none" xmlns="http://www.w3.org/2000/svg">
<path d="M47.5 9.3C47.5 9.3 48.9 8.6 48.9 6.8C48.9 4.9 47.4 3.4 45.3 3.4H40.6V16H45.4C47.7 16 49.4 14.28 49.4 12.4C49.4 10.1 47.5 9.3 47.5 9.3ZM42.2 4.8H45.3C46.5 4.8 47.4 5.7 47.4 6.8C47.4 7.8 46.5 8.7 45.3 8.7H42.2V4.8ZM42.2 14.6V10.1H45.4C46.8 10.1 47.8 11.1 47.8 12.3C47.8 13.6 46.8 14.6 45.4 14.6H42.2ZM54.8914 6.9C52.8914 6.9 51.6914 8.1 51.4914 9.6H53.0914C53.2914 8.8 53.7914 8.3 54.8914 8.3C55.9914 8.3 56.7914 9.1 56.7914 10V10.5C52.2914 10.5 51.0914 11.7 51.0914 13.4C51.0914 14.9 52.2914 16.1 54.0914 16.1C55.8914 16.1 56.7914 15 56.7914 15L57.1914 16H58.2914V10C58.2914 8.3 56.8914 6.9 54.8914 6.9ZM54.0914 14.7C53.1914 14.7 52.5914 14.1 52.5914 13.5C52.5914 12.5 53.1914 11.9 56.7914 11.9V12.6C56.7914 13.6 55.6914 14.7 54.0914 14.7ZM70.3883 7V14.6H67.0883V7H65.5883V14.6H62.2883V7H60.7883V16H71.8883V7H70.3883ZM77.8797 6.9C75.8797 6.9 74.6797 8.1 74.4797 9.6H76.0797C76.2797 8.8 76.7797 8.3 77.8797 8.3C78.9797 8.3 79.7797 9.1 79.7797 10V10.5C75.2797 10.5 74.0797 11.7 74.0797 13.4C74.0797 14.9 75.2797 16.1 77.0797 16.1C78.8797 16.1 79.7797 15 79.7797 15L80.1797 16H81.2797V10C81.2797 8.3 79.8797 6.9 77.8797 6.9ZM77.0797 14.7C76.1797 14.7 75.5797 14.1 75.5797 13.5C75.5797 12.5 76.1797 11.9 79.7797 11.9V12.6C79.7797 13.6 78.6797 14.7 77.0797 14.7ZM92.3734 11.4C92.3734 11.4 93.4734 10.8 93.4734 9.5C93.4734 8.1 92.2734 6.9 90.5734 6.9C88.5734 6.9 87.4734 8 87.3734 9.6H88.8734C88.9734 8.9 89.4734 8.3 90.5734 8.3C91.3734 8.3 91.9734 8.8 91.9734 9.5C91.9734 10.2 91.3734 10.7 90.5734 10.7H89.7734V12.1H90.5734C91.5534 12.1 92.1734 12.7 92.1734 13.4C92.1734 14.1 91.5734 14.7 90.5734 14.7C89.4734 14.7 88.8734 14.1 88.7734 13.3H87.2734C87.3734 14.9 88.5734 16.1 90.5734 16.1C92.4734 16.1 93.6734 14.9 93.6734 13.4C93.6734 12 92.3734 11.4 92.3734 11.4ZM99.1688 6.9C97.1688 6.9 95.9688 8.1 95.7688 9.6H97.3688C97.5688 8.8 98.0688 8.3 99.1688 8.3C100.269 8.3 101.069 9.1 101.069 10V10.5C96.5688 10.5 95.3688 11.7 95.3688 13.4C95.3688 14.9 96.5688 16.1 98.3688 16.1C100.169 16.1 101.069 15 101.069 15L101.469 16H102.569V10C102.569 8.3 101.169 6.9 99.1688 6.9ZM98.3688 14.7C97.4688 14.7 96.8688 14.1 96.8688 13.5C96.8688 12.5 97.4688 11.9 101.069 11.9V12.6C101.069 13.6 99.9688 14.7 98.3688 14.7ZM110.166 12.8V16H111.666V7H107.866C105.966 7 104.766 8.2 104.766 9.9C104.766 12.1 106.566 12.6 106.566 12.6L104.466 16H106.166L108.166 12.8H110.166ZM110.166 8.4V11.4H107.866C106.966 11.4 106.266 10.7 106.266 9.9C106.266 9.1 106.966 8.4 107.866 8.4H110.166ZM119.765 11.3C119.765 11.3 120.865 10.8 120.865 9.5C120.865 8.1 119.765 7 118.265 7H114.265V16H118.565C120.065 16 121.165 14.9 121.165 13.4C121.165 11.8 119.765 11.3 119.765 11.3ZM118.065 8.4C118.865 8.4 119.365 8.9 119.365 9.6C119.365 10.2 118.865 10.7 118.065 10.7H115.765V8.4H118.065ZM118.365 14.6H115.765V12.1H118.365C119.065 12.1 119.665 12.7 119.665 13.3C119.665 14 119.065 14.6 118.365 14.6ZM124.769 7H123.269V16H124.769V7ZM130.369 16L126.469 11.2L129.869 7H128.169L124.769 11.3L128.569 16H130.369ZM134.97 6.9C132.97 6.9 131.77 8.1 131.57 9.6H133.17C133.37 8.8 133.87 8.3 134.97 8.3C136.07 8.3 136.87 9.1 136.87 10V10.5C132.37 10.5 131.17 11.7 131.17 13.4C131.17 14.9 132.37 16.1 134.17 16.1C135.97 16.1 136.87 15 136.87 15L137.27 16H138.37V10C138.37 8.3 136.97 6.9 134.97 6.9ZM134.17 14.7C133.27 14.7 132.67 14.1 132.67 13.5C132.67 12.5 133.27 11.9 136.87 11.9V12.6C136.87 13.6 135.77 14.7 134.17 14.7ZM147.563 15.8L147.163 16.8C146.843 17.6 146.463 18 145.563 18V19.2C145.563 19.2 145.863 19.3 146.163 19.3C147.343 19.3 148.043 18.6 148.763 16.8L152.663 7H151.063L148.363 13.9L145.663 7H144.063L147.563 15.8ZM157.767 8.3C158.967 8.3 159.867 9.2 160.167 10.2H161.667C161.267 8.4 159.767 6.9 157.767 6.9C155.467 6.9 153.567 8.8 153.567 11.5C153.567 14.2 155.467 16.1 157.767 16.1C159.767 16.1 161.267 14.6 161.667 12.8H160.167C159.867 13.8 158.967 14.7 157.767 14.7C156.367 14.7 155.067 13.4 155.067 11.5C155.067 9.6 156.367 8.3 157.767 8.3ZM163.562 7V16H165.062V8.4H169.662V16H171.162V7H163.562ZM179.457 13.6C179.157 14 178.457 14.7 177.357 14.7C176.057 14.7 174.857 13.5 174.757 12.2H181.157C181.157 12.2 181.257 11.9 181.257 11.4C181.257 8.7 179.457 6.9 177.257 6.9C175.057 6.9 173.157 8.8 173.157 11.5C173.157 14.2 175.057 16.1 177.357 16.1C179.257 16.1 180.457 14.9 181.057 13.6H179.457ZM177.257 8.3C178.457 8.3 179.457 9.3 179.657 10.9H174.757C174.957 9.4 176.057 8.3 177.257 8.3ZM192.849 7V14.6H189.549V7H188.049V14.6H184.749V7H183.249V16H194.349V7H192.849ZM203.041 7V10.7H198.441V7H196.941V16H198.441V12.1H203.041V16H204.541V7H203.041ZM208.036 11.5C208.036 9.6 209.336 8.3 210.736 8.3C212.136 8.3 213.436 9.6 213.436 11.5C213.436 13.4 212.136 14.7 210.736 14.7C209.336 14.7 208.036 13.4 208.036 11.5ZM214.936 11.5C214.936 8.8 213.036 6.9 210.736 6.9C208.436 6.9 206.536 8.8 206.536 11.5C206.536 14.2 208.436 16.1 210.736 16.1C213.036 16.1 214.936 14.2 214.936 11.5ZM222.138 11.5C222.138 9.6 223.438 8.3 224.838 8.3C226.238 8.3 227.538 9.6 227.538 11.5C227.538 13.4 226.238 14.7 224.838 14.7C223.438 14.7 222.138 13.4 222.138 11.5ZM229.038 11.5C229.038 8.8 227.138 6.9 224.838 6.9C222.538 6.9 220.638 8.8 220.638 11.5C220.638 14.2 222.538 16.1 224.838 16.1C227.138 16.1 229.038 14.2 229.038 11.5ZM230.042 8.4H232.842V16H234.342V8.4H237.142V7H230.042V8.4ZM238.738 7V16H240.238V8.4H244.838V16H246.338V7H238.738ZM250.233 11.5C250.233 9.6 251.533 8.3 253.033 8.3C254.533 8.3 255.833 9.6 255.833 11.5C255.833 13.4 254.533 14.7 253.033 14.7C251.533 14.7 250.233 13.4 250.233 11.5ZM250.033 7H248.933V19.2H250.433V14.9C250.433 14.9 251.333 16.1 253.133 16.1C255.433 16.1 257.333 14.2 257.333 11.5C257.333 8.8 255.433 6.9 253.133 6.9C251.333 6.9 250.433 8 250.433 8L250.033 7ZM262.723 6.9C260.723 6.9 259.523 8.1 259.323 9.6H260.923C261.123 8.8 261.623 8.3 262.723 8.3C263.823 8.3 264.623 9.1 264.623 10V10.5C260.123 10.5 258.923 11.7 258.923 13.4C258.923 14.9 260.123 16.1 261.923 16.1C263.723 16.1 264.623 15 264.623 15L265.023 16H266.123V10C266.123 8.3 264.723 6.9 262.723 6.9ZM261.923 14.7C261.023 14.7 260.423 14.1 260.423 13.5C260.423 12.5 261.023 11.9 264.623 11.9V12.6C264.623 13.6 263.523 14.7 261.923 14.7ZM274.12 11.3C274.12 11.3 275.22 10.8 275.22 9.5C275.22 8.1 274.12 7 272.62 7H268.62V16H272.92C274.42 16 275.52 14.9 275.52 13.4C275.52 11.8 274.12 11.3 274.12 11.3ZM272.42 8.4C273.22 8.4 273.72 8.9 273.72 9.6C273.72 10.2 273.22 10.7 272.42 10.7H270.12V8.4H272.42ZM272.72 14.6H270.12V12.1H272.72C273.42 12.1 274.02 12.7 274.02 13.3C274.02 14 273.42 14.6 272.72 14.6ZM278.524 7L278.024 13.1C277.924 14.2 277.424 14.7 276.424 14.7H276.224V16C276.224 16 276.524 16.1 276.824 16.1C278.324 16.1 279.404 15 279.524 13.1L279.824 8.3H283.124V16H284.624V7H278.524ZM292.934 13.6C292.634 14 291.934 14.7 290.834 14.7C289.534 14.7 288.334 13.5 288.234 12.2H294.634C294.634 12.2 294.734 11.9 294.734 11.4C294.734 8.7 292.934 6.9 290.734 6.9C288.534 6.9 286.634 8.8 286.634 11.5C286.634 14.2 288.534 16.1 290.834 16.1C292.734 16.1 293.934 14.9 294.534 13.6H292.934ZM290.734 8.3C291.934 8.3 292.934 9.3 293.134 10.9H288.234C288.434 9.4 289.534 8.3 290.734 8.3ZM302.826 7V10.7H298.226V7H296.726V16H298.226V12.1H302.826V16H304.326V7H302.826ZM310.321 6.9C308.321 6.9 307.121 8.1 306.921 9.6H308.521C308.721 8.8 309.221 8.3 310.321 8.3C311.421 8.3 312.221 9.1 312.221 10V10.5C307.721 10.5 306.521 11.7 306.521 13.4C306.521 14.9 307.721 16.1 309.521 16.1C311.321 16.1 312.221 15 312.221 15L312.621 16H313.721V10C313.721 8.3 312.321 6.9 310.321 6.9ZM309.521 14.7C308.621 14.7 308.021 14.1 308.021 13.5C308.021 12.5 308.621 11.9 312.221 11.9V12.6C312.221 13.6 311.121 14.7 309.521 14.7ZM318.178 11.98H317.038L316.538 1.72H318.678L318.178 11.98ZM316.358 14.92C316.358 14.4267 316.478 14.08 316.718 13.88C316.958 13.68 317.251 13.58 317.598 13.58C317.931 13.58 318.218 13.68 318.458 13.88C318.711 14.08 318.838 14.4267 318.838 14.92C318.838 15.4 318.711 15.7467 318.458 15.96C318.218 16.1733 317.931 16.28 317.598 16.28C317.251 16.28 316.958 16.1733 316.718 15.96C316.478 15.7467 316.358 15.4 316.358 14.92ZM332.186 13.5L327.486 3.4H326.186V16H327.786V7.5L331.686 16H332.686L336.586 7.5V16H338.186V3.4H336.886L332.186 13.5ZM349.081 7V16H350.581V7H349.081ZM342.581 10.2V7H341.081V16H344.581C346.481 16 347.681 14.8 347.681 13.1C347.681 11.4 346.481 10.2 344.581 10.2H342.581ZM342.581 14.6V11.6H344.581C345.481 11.6 346.181 12.3 346.181 13.1C346.181 13.9 345.481 14.6 344.581 14.6H342.581ZM361.088 8.3C362.288 8.3 363.188 9.2 363.488 10.2H364.988C364.588 8.4 363.088 6.9 361.088 6.9C358.788 6.9 356.888 8.8 356.888 11.5C356.888 14.2 358.788 16.1 361.088 16.1C363.088 16.1 364.588 14.6 364.988 12.8H363.488C363.188 13.8 362.288 14.7 361.088 14.7C359.688 14.7 358.388 13.4 358.388 11.5C358.388 9.6 359.688 8.3 361.088 8.3ZM372.382 11.3C372.382 11.3 373.482 10.8 373.482 9.5C373.482 8.1 372.382 7 370.882 7H366.882V16H371.182C372.682 16 373.782 14.9 373.782 13.4C373.782 11.8 372.382 11.3 372.382 11.3ZM370.682 8.4C371.482 8.4 371.982 8.9 371.982 9.6C371.982 10.2 371.482 10.7 370.682 10.7H368.382V8.4H370.682ZM370.982 14.6H368.382V12.1H370.982C371.682 12.1 372.282 12.7 372.282 13.3C372.282 14 371.682 14.6 370.982 14.6ZM380.986 12.8V16H382.486V7H378.686C376.786 7 375.586 8.2 375.586 9.9C375.586 12.1 377.386 12.6 377.386 12.6L375.286 16H376.986L378.986 12.8H380.986ZM380.986 8.4V11.4H378.686C377.786 11.4 377.086 10.7 377.086 9.9C377.086 9.1 377.786 8.4 378.686 8.4H380.986ZM388.985 16H390.485V7H388.985V16ZM385.485 16L388.985 11.3L385.785 7H384.085L387.285 11.2L383.685 16H385.485ZM395.785 16L392.185 11.2L395.385 7H393.685L390.485 11.3L393.985 16H395.785ZM402.68 13.6C402.38 14 401.68 14.7 400.58 14.7C399.28 14.7 398.08 13.5 397.98 12.2H404.38C404.38 12.2 404.48 11.9 404.48 11.4C404.48 8.7 402.68 6.9 400.48 6.9C398.28 6.9 396.38 8.8 396.38 11.5C396.38 14.2 398.28 16.1 400.58 16.1C402.48 16.1 403.68 14.9 404.28 13.6H402.68ZM400.48 8.3C401.68 8.3 402.68 9.3 402.88 10.9H397.98C398.18 9.4 399.28 8.3 400.48 8.3ZM411.672 16L414.372 10.4V16H415.872V7H414.572L411.172 14L407.772 7H406.472V16H407.972V10.4L410.672 16H411.672ZM422.064 8.3C423.264 8.3 424.164 9.2 424.464 10.2H425.964C425.564 8.4 424.064 6.9 422.064 6.9C419.764 6.9 417.864 8.8 417.864 11.5C417.864 14.2 419.764 16.1 422.064 16.1C424.064 16.1 425.564 14.6 425.964 12.8H424.464C424.164 13.8 423.264 14.7 422.064 14.7C420.664 14.7 419.364 13.4 419.364 11.5C419.364 9.6 420.664 8.3 422.064 8.3ZM432.959 12.8V16H434.459V7H430.659C428.759 7 427.559 8.2 427.559 9.9C427.559 12.1 429.359 12.6 429.359 12.6L427.259 16H428.959L430.959 12.8H432.959ZM432.959 8.4V11.4H430.659C429.759 11.4 429.059 10.7 429.059 9.9C429.059 9.1 429.759 8.4 430.659 8.4H432.959ZM444.955 8.3C446.155 8.3 447.055 9.2 447.355 10.2H448.855C448.455 8.4 446.955 6.9 444.955 6.9C442.655 6.9 440.755 8.8 440.755 11.5C440.755 14.2 442.655 16.1 444.955 16.1C446.955 16.1 448.455 14.6 448.855 12.8H447.355C447.055 13.8 446.155 14.7 444.955 14.7C443.555 14.7 442.255 13.4 442.255 11.5C442.255 9.6 443.555 8.3 444.955 8.3ZM460.546 11.3C460.546 11.3 461.646 10.8 461.646 9.5C461.646 8.1 460.546 7 459.046 7H455.046V16H459.346C460.846 16 461.946 14.9 461.946 13.4C461.946 11.8 460.546 11.3 460.546 11.3ZM458.846 8.4C459.646 8.4 460.146 8.9 460.146 9.6C460.146 10.2 459.646 10.7 458.846 10.7H456.546V8.4H458.846ZM459.146 14.6H456.546V12.1H459.146C459.846 12.1 460.446 12.7 460.446 13.3C460.446 14 459.846 14.6 459.146 14.6ZM467.45 6.9C465.45 6.9 464.25 8.1 464.05 9.6H465.65C465.85 8.8 466.35 8.3 467.45 8.3C468.55 8.3 469.35 9.1 469.35 10V10.5C464.85 10.5 463.65 11.7 463.65 13.4C463.65 14.9 464.85 16.1 466.65 16.1C468.45 16.1 469.35 15 469.35 15L469.75 16H470.85V10C470.85 8.3 469.45 6.9 467.45 6.9ZM466.65 14.7C465.75 14.7 465.15 14.1 465.15 13.5C465.15 12.5 465.75 11.9 469.35 11.9V12.6C469.35 13.6 468.25 14.7 466.65 14.7ZM478.547 16L481.247 10.4V16H482.747V7H481.447L478.047 14L474.647 7H473.347V16H474.847V10.4L477.547 16H478.547ZM491.439 7L486.839 13.7V7H485.339V16H486.839L491.439 9.3V16H492.939V7H491.439ZM505.331 11.3C505.331 11.3 506.431 10.8 506.431 9.5C506.431 8.1 505.331 7 503.831 7H499.831V16H504.131C505.631 16 506.731 14.9 506.731 13.4C506.731 11.8 505.331 11.3 505.331 11.3ZM503.631 8.4C504.431 8.4 504.931 8.9 504.931 9.6C504.931 10.2 504.431 10.7 503.631 10.7H501.331V8.4H503.631ZM503.931 14.6H501.331V12.1H503.931C504.631 12.1 505.231 12.7 505.231 13.3C505.231 14 504.631 14.6 503.931 14.6ZM514.132 8.8C514.432 6.1 515.732 4.8 520.032 4.6V3.2C514.532 3.5 512.732 5.3 512.732 10.5C512.732 14.1 514.732 16.1 517.032 16.1C519.332 16.1 521.132 14.2 521.132 11.7C521.132 9.2 519.232 7.3 517.132 7.3C515.132 7.3 514.132 8.8 514.132 8.8ZM517.032 14.7C515.632 14.7 514.332 13.4 514.332 11.7C514.332 10 515.632 8.7 517.032 8.7C518.432 8.7 519.632 9.9 519.632 11.7C519.632 13.5 518.432 14.7 517.032 14.7ZM524.032 7L523.532 13.1C523.432 14.2 522.932 14.7 521.932 14.7H521.732V16C521.732 16 522.032 16.1 522.332 16.1C523.832 16.1 524.912 15 525.032 13.1L525.332 8.3H528.632V16H530.132V7H524.032ZM538.841 7L534.241 13.7V7H532.741V16H534.241L538.841 9.3V16H540.341V7H538.841ZM546.837 16H548.337V7H546.837V16ZM543.337 16L546.837 11.3L543.637 7H541.937L545.137 11.2L541.537 16H543.337ZM553.637 16L550.037 11.2L553.237 7H551.537L548.337 11.3L551.837 16H553.637ZM558.231 6.9C556.231 6.9 555.031 8.1 554.831 9.6H556.431C556.631 8.8 557.131 8.3 558.231 8.3C559.331 8.3 560.131 9.1 560.131 10V10.5C555.631 10.5 554.431 11.7 554.431 13.4C554.431 14.9 555.631 16.1 557.431 16.1C559.231 16.1 560.131 15 560.131 15L560.531 16H561.631V10C561.631 8.3 560.231 6.9 558.231 6.9ZM557.431 14.7C556.531 14.7 555.931 14.1 555.931 13.5C555.931 12.5 556.531 11.9 560.131 11.9V12.6C560.131 13.6 559.031 14.7 557.431 14.7ZM570.228 7L565.628 13.7V7H564.128V16H565.628L570.228 9.3V16H571.728V7H570.228ZM567.928 5.6C569.228 5.6 570.128 4.6 570.328 3.4H569.128C569.028 4.1 568.528 4.6 567.928 4.6C567.328 4.6 566.828 4.1 566.728 3.4H565.528C565.728 4.6 566.628 5.6 567.928 5.6ZM583.923 7V14.6H580.623V7H579.123V14.6H575.823V7H574.323V16H585.423V7H583.923ZM593.715 13.6C593.415 14 592.715 14.7 591.615 14.7C590.315 14.7 589.115 13.5 589.015 12.2H595.415C595.415 12.2 595.515 11.9 595.515 11.4C595.515 8.7 593.715 6.9 591.515 6.9C589.315 6.9 587.415 8.8 587.415 11.5C587.415 14.2 589.315 16.1 591.615 16.1C593.515 16.1 594.715 14.9 595.315 13.6H593.715ZM591.515 8.3C592.715 8.3 593.715 9.3 593.915 10.9H589.015C589.215 9.4 590.315 8.3 591.515 8.3ZM603.207 13.6C602.907 14 602.207 14.7 601.107 14.7C599.807 14.7 598.607 13.5 598.507 12.2H604.907C604.907 12.2 605.007 11.9 605.007 11.4C605.007 8.7 603.207 6.9 601.007 6.9C598.807 6.9 596.907 8.8 596.907 11.5C596.907 14.2 598.807 16.1 601.107 16.1C603.007 16.1 604.207 14.9 604.807 13.6H603.207ZM601.007 8.3C602.207 8.3 603.207 9.3 603.407 10.9H598.507C598.707 9.4 599.807 8.3 601.007 8.3ZM45.8 34.3C45.8 34.3 46.9 33.8 46.9 32.5C46.9 31.1 45.8 30 44.3 30H40.3V39H44.6C46.1 39 47.2 37.9 47.2 36.4C47.2 34.8 45.8 34.3 45.8 34.3ZM44.1 31.4C44.9 31.4 45.4 31.9 45.4 32.6C45.4 33.2 44.9 33.7 44.1 33.7H41.8V31.4H44.1ZM44.4 37.6H41.8V35.1H44.4C45.1 35.1 45.7 35.7 45.7 36.3C45.7 37 45.1 37.6 44.4 37.6ZM50.6039 34.5C50.6039 32.6 51.9039 31.3 53.4039 31.3C54.9039 31.3 56.2039 32.6 56.2039 34.5C56.2039 36.4 54.9039 37.7 53.4039 37.7C51.9039 37.7 50.6039 36.4 50.6039 34.5ZM50.4039 30H49.3039V42.2H50.8039V37.9C50.8039 37.9 51.7039 39.1 53.5039 39.1C55.8039 39.1 57.7039 37.2 57.7039 34.5C57.7039 31.8 55.8039 29.9 53.5039 29.9C51.7039 29.9 50.8039 31 50.8039 31L50.4039 30ZM65.3945 36.6C65.0945 37 64.3945 37.7 63.2945 37.7C61.9945 37.7 60.7945 36.5 60.6945 35.2H67.0945C67.0945 35.2 67.1945 34.9 67.1945 34.4C67.1945 31.7 65.3945 29.9 63.1945 29.9C60.9945 29.9 59.0945 31.8 59.0945 34.5C59.0945 37.2 60.9945 39.1 63.2945 39.1C65.1945 39.1 66.3945 37.9 66.9945 36.6H65.3945ZM63.1945 31.3C64.3945 31.3 65.3945 32.3 65.5945 33.9H60.6945C60.8945 32.4 61.9945 31.3 63.1945 31.3ZM74.3867 39L77.0867 33.4V39H78.5867V30H77.2867L73.8867 37L70.4867 30H69.1867V39H70.6867V33.4L73.3867 39H74.3867ZM86.2789 35.8V39H87.7789V30H83.9789C82.0789 30 80.8789 31.2 80.8789 32.9C80.8789 35.1 82.6789 35.6 82.6789 35.6L80.5789 39H82.2789L84.2789 35.8H86.2789ZM86.2789 31.4V34.4H83.9789C83.0789 34.4 82.3789 33.7 82.3789 32.9C82.3789 32.1 83.0789 31.4 83.9789 31.4H86.2789Z" fill="#192632"/>
<circle cx="12" cy="12" r="11.5" stroke="#27AE60"/>
<path d="M8 12L11 15L16 9" stroke="#27AE60"/>
</svg>
