<svg width="74" height="14" viewBox="0 0 74 14" fill="none" xmlns="http://www.w3.org/2000/svg">
<path d="M2.2 0.399999H0.6V13H2.2V0.399999ZM7.5 13H9.4L4 6.6L9 0.399999H7.1L2.2 6.6L7.5 13ZM11.493 8.5C11.493 6.6 12.793 5.3 14.193 5.3C15.593 5.3 16.893 6.6 16.893 8.5C16.893 10.4 15.593 11.7 14.193 11.7C12.793 11.7 11.493 10.4 11.493 8.5ZM18.393 8.5C18.393 5.8 16.493 3.9 14.193 3.9C11.893 3.9 9.99297 5.8 9.99297 8.5C9.99297 11.2 11.893 13.1 14.193 13.1C16.493 13.1 18.393 11.2 18.393 8.5ZM26.4977 4V7.7H21.8977V4H20.3977V13H21.8977V9.1H26.4977V13H27.9977V4H26.4977ZM29.593 5.4H32.393V13H33.893V5.4H36.693V4H29.593V5.4ZM41.6883 3.9C39.6883 3.9 38.4883 5.1 38.2883 6.6H39.8883C40.0883 5.8 40.5883 5.3 41.6883 5.3C42.7883 5.3 43.5883 6.1 43.5883 7V7.5C39.0883 7.5 37.8883 8.7 37.8883 10.4C37.8883 11.9 39.0883 13.1 40.8883 13.1C42.6883 13.1 43.5883 12 43.5883 12L43.9883 13H45.0883V7C45.0883 5.3 43.6883 3.9 41.6883 3.9ZM40.8883 11.7C39.9883 11.7 39.3883 11.1 39.3883 10.5C39.3883 9.5 39.9883 8.9 43.5883 8.9V9.6C43.5883 10.6 42.4883 11.7 40.8883 11.7ZM49.0852 4H47.5852V13H49.0852V4ZM54.6852 13L50.7852 8.2L54.1852 4H52.4852L49.0852 8.3L52.8852 13H54.6852ZM54.8859 5.4H57.6859V13H59.1859V5.4H61.9859V4H54.8859V5.4ZM71.5813 4V13H73.0813V4H71.5813ZM65.0813 7.2V4H63.5813V13H67.0813C68.9813 13 70.1813 11.8 70.1813 10.1C70.1813 8.4 68.9813 7.2 67.0813 7.2H65.0813ZM65.0813 11.6V8.6H67.0813C67.9813 8.6 68.6813 9.3 68.6813 10.1C68.6813 10.9 67.9813 11.6 67.0813 11.6H65.0813Z" fill="#F1F1F1"/>
</svg>
