<svg width="187" height="42" viewBox="0 0 187 42" fill="none" xmlns="http://www.w3.org/2000/svg">
<path d="M27.8492 28.09C26.3092 28.09 24.8392 29.56 24.8392 31.59C24.8392 33.62 26.3092 35.09 27.8492 35.09C29.2492 35.09 30.1592 34.18 30.4392 33.06H31.6292C31.1392 34.74 29.8092 36.07 27.8492 36.07C25.6792 36.07 23.7192 34.11 23.7192 31.59C23.7192 29.07 25.6792 27.11 27.8492 27.11C29.7392 27.11 31.0692 28.44 31.5592 30.12H30.3692C30.0892 29 29.1792 28.09 27.8492 28.09ZM37.7859 35.02H38.6259V37.54H37.6459V36H33.0259V37.54H32.0459V35.02H32.3959C32.3959 35.02 33.1379 34.53 33.2359 33.62L33.6559 29.7H37.7859V35.02ZM34.5939 30.68L34.2859 33.62C34.2019 34.53 33.6559 35.02 33.6559 35.02H36.7359V30.68H34.5939ZM43.8092 34.32H44.9292C44.5092 35.23 43.6692 36.07 42.3392 36.07C40.7292 36.07 39.3992 34.74 39.3992 32.85C39.3992 30.96 40.7292 29.63 42.2692 29.63C43.8092 29.63 45.0692 30.89 45.0692 32.78C45.0692 33.13 44.9992 33.34 44.9992 33.34H40.5192C40.5892 34.25 41.4292 35.09 42.3392 35.09C43.1092 35.09 43.5992 34.6 43.8092 34.32ZM42.2692 30.61C41.4292 30.61 40.6592 31.38 40.5192 32.43H43.9492C43.8092 31.31 43.1092 30.61 42.2692 30.61ZM47.0937 29.7H51.3637V36H50.3137V30.61H48.0037L47.7937 33.97C47.7097 35.3 46.9537 36.07 45.9037 36.07C45.6937 36.07 45.4837 36 45.4837 36V35.09H45.6237C46.3237 35.09 46.6737 34.74 46.7437 33.97L47.0937 29.7ZM55.5703 29.63C56.9703 29.63 57.9503 30.61 57.9503 31.8V36H57.1803L56.9003 35.3C56.9003 35.3 56.2703 36.07 55.0103 36.07C53.7503 36.07 52.9103 35.23 52.9103 34.18C52.9103 32.99 53.7503 32.15 56.9003 32.15V31.8C56.9003 31.17 56.3403 30.61 55.5703 30.61C54.8003 30.61 54.4503 30.96 54.3103 31.52H53.1903C53.3303 30.47 54.1703 29.63 55.5703 29.63ZM55.0103 35.09C56.1303 35.09 56.9003 34.32 56.9003 33.62V33.13C54.3803 33.13 53.9603 33.55 53.9603 34.25C53.9603 34.67 54.3803 35.09 55.0103 35.09ZM63.9681 29.7H65.0181V36H63.9681V33.27H60.7481V36H59.6981V29.7H60.7481V32.29H63.9681V29.7ZM67.4648 32.85C67.4648 34.18 68.3748 35.09 69.3548 35.09C70.3348 35.09 71.2448 34.18 71.2448 32.85C71.2448 31.52 70.3348 30.61 69.3548 30.61C68.3748 30.61 67.4648 31.52 67.4648 32.85ZM72.2948 32.85C72.2948 34.74 70.9648 36.07 69.3548 36.07C67.7448 36.07 66.4148 34.74 66.4148 32.85C66.4148 30.96 67.7448 29.63 69.3548 29.63C70.9648 29.63 72.2948 30.96 72.2948 32.85ZM80.5559 32.71C80.5559 32.71 81.5359 33.06 81.5359 34.18C81.5359 35.23 80.7659 36 79.7159 36H76.7059V29.7H79.5059C80.5559 29.7 81.3259 30.47 81.3259 31.45C81.3259 32.36 80.5559 32.71 80.5559 32.71ZM79.3659 30.68H77.7559V32.29H79.3659C79.9259 32.29 80.2759 31.94 80.2759 31.52C80.2759 31.03 79.9259 30.68 79.3659 30.68ZM79.5759 35.02C80.0659 35.02 80.4859 34.6 80.4859 34.11C80.4859 33.69 80.0659 33.27 79.5759 33.27H77.7559V35.02H79.5759Z" fill="#5A636B"/>
<path d="M86.2264 27.18H89.2364C90.7764 27.18 92.0364 28.44 92.0364 29.91C92.0364 31.38 90.7764 32.64 89.2364 32.64H87.3464V36H86.2264V27.18ZM87.3464 31.66H89.2364C90.1464 31.66 90.9164 30.89 90.9164 29.91C90.9164 28.93 90.1464 28.16 89.2364 28.16H87.3464V31.66ZM97.4986 34.32H98.6186C98.1986 35.23 97.3586 36.07 96.0286 36.07C94.4186 36.07 93.0886 34.74 93.0886 32.85C93.0886 30.96 94.4186 29.63 95.9586 29.63C97.4986 29.63 98.7586 30.89 98.7586 32.78C98.7586 33.13 98.6886 33.34 98.6886 33.34H94.2086C94.2786 34.25 95.1186 35.09 96.0286 35.09C96.7986 35.09 97.2886 34.6 97.4986 34.32ZM95.9586 30.61C95.1186 30.61 94.3486 31.38 94.2086 32.43H97.6386C97.4986 31.31 96.7986 30.61 95.9586 30.61ZM100.783 28.93V28.02H101.693V29.7H103.093V30.68H101.693V33.97C101.693 34.67 102.113 35.09 102.743 35.09C102.953 35.09 103.093 35.02 103.093 35.02V35.93C103.093 35.93 102.883 36.07 102.463 36.07C101.483 36.07 100.643 35.23 100.643 33.97V30.68H99.5232V29.7H100.013C100.503 29.7 100.783 29.42 100.783 28.93ZM107.648 29.63V30.68H107.368C106.388 30.68 105.688 31.38 105.688 32.43V36H104.638V29.7H105.408L105.688 30.4C105.688 30.4 106.318 29.63 107.508 29.63H107.648ZM109.465 32.85C109.465 34.18 110.375 35.09 111.355 35.09C112.335 35.09 113.245 34.18 113.245 32.85C113.245 31.52 112.335 30.61 111.355 30.61C110.375 30.61 109.465 31.52 109.465 32.85ZM114.295 32.85C114.295 34.74 112.965 36.07 111.355 36.07C109.745 36.07 108.415 34.74 108.415 32.85C108.415 30.96 109.745 29.63 111.355 29.63C112.965 29.63 114.295 30.96 114.295 32.85ZM119.968 35.79V34.95C119.968 34.95 119.408 35.79 118.148 35.79C116.538 35.79 115.278 34.53 115.278 32.71C115.278 30.89 116.538 29.63 118.148 29.63C119.408 29.63 119.968 30.4 119.968 30.4L120.248 29.7H121.018V35.79C121.018 37.26 119.898 38.38 118.218 38.38C116.748 38.38 115.908 37.54 115.628 36.49H116.678C116.888 36.98 117.308 37.4 118.218 37.4C119.268 37.4 119.968 36.7 119.968 35.79ZM116.328 32.71C116.328 33.97 117.168 34.81 118.218 34.81C119.268 34.81 120.108 33.97 120.108 32.71C120.108 31.45 119.268 30.61 118.218 30.61C117.168 30.61 116.328 31.45 116.328 32.71ZM125.776 29.63V30.68H125.496C124.516 30.68 123.816 31.38 123.816 32.43V36H122.766V29.7H123.536L123.816 30.4C123.816 30.4 124.446 29.63 125.636 29.63H125.776ZM129.344 29.63C130.744 29.63 131.724 30.61 131.724 31.8V36H130.954L130.674 35.3C130.674 35.3 130.044 36.07 128.784 36.07C127.524 36.07 126.684 35.23 126.684 34.18C126.684 32.99 127.524 32.15 130.674 32.15V31.8C130.674 31.17 130.114 30.61 129.344 30.61C128.574 30.61 128.224 30.96 128.084 31.52H126.964C127.104 30.47 127.944 29.63 129.344 29.63ZM128.784 35.09C129.904 35.09 130.674 34.32 130.674 33.62V33.13C128.154 33.13 127.734 33.55 127.734 34.25C127.734 34.67 128.154 35.09 128.784 35.09ZM138.022 32.85C138.022 31.52 137.112 30.61 136.062 30.61C135.012 30.61 134.102 31.52 134.102 32.85C134.102 34.18 135.012 35.09 136.062 35.09C137.112 35.09 138.022 34.18 138.022 32.85ZM138.162 36L137.882 35.3C137.882 35.3 137.252 36.07 135.992 36.07C134.382 36.07 133.052 34.74 133.052 32.85C133.052 30.96 134.382 29.63 135.992 29.63C137.252 29.63 137.882 30.47 137.882 30.47V27.18H138.932V36H138.162ZM147.197 36L145.377 29.63L143.557 36H142.787L140.057 27.18H141.247L143.207 33.55L145.027 27.18H145.727L147.547 33.55L149.507 27.18H150.697L147.967 36H147.197ZM155.741 34.32H156.861C156.441 35.23 155.601 36.07 154.271 36.07C152.661 36.07 151.331 34.74 151.331 32.85C151.331 30.96 152.661 29.63 154.201 29.63C155.741 29.63 157.001 30.89 157.001 32.78C157.001 33.13 156.931 33.34 156.931 33.34H152.451C152.521 34.25 153.361 35.09 154.271 35.09C155.041 35.09 155.531 34.6 155.741 34.32ZM154.201 30.61C153.361 30.61 152.591 31.38 152.451 32.43H155.881C155.741 31.31 155.041 30.61 154.201 30.61ZM159.375 32.85C159.375 34.18 160.285 35.09 161.335 35.09C162.385 35.09 163.295 34.18 163.295 32.85C163.295 31.52 162.385 30.61 161.335 30.61C160.285 30.61 159.375 31.52 159.375 32.85ZM159.515 35.3L159.235 36H158.465V27.18H159.515V30.47C159.515 30.47 160.145 29.63 161.405 29.63C163.015 29.63 164.345 30.96 164.345 32.85C164.345 34.74 163.015 36.07 161.405 36.07C160.145 36.07 159.515 35.3 159.515 35.3Z" fill="#FC0000"/>
<path d="M86 41H164" stroke="#FC0000"/>
<path d="M19.69 3.09C21.02 3.09 21.93 4 22.21 5.12H23.4C22.91 3.44 21.58 2.11 19.69 2.11C17.52 2.11 15.56 4.07 15.56 6.59C15.56 9.11 17.52 11.07 19.69 11.07C21.65 11.07 22.98 9.74 23.47 8.06H22.28C22 9.18 21.09 10.09 19.69 10.09C18.15 10.09 16.68 8.62 16.68 6.59C16.68 4.56 18.15 3.09 19.69 3.09ZM28.6467 7.71C28.6467 7.71 29.4167 7.36 29.4167 6.45C29.4167 5.47 28.6467 4.7 27.5967 4.7H24.7967V11H27.8067C28.8567 11 29.6267 10.23 29.6267 9.18C29.6267 8.06 28.6467 7.71 28.6467 7.71ZM27.4567 5.68C28.0167 5.68 28.3667 6.03 28.3667 6.52C28.3667 6.94 28.0167 7.29 27.4567 7.29H25.8467V5.68H27.4567ZM27.6667 10.02H25.8467V8.27H27.6667C28.1567 8.27 28.5767 8.69 28.5767 9.11C28.5767 9.6 28.1567 10.02 27.6667 10.02ZM31.7295 7.85C31.7295 6.52 32.6395 5.61 33.6195 5.61C34.5995 5.61 35.5095 6.52 35.5095 7.85C35.5095 9.18 34.5995 10.09 33.6195 10.09C32.6395 10.09 31.7295 9.18 31.7295 7.85ZM36.5595 7.85C36.5595 5.96 35.2295 4.63 33.6195 4.63C32.0095 4.63 30.6795 5.96 30.6795 7.85C30.6795 9.74 32.0095 11.07 33.6195 11.07C35.2295 11.07 36.5595 9.74 36.5595 7.85ZM38.6627 5.96C38.8727 4.07 39.7827 3.16 42.7927 3.02V2.04C38.9427 2.25 37.6827 3.51 37.6827 7.15C37.6827 9.67 39.0827 11.07 40.6927 11.07C42.3027 11.07 43.5627 9.74 43.5627 7.99C43.5627 6.24 42.2327 4.91 40.7627 4.91C39.3627 4.91 38.6627 5.96 38.6627 5.96ZM40.6927 10.09C39.7127 10.09 38.8027 9.18 38.8027 7.99C38.8027 6.8 39.7127 5.89 40.6927 5.89C41.6727 5.89 42.5127 6.73 42.5127 7.99C42.5127 9.25 41.6727 10.09 40.6927 10.09ZM45.5927 7.85C45.5927 6.52 46.5027 5.61 47.4827 5.61C48.4627 5.61 49.3727 6.52 49.3727 7.85C49.3727 9.18 48.4627 10.09 47.4827 10.09C46.5027 10.09 45.5927 9.18 45.5927 7.85ZM50.4227 7.85C50.4227 5.96 49.0927 4.63 47.4827 4.63C45.8727 4.63 44.5427 5.96 44.5427 7.85C44.5427 9.74 45.8727 11.07 47.4827 11.07C49.0927 11.07 50.4227 9.74 50.4227 7.85ZM56.656 10.02V4.7H52.526L52.106 8.62C52.008 9.53 51.266 10.02 51.266 10.02H50.916V12.54H51.896V11H56.516V12.54H57.496V10.02H56.656ZM53.464 5.68H55.606V10.02H52.526C52.526 10.02 53.072 9.53 53.156 8.62L53.464 5.68ZM61.0693 4.63C59.6693 4.63 58.8293 5.47 58.6893 6.52H59.8093C59.9493 5.96 60.2993 5.61 61.0693 5.61C61.8393 5.61 62.3993 6.17 62.3993 6.8V7.15C59.2493 7.15 58.4093 7.99 58.4093 9.18C58.4093 10.23 59.2493 11.07 60.5093 11.07C61.7693 11.07 62.3993 10.3 62.3993 10.3L62.6793 11H63.4493V6.8C63.4493 5.61 62.4693 4.63 61.0693 4.63ZM60.5093 10.09C59.8793 10.09 59.4593 9.67 59.4593 9.25C59.4593 8.55 59.8793 8.13 62.3993 8.13V8.62C62.3993 9.32 61.6293 10.09 60.5093 10.09ZM64.7771 10.37C64.7771 10.79 65.0571 11.07 65.4771 11.07C65.8971 11.07 66.1771 10.79 66.1771 10.37C66.1771 9.95 65.8971 9.67 65.4771 9.67C65.0571 9.67 64.7771 9.95 64.7771 10.37ZM70.7938 2.18V11H71.9138V7.64H73.8038C75.3438 7.64 76.6038 6.38 76.6038 4.91C76.6038 3.44 75.3438 2.18 73.8038 2.18H70.7938ZM71.9138 6.66V3.16H73.8038C74.7138 3.16 75.4838 3.93 75.4838 4.91C75.4838 5.89 74.7138 6.66 73.8038 6.66H71.9138ZM80.456 4.63C79.056 4.63 78.216 5.47 78.076 6.52H79.196C79.336 5.96 79.686 5.61 80.456 5.61C81.226 5.61 81.786 6.17 81.786 6.8V7.15C78.636 7.15 77.796 7.99 77.796 9.18C77.796 10.23 78.636 11.07 79.896 11.07C81.156 11.07 81.786 10.3 81.786 10.3L82.066 11H82.836V6.8C82.836 5.61 81.856 4.63 80.456 4.63ZM79.896 10.09C79.266 10.09 78.846 9.67 78.846 9.25C78.846 8.55 79.266 8.13 81.786 8.13V8.62C81.786 9.32 81.016 10.09 79.896 10.09ZM88.4338 7.71C88.4338 7.71 89.2038 7.36 89.2038 6.45C89.2038 5.47 88.4338 4.7 87.3838 4.7H84.5838V11H87.5938C88.6438 11 89.4138 10.23 89.4138 9.18C89.4138 8.06 88.4338 7.71 88.4338 7.71ZM87.2438 5.68C87.8038 5.68 88.1538 6.03 88.1538 6.52C88.1538 6.94 87.8038 7.29 87.2438 7.29H85.6338V5.68H87.2438ZM87.4538 10.02H85.6338V8.27H87.4538C87.9438 8.27 88.3638 8.69 88.3638 9.11C88.3638 9.6 87.9438 10.02 87.4538 10.02ZM94.8766 9.32C94.6666 9.6 94.1766 10.09 93.4066 10.09C92.4966 10.09 91.6566 9.25 91.5866 8.34H96.0666C96.0666 8.34 96.1366 8.13 96.1366 7.78C96.1366 5.89 94.8766 4.63 93.3366 4.63C91.7966 4.63 90.4666 5.96 90.4666 7.85C90.4666 9.74 91.7966 11.07 93.4066 11.07C94.7366 11.07 95.5766 10.23 95.9966 9.32H94.8766ZM93.3366 5.61C94.1766 5.61 94.8766 6.31 95.0166 7.43H91.5866C91.7266 6.38 92.4966 5.61 93.3366 5.61ZM101.801 4.7V7.29H98.5811V4.7H97.5311V11H98.5811V8.27H101.801V11H102.851V4.7H101.801ZM107.188 5.61C108.028 5.61 108.658 6.24 108.868 6.94H109.918C109.638 5.68 108.588 4.63 107.188 4.63C105.578 4.63 104.248 5.96 104.248 7.85C104.248 9.74 105.578 11.07 107.188 11.07C108.588 11.07 109.638 10.02 109.918 8.76H108.868C108.658 9.46 108.028 10.09 107.188 10.09C106.208 10.09 105.298 9.18 105.298 7.85C105.298 6.52 106.208 5.61 107.188 5.61ZM110.544 5.68H112.504V11H113.554V5.68H115.514V4.7H110.544V5.68ZM120.481 7.71C120.481 7.71 121.251 7.36 121.251 6.45C121.251 5.47 120.481 4.7 119.431 4.7H116.631V11H119.641C120.691 11 121.461 10.23 121.461 9.18C121.461 8.06 120.481 7.71 120.481 7.71ZM119.291 5.68C119.851 5.68 120.201 6.03 120.201 6.52C120.201 6.94 119.851 7.29 119.291 7.29H117.681V5.68H119.291ZM119.501 10.02H117.681V8.27H119.501C119.991 8.27 120.411 8.69 120.411 9.11C120.411 9.6 119.991 10.02 119.501 10.02ZM123.563 7.85C123.563 6.52 124.473 5.61 125.453 5.61C126.433 5.61 127.343 6.52 127.343 7.85C127.343 9.18 126.433 10.09 125.453 10.09C124.473 10.09 123.563 9.18 123.563 7.85ZM128.393 7.85C128.393 5.96 127.063 4.63 125.453 4.63C123.843 4.63 122.513 5.96 122.513 7.85C122.513 9.74 123.843 11.07 125.453 11.07C127.063 11.07 128.393 9.74 128.393 7.85ZM129.377 10.37C129.377 10.79 129.657 11.07 130.077 11.07C130.497 11.07 130.777 10.79 130.777 10.37C130.777 9.95 130.497 9.67 130.077 9.67C129.657 9.67 129.377 9.95 129.377 10.37ZM135.393 11H138.823C140.363 11 141.483 9.88 141.483 8.41C141.483 6.94 140.363 5.82 138.823 5.82H136.513V3.3H140.853V2.18H135.393V11ZM138.823 6.8C139.733 6.8 140.363 7.43 140.363 8.41C140.363 9.39 139.733 10.02 138.823 10.02H136.513V6.8H138.823ZM143.859 7.85C143.859 6.52 144.769 5.61 145.819 5.61C146.869 5.61 147.779 6.52 147.779 7.85C147.779 9.18 146.869 10.09 145.819 10.09C144.769 10.09 143.859 9.18 143.859 7.85ZM143.719 4.7H142.949V13.24H143.999V10.23C143.999 10.23 144.629 11.07 145.889 11.07C147.499 11.07 148.829 9.74 148.829 7.85C148.829 5.96 147.499 4.63 145.889 4.63C144.629 4.63 143.999 5.4 143.999 5.4L143.719 4.7ZM152.603 4.63C151.203 4.63 150.363 5.47 150.223 6.52H151.343C151.483 5.96 151.833 5.61 152.603 5.61C153.373 5.61 153.933 6.17 153.933 6.8V7.15C150.783 7.15 149.943 7.99 149.943 9.18C149.943 10.23 150.783 11.07 152.043 11.07C153.303 11.07 153.933 10.3 153.933 10.3L154.213 11H154.983V6.8C154.983 5.61 154.003 4.63 152.603 4.63ZM152.043 10.09C151.413 10.09 150.993 9.67 150.993 9.25C150.993 8.55 151.413 8.13 153.933 8.13V8.62C153.933 9.32 153.163 10.09 152.043 10.09ZM156.03 5.68H157.99V11H159.04V5.68H161V4.7H156.03V5.68ZM164.637 5.61C165.477 5.61 166.107 6.24 166.317 6.94H167.367C167.087 5.68 166.037 4.63 164.637 4.63C163.027 4.63 161.697 5.96 161.697 7.85C161.697 9.74 163.027 11.07 164.637 11.07C166.037 11.07 167.087 10.02 167.367 8.76H166.317C166.107 9.46 165.477 10.09 164.637 10.09C163.657 10.09 162.747 9.18 162.747 7.85C162.747 6.52 163.657 5.61 164.637 5.61ZM167.993 5.68H169.953V11H171.003V5.68H172.963V4.7H167.993V5.68ZM177.93 7.71C177.93 7.71 178.7 7.36 178.7 6.45C178.7 5.47 177.93 4.7 176.88 4.7H174.08V11H177.09C178.14 11 178.91 10.23 178.91 9.18C178.91 8.06 177.93 7.71 177.93 7.71ZM176.74 5.68C177.3 5.68 177.65 6.03 177.65 6.52C177.65 6.94 177.3 7.29 176.74 7.29H175.13V5.68H176.74ZM176.95 10.02H175.13V8.27H176.95C177.44 8.27 177.86 8.69 177.86 9.11C177.86 9.6 177.44 10.02 176.95 10.02ZM181.013 7.85C181.013 6.52 181.923 5.61 182.903 5.61C183.883 5.61 184.793 6.52 184.793 7.85C184.793 9.18 183.883 10.09 182.903 10.09C181.923 10.09 181.013 9.18 181.013 7.85ZM185.843 7.85C185.843 5.96 184.513 4.63 182.903 4.63C181.293 4.63 179.963 5.96 179.963 7.85C179.963 9.74 181.293 11.07 182.903 11.07C184.513 11.07 185.843 9.74 185.843 7.85Z" fill="#F1F1F1"/>
<path d="M5.50364 1C6.42699 1 7.32847 1.23813 8.20808 1.71438C9.0877 2.18577 9.77292 2.86371 10.2638 3.74818C10.7546 4.62779 11 5.54628 11 6.50364C11 7.45129 10.757 8.36249 10.271 9.23724C9.78993 10.112 9.11199 10.7924 8.23724 11.2783C7.36735 11.7594 6.45615 12 5.50364 12C4.55114 12 3.63751 11.7594 2.76276 11.2783C1.89286 10.7924 1.21493 10.112 0.72896 9.23724C0.242987 8.36249 0 7.45129 0 6.50364C0 5.54628 0.245416 4.62779 0.736249 3.74818C1.23194 2.86371 1.91959 2.18577 2.7992 1.71438C3.67882 1.23813 4.5803 1 5.50364 1ZM5.50364 1.9112C4.73095 1.9112 3.97769 2.11045 3.24387 2.50895C2.51491 2.90258 1.94389 3.46874 1.53082 4.20742C1.11774 4.94124 0.911199 5.70665 0.911199 6.50364C0.911199 7.29578 1.11288 8.05633 1.51624 8.78529C1.92445 9.50939 2.49304 10.0755 3.222 10.4838C3.95096 10.8871 4.71151 11.0888 5.50364 11.0888C6.29578 11.0888 7.05633 10.8871 7.78529 10.4838C8.51425 10.0755 9.08041 9.50939 9.48376 8.78529C9.88712 8.05633 10.0888 7.29578 10.0888 6.50364C10.0888 5.70665 9.88226 4.94124 9.46918 4.20742C9.06097 3.46874 8.48995 2.90258 7.75613 2.50895C7.02231 2.11045 6.27148 1.9112 5.50364 1.9112ZM7.26773 7.39298L8.16435 7.6554C8.01856 8.26287 7.70753 8.74884 7.23128 9.11332C6.75989 9.47294 6.18644 9.65275 5.51093 9.65275C4.65562 9.65275 3.96068 9.37575 3.42611 8.82174C2.89154 8.26773 2.62425 7.49989 2.62425 6.51822C2.62425 5.87674 2.74575 5.3203 2.98873 4.84891C3.23172 4.37265 3.57676 4.01546 4.02386 3.77734C4.47581 3.53435 4.99094 3.41286 5.56925 3.41286C6.2156 3.41286 6.7526 3.56837 7.18025 3.87939C7.60791 4.18555 7.89949 4.60349 8.055 5.1332L7.18754 5.3446C7.04175 4.98498 6.82549 4.7104 6.53877 4.52087C6.2569 4.32649 5.92401 4.22929 5.54009 4.22929C4.98122 4.22929 4.51955 4.42854 4.15507 4.82704C3.79545 5.22554 3.61564 5.79655 3.61564 6.54009C3.61564 7.28363 3.78573 7.84736 4.12591 8.23128C4.47095 8.61034 4.91562 8.79987 5.45991 8.79987C5.89728 8.79987 6.2812 8.67351 6.61166 8.42081C6.94212 8.1681 7.16081 7.82549 7.26773 7.39298Z" fill="#F1F1F1"/>
</svg>
