<svg width="210" height="56" viewBox="0 0 210 56" fill="none" xmlns="http://www.w3.org/2000/svg">
<path d="M17.9776 7.4832C18.2116 6.60842 19.0042 6 19.9097 6H207.395C208.709 6 209.667 7.24676 209.327 8.51681L197.022 54.5168C196.788 55.3916 195.996 56 195.09 56H7.60528C6.29059 56 5.33349 54.7532 5.67321 53.4832L17.9776 7.4832Z" fill="#B90303"/>
<path d="M12.9776 1.4832C13.2116 0.608419 14.0042 0 14.9097 0H202.395C203.709 0 204.667 1.24676 204.327 2.51681L192.022 48.5168C191.788 49.3916 190.996 50 190.09 50H2.60528C1.29059 50 0.333493 48.7532 0.673214 47.4832L12.9776 1.4832Z" fill="#FC0000"/>
<path d="M60.3496 22.8C60.4496 21.6 61.3496 20.7 62.7496 20.7C64.1496 20.7 65.0496 21.6 65.0496 22.8C65.0496 24 64.1496 24.9 62.7496 24.9H61.9296V26.3H62.8496C64.4496 26.3 65.4496 27.3 65.4496 28.5C65.4496 29.7 64.4496 30.7 62.8496 30.7C61.2496 30.7 60.3496 29.8 60.1496 28.6H58.5496C58.8496 30.6 60.3496 32.1 62.8496 32.1C65.3496 32.1 67.0496 30.4 67.0496 28.5C67.0496 26.2 64.9496 25.4 64.9496 25.4C64.9496 25.4 66.6496 24.6 66.6496 22.8C66.6496 20.9 65.0496 19.3 62.7496 19.3C60.4496 19.3 58.9496 20.8 58.7496 22.8H60.3496ZM77.9543 32H79.6543L74.8543 19.4H73.4543L68.6543 32H70.3543L71.5543 28.9H76.7543L77.9543 32ZM74.1543 22L76.2543 27.5H72.0543L74.1543 22ZM83.6504 19.4H82.0504V32H83.6504V19.4ZM88.9504 32H90.8504L85.4504 25.6L90.4504 19.4H88.5504L83.6504 25.6L88.9504 32ZM100.843 32H102.543L97.7434 19.4H96.3434L91.5434 32H93.2434L94.4434 28.9H99.6434L100.843 32ZM97.0434 22L99.1434 27.5H94.9434L97.0434 22ZM105.639 22.8C105.739 21.6 106.639 20.7 108.039 20.7C109.439 20.7 110.339 21.6 110.339 22.8C110.339 24 109.439 24.9 108.039 24.9H107.219V26.3H108.139C109.739 26.3 110.739 27.3 110.739 28.5C110.739 29.7 109.739 30.7 108.139 30.7C106.539 30.7 105.639 29.8 105.439 28.6H103.839C104.139 30.6 105.639 32.1 108.139 32.1C110.639 32.1 112.339 30.4 112.339 28.5C112.339 26.2 110.239 25.4 110.239 25.4C110.239 25.4 111.939 24.6 111.939 22.8C111.939 20.9 110.339 19.3 108.039 19.3C105.739 19.3 104.239 20.8 104.039 22.8H105.639ZM123.244 32H124.944L120.144 19.4H118.744L113.944 32H115.644L116.844 28.9H122.044L123.244 32ZM119.444 22L121.544 27.5H117.344L119.444 22ZM135.24 19.4H126.04V20.8H129.84V32H131.44V20.8H135.24V19.4ZM142.345 32C144.545 32 146.345 30.2 146.345 28.1C146.345 26 144.545 24.2 142.345 24.2H139.545V19.4H137.945V32H142.345ZM142.345 25.6C143.645 25.6 144.745 26.7 144.745 28.1C144.745 29.5 143.645 30.6 142.345 30.6H139.545V25.6H142.345Z" fill="#FFFBE5"/>
</svg>
