<svg width="203" height="24" viewBox="0 0 203 24" fill="none" xmlns="http://www.w3.org/2000/svg">
<path d="M6.7 4.7C4.5 4.7 2.4 6.8 2.4 9.7C2.4 12.6 4.5 14.7 6.7 14.7C8.7 14.7 10 13.4 10.4 11.8H12.1C11.4 14.2 9.5 16.1 6.7 16.1C3.6 16.1 0.8 13.3 0.8 9.7C0.8 6.1 3.6 3.3 6.7 3.3C9.4 3.3 11.3 5.2 12 7.6H10.3C9.9 6 8.6 4.7 6.7 4.7ZM20.8953 14.6H22.0953V18.2H20.6953V16H14.0953V18.2H12.6953V14.6H13.1953C13.1953 14.6 14.2553 13.9 14.3953 12.6L14.9953 7H20.8953V14.6ZM16.3353 8.4L15.8953 12.6C15.7753 13.9 14.9953 14.6 14.9953 14.6H19.3953V8.4H16.3353ZM29.5 13.6H31.1C30.5 14.9 29.3 16.1 27.4 16.1C25.1 16.1 23.2 14.2 23.2 11.5C23.2 8.8 25.1 6.9 27.3 6.9C29.5 6.9 31.3 8.7 31.3 11.4C31.3 11.9 31.2 12.2 31.2 12.2H24.8C24.9 13.5 26.1 14.7 27.4 14.7C28.5 14.7 29.2 14 29.5 13.6ZM27.3 8.3C26.1 8.3 25 9.4 24.8 10.9H29.7C29.5 9.3 28.5 8.3 27.3 8.3ZM34.1922 7H40.2922V16H38.7922V8.3H35.4922L35.1922 13.1C35.0722 15 33.9922 16.1 32.4922 16.1C32.1922 16.1 31.8922 16 31.8922 16V14.7H32.0922C33.0922 14.7 33.5922 14.2 33.6922 13.1L34.1922 7ZM46.3016 6.9C48.3016 6.9 49.7016 8.3 49.7016 10V16H48.6016L48.2016 15C48.2016 15 47.3016 16.1 45.5016 16.1C43.7016 16.1 42.5016 14.9 42.5016 13.4C42.5016 11.7 43.7016 10.5 48.2016 10.5V10C48.2016 9.1 47.4016 8.3 46.3016 8.3C45.2016 8.3 44.7016 8.8 44.5016 9.6H42.9016C43.1016 8.1 44.3016 6.9 46.3016 6.9ZM45.5016 14.7C47.1016 14.7 48.2016 13.6 48.2016 12.6V11.9C44.6016 11.9 44.0016 12.5 44.0016 13.5C44.0016 14.1 44.6016 14.7 45.5016 14.7ZM58.2984 7H59.7984V16H58.2984V12.1H53.6984V16H52.1984V7H53.6984V10.7H58.2984V7ZM63.2938 11.5C63.2938 13.4 64.5938 14.7 65.9938 14.7C67.3938 14.7 68.6938 13.4 68.6938 11.5C68.6938 9.6 67.3938 8.3 65.9938 8.3C64.5938 8.3 63.2938 9.6 63.2938 11.5ZM70.1938 11.5C70.1938 14.2 68.2938 16.1 65.9938 16.1C63.6938 16.1 61.7938 14.2 61.7938 11.5C61.7938 8.8 63.6938 6.9 65.9938 6.9C68.2938 6.9 70.1938 8.8 70.1938 11.5ZM81.9953 11.3C81.9953 11.3 83.3953 11.8 83.3953 13.4C83.3953 14.9 82.2953 16 80.7953 16H76.4953V7H80.4953C81.9953 7 83.0953 8.1 83.0953 9.5C83.0953 10.8 81.9953 11.3 81.9953 11.3ZM80.2953 8.4H77.9953V10.7H80.2953C81.0953 10.7 81.5953 10.2 81.5953 9.6C81.5953 8.9 81.0953 8.4 80.2953 8.4ZM80.5953 14.6C81.2953 14.6 81.8953 14 81.8953 13.3C81.8953 12.7 81.2953 12.1 80.5953 12.1H77.9953V14.6H80.5953Z" fill="#5A636B"/>
<path d="M90.0961 3.4H94.3961C96.5961 3.4 98.3961 5.2 98.3961 7.3C98.3961 9.4 96.5961 11.2 94.3961 11.2H91.6961V16H90.0961V3.4ZM91.6961 9.8H94.3961C95.6961 9.8 96.7961 8.7 96.7961 7.3C96.7961 5.9 95.6961 4.8 94.3961 4.8H91.6961V9.8ZM106.199 13.6H107.799C107.199 14.9 105.999 16.1 104.099 16.1C101.799 16.1 99.8992 14.2 99.8992 11.5C99.8992 8.8 101.799 6.9 103.999 6.9C106.199 6.9 107.999 8.7 107.999 11.4C107.999 11.9 107.899 12.2 107.899 12.2H101.499C101.599 13.5 102.799 14.7 104.099 14.7C105.199 14.7 105.899 14 106.199 13.6ZM103.999 8.3C102.799 8.3 101.699 9.4 101.499 10.9H106.399C106.199 9.3 105.199 8.3 103.999 8.3ZM110.891 5.9V4.6H112.191V7H114.191V8.4H112.191V13.1C112.191 14.1 112.791 14.7 113.691 14.7C113.991 14.7 114.191 14.6 114.191 14.6V15.9C114.191 15.9 113.891 16.1 113.291 16.1C111.891 16.1 110.691 14.9 110.691 13.1V8.4H109.091V7H109.791C110.491 7 110.891 6.6 110.891 5.9ZM120.698 6.9V8.4H120.298C118.898 8.4 117.898 9.4 117.898 10.9V16H116.398V7H117.498L117.898 8C117.898 8 118.798 6.9 120.498 6.9H120.698ZM123.294 11.5C123.294 13.4 124.594 14.7 125.994 14.7C127.394 14.7 128.694 13.4 128.694 11.5C128.694 9.6 127.394 8.3 125.994 8.3C124.594 8.3 123.294 9.6 123.294 11.5ZM130.194 11.5C130.194 14.2 128.294 16.1 125.994 16.1C123.694 16.1 121.794 14.2 121.794 11.5C121.794 8.8 123.694 6.9 125.994 6.9C128.294 6.9 130.194 8.8 130.194 11.5ZM138.298 15.7V14.5C138.298 14.5 137.498 15.7 135.698 15.7C133.398 15.7 131.598 13.9 131.598 11.3C131.598 8.7 133.398 6.9 135.698 6.9C137.498 6.9 138.298 8 138.298 8L138.698 7H139.798V15.7C139.798 17.8 138.198 19.4 135.798 19.4C133.698 19.4 132.498 18.2 132.098 16.7H133.598C133.898 17.4 134.498 18 135.798 18C137.298 18 138.298 17 138.298 15.7ZM133.098 11.3C133.098 13.1 134.298 14.3 135.798 14.3C137.298 14.3 138.498 13.1 138.498 11.3C138.498 9.5 137.298 8.3 135.798 8.3C134.298 8.3 133.098 9.5 133.098 11.3ZM146.596 6.9V8.4H146.196C144.796 8.4 143.796 9.4 143.796 10.9V16H142.296V7H143.396L143.796 8C143.796 8 144.696 6.9 146.396 6.9H146.596ZM151.692 6.9C153.692 6.9 155.092 8.3 155.092 10V16H153.992L153.592 15C153.592 15 152.692 16.1 150.892 16.1C149.092 16.1 147.892 14.9 147.892 13.4C147.892 11.7 149.092 10.5 153.592 10.5V10C153.592 9.1 152.792 8.3 151.692 8.3C150.592 8.3 150.092 8.8 149.892 9.6H148.292C148.492 8.1 149.692 6.9 151.692 6.9ZM150.892 14.7C152.492 14.7 153.592 13.6 153.592 12.6V11.9C149.992 11.9 149.392 12.5 149.392 13.5C149.392 14.1 149.992 14.7 150.892 14.7ZM164.089 11.5C164.089 9.6 162.789 8.3 161.289 8.3C159.789 8.3 158.489 9.6 158.489 11.5C158.489 13.4 159.789 14.7 161.289 14.7C162.789 14.7 164.089 13.4 164.089 11.5ZM164.289 16L163.889 15C163.889 15 162.989 16.1 161.189 16.1C158.889 16.1 156.989 14.2 156.989 11.5C156.989 8.8 158.889 6.9 161.189 6.9C162.989 6.9 163.889 8.1 163.889 8.1V3.4H165.389V16H164.289ZM177.197 16L174.597 6.9L171.997 16H170.897L166.997 3.4H168.697L171.497 12.5L174.097 3.4H175.097L177.697 12.5L180.497 3.4H182.197L178.297 16H177.197ZM189.402 13.6H191.002C190.402 14.9 189.202 16.1 187.302 16.1C185.002 16.1 183.102 14.2 183.102 11.5C183.102 8.8 185.002 6.9 187.202 6.9C189.402 6.9 191.202 8.7 191.202 11.4C191.202 11.9 191.102 12.2 191.102 12.2H184.702C184.802 13.5 186.002 14.7 187.302 14.7C188.402 14.7 189.102 14 189.402 13.6ZM187.202 8.3C186.002 8.3 184.902 9.4 184.702 10.9H189.602C189.402 9.3 188.402 8.3 187.202 8.3ZM194.595 11.5C194.595 13.4 195.895 14.7 197.395 14.7C198.895 14.7 200.195 13.4 200.195 11.5C200.195 9.6 198.895 8.3 197.395 8.3C195.895 8.3 194.595 9.6 194.595 11.5ZM194.795 15L194.395 16H193.295V3.4H194.795V8.1C194.795 8.1 195.695 6.9 197.495 6.9C199.795 6.9 201.695 8.8 201.695 11.5C201.695 14.2 199.795 16.1 197.495 16.1C195.695 16.1 194.795 15 194.795 15Z" fill="#FC0000"/>
<path d="M90 23H201" stroke="#FC0000"/>
</svg>
