<svg width="203" height="24" viewBox="0 0 203 24" fill="none" xmlns="http://www.w3.org/2000/svg">
<path d="M6.7 4.7C8.6 4.7 9.9 6 10.3 7.6H12C11.3 5.2 9.4 3.3 6.7 3.3C3.6 3.3 0.8 6.1 0.8 9.7C0.8 13.3 3.6 16.1 6.7 16.1C9.5 16.1 11.4 14.2 12.1 11.8H10.4C10 13.4 8.7 14.7 6.7 14.7C4.5 14.7 2.4 12.6 2.4 9.7C2.4 6.8 4.5 4.7 6.7 4.7ZM20.8953 14.6V7H14.9953L14.3953 12.6C14.2553 13.9 13.1953 14.6 13.1953 14.6H12.6953V18.2H14.0953V16H20.6953V18.2H22.0953V14.6H20.8953ZM16.3353 8.4H19.3953V14.6H14.9953C14.9953 14.6 15.7753 13.9 15.8953 12.6L16.3353 8.4ZM29.5 13.6C29.2 14 28.5 14.7 27.4 14.7C26.1 14.7 24.9 13.5 24.8 12.2H31.2C31.2 12.2 31.3 11.9 31.3 11.4C31.3 8.7 29.5 6.9 27.3 6.9C25.1 6.9 23.2 8.8 23.2 11.5C23.2 14.2 25.1 16.1 27.4 16.1C29.3 16.1 30.5 14.9 31.1 13.6H29.5ZM27.3 8.3C28.5 8.3 29.5 9.3 29.7 10.9H24.8C25 9.4 26.1 8.3 27.3 8.3ZM34.1922 7L33.6922 13.1C33.5922 14.2 33.0922 14.7 32.0922 14.7H31.8922V16C31.8922 16 32.1922 16.1 32.4922 16.1C33.9922 16.1 35.0722 15 35.1922 13.1L35.4922 8.3H38.7922V16H40.2922V7H34.1922ZM46.3016 6.9C44.3016 6.9 43.1016 8.1 42.9016 9.6H44.5016C44.7016 8.8 45.2016 8.3 46.3016 8.3C47.4016 8.3 48.2016 9.1 48.2016 10V10.5C43.7016 10.5 42.5016 11.7 42.5016 13.4C42.5016 14.9 43.7016 16.1 45.5016 16.1C47.3016 16.1 48.2016 15 48.2016 15L48.6016 16H49.7016V10C49.7016 8.3 48.3016 6.9 46.3016 6.9ZM45.5016 14.7C44.6016 14.7 44.0016 14.1 44.0016 13.5C44.0016 12.5 44.6016 11.9 48.2016 11.9V12.6C48.2016 13.6 47.1016 14.7 45.5016 14.7ZM58.2984 7V10.7H53.6984V7H52.1984V16H53.6984V12.1H58.2984V16H59.7984V7H58.2984ZM63.2938 11.5C63.2938 9.6 64.5938 8.3 65.9938 8.3C67.3938 8.3 68.6938 9.6 68.6938 11.5C68.6938 13.4 67.3938 14.7 65.9938 14.7C64.5938 14.7 63.2938 13.4 63.2938 11.5ZM70.1938 11.5C70.1938 8.8 68.2938 6.9 65.9938 6.9C63.6938 6.9 61.7938 8.8 61.7938 11.5C61.7938 14.2 63.6938 16.1 65.9938 16.1C68.2938 16.1 70.1938 14.2 70.1938 11.5ZM81.9953 11.3C81.9953 11.3 83.0953 10.8 83.0953 9.5C83.0953 8.1 81.9953 7 80.4953 7H76.4953V16H80.7953C82.2953 16 83.3953 14.9 83.3953 13.4C83.3953 11.8 81.9953 11.3 81.9953 11.3ZM80.2953 8.4C81.0953 8.4 81.5953 8.9 81.5953 9.6C81.5953 10.2 81.0953 10.7 80.2953 10.7H77.9953V8.4H80.2953ZM80.5953 14.6H77.9953V12.1H80.5953C81.2953 12.1 81.8953 12.7 81.8953 13.3C81.8953 14 81.2953 14.6 80.5953 14.6Z" fill="#5A636B"/>
<path d="M90.0961 3.4V16H91.6961V11.2H94.3961C96.5961 11.2 98.3961 9.4 98.3961 7.3C98.3961 5.2 96.5961 3.4 94.3961 3.4H90.0961ZM91.6961 9.8V4.8H94.3961C95.6961 4.8 96.7961 5.9 96.7961 7.3C96.7961 8.7 95.6961 9.8 94.3961 9.8H91.6961ZM106.199 13.6C105.899 14 105.199 14.7 104.099 14.7C102.799 14.7 101.599 13.5 101.499 12.2H107.899C107.899 12.2 107.999 11.9 107.999 11.4C107.999 8.7 106.199 6.9 103.999 6.9C101.799 6.9 99.8992 8.8 99.8992 11.5C99.8992 14.2 101.799 16.1 104.099 16.1C105.999 16.1 107.199 14.9 107.799 13.6H106.199ZM103.999 8.3C105.199 8.3 106.199 9.3 106.399 10.9H101.499C101.699 9.4 102.799 8.3 103.999 8.3ZM110.891 5.9C110.891 6.6 110.491 7 109.791 7H109.091V8.4H110.691V13.1C110.691 14.9 111.891 16.1 113.291 16.1C113.891 16.1 114.191 15.9 114.191 15.9V14.6C114.191 14.6 113.991 14.7 113.691 14.7C112.791 14.7 112.191 14.1 112.191 13.1V8.4H114.191V7H112.191V4.6H110.891V5.9ZM120.698 6.9H120.498C118.798 6.9 117.898 8 117.898 8L117.498 7H116.398V16H117.898V10.9C117.898 9.4 118.898 8.4 120.298 8.4H120.698V6.9ZM123.294 11.5C123.294 9.6 124.594 8.3 125.994 8.3C127.394 8.3 128.694 9.6 128.694 11.5C128.694 13.4 127.394 14.7 125.994 14.7C124.594 14.7 123.294 13.4 123.294 11.5ZM130.194 11.5C130.194 8.8 128.294 6.9 125.994 6.9C123.694 6.9 121.794 8.8 121.794 11.5C121.794 14.2 123.694 16.1 125.994 16.1C128.294 16.1 130.194 14.2 130.194 11.5ZM138.298 15.7C138.298 17 137.298 18 135.798 18C134.498 18 133.898 17.4 133.598 16.7H132.098C132.498 18.2 133.698 19.4 135.798 19.4C138.198 19.4 139.798 17.8 139.798 15.7V7H138.698L138.298 8C138.298 8 137.498 6.9 135.698 6.9C133.398 6.9 131.598 8.7 131.598 11.3C131.598 13.9 133.398 15.7 135.698 15.7C137.498 15.7 138.298 14.5 138.298 14.5V15.7ZM133.098 11.3C133.098 9.5 134.298 8.3 135.798 8.3C137.298 8.3 138.498 9.5 138.498 11.3C138.498 13.1 137.298 14.3 135.798 14.3C134.298 14.3 133.098 13.1 133.098 11.3ZM146.596 6.9H146.396C144.696 6.9 143.796 8 143.796 8L143.396 7H142.296V16H143.796V10.9C143.796 9.4 144.796 8.4 146.196 8.4H146.596V6.9ZM151.692 6.9C149.692 6.9 148.492 8.1 148.292 9.6H149.892C150.092 8.8 150.592 8.3 151.692 8.3C152.792 8.3 153.592 9.1 153.592 10V10.5C149.092 10.5 147.892 11.7 147.892 13.4C147.892 14.9 149.092 16.1 150.892 16.1C152.692 16.1 153.592 15 153.592 15L153.992 16H155.092V10C155.092 8.3 153.692 6.9 151.692 6.9ZM150.892 14.7C149.992 14.7 149.392 14.1 149.392 13.5C149.392 12.5 149.992 11.9 153.592 11.9V12.6C153.592 13.6 152.492 14.7 150.892 14.7ZM164.089 11.5C164.089 13.4 162.789 14.7 161.289 14.7C159.789 14.7 158.489 13.4 158.489 11.5C158.489 9.6 159.789 8.3 161.289 8.3C162.789 8.3 164.089 9.6 164.089 11.5ZM164.289 16H165.389V3.4H163.889V8.1C163.889 8.1 162.989 6.9 161.189 6.9C158.889 6.9 156.989 8.8 156.989 11.5C156.989 14.2 158.889 16.1 161.189 16.1C162.989 16.1 163.889 15 163.889 15L164.289 16ZM177.197 16H178.297L182.197 3.4H180.497L177.697 12.5L175.097 3.4H174.097L171.497 12.5L168.697 3.4H166.997L170.897 16H171.997L174.597 6.9L177.197 16ZM189.402 13.6C189.102 14 188.402 14.7 187.302 14.7C186.002 14.7 184.802 13.5 184.702 12.2H191.102C191.102 12.2 191.202 11.9 191.202 11.4C191.202 8.7 189.402 6.9 187.202 6.9C185.002 6.9 183.102 8.8 183.102 11.5C183.102 14.2 185.002 16.1 187.302 16.1C189.202 16.1 190.402 14.9 191.002 13.6H189.402ZM187.202 8.3C188.402 8.3 189.402 9.3 189.602 10.9H184.702C184.902 9.4 186.002 8.3 187.202 8.3ZM194.595 11.5C194.595 9.6 195.895 8.3 197.395 8.3C198.895 8.3 200.195 9.6 200.195 11.5C200.195 13.4 198.895 14.7 197.395 14.7C195.895 14.7 194.595 13.4 194.595 11.5ZM194.795 15C194.795 15 195.695 16.1 197.495 16.1C199.795 16.1 201.695 14.2 201.695 11.5C201.695 8.8 199.795 6.9 197.495 6.9C195.695 6.9 194.795 8.1 194.795 8.1V3.4H193.295V16H194.395L194.795 15Z" fill="#F1F1F1"/>
<path d="M90 23H201" stroke="#F1F1F1"/>
</svg>
