<svg width="136" height="136" viewBox="0 0 136 136" fill="none" xmlns="http://www.w3.org/2000/svg">
<path d="M72.9419 6.67791C72.6302 6.80258 71.9445 6.92726 71.1341 6.92726C69.264 6.86492 67.8926 5.55584 67.9549 3.37405C68.0796 1.25459 69.5133 -0.116827 71.6328 0.0078471C72.4432 0.0701841 73.0042 0.257195 73.1912 0.381869L72.9419 1.06758C72.6302 0.880565 72.1315 0.755891 71.5705 0.755891C70.012 0.693554 68.89 1.62861 68.8276 3.43638C68.7653 5.05715 69.638 6.17921 71.2588 6.24155C71.7575 6.24155 72.3185 6.17921 72.6925 6.05454L72.9419 6.67791Z" fill="#192632"/>
<path d="M74.5626 2.18982L75.6223 2.31449L76.121 4.87031C76.1833 5.24433 76.308 5.8677 76.3704 6.24173C76.5574 5.93004 76.9314 5.182 77.1807 4.6833L78.2405 2.68852L79.3002 2.81319L78.9262 7.61314L78.1158 7.48847L78.3651 5.182C78.4275 4.6833 78.4275 4.05993 78.5521 3.43656C78.3651 3.87292 78.1781 4.24694 77.8041 4.93265L76.5574 7.23912L75.934 7.17678L75.4353 4.6833C75.373 4.1846 75.2483 3.4989 75.1859 3.0002H75.1236C74.9989 3.56123 74.8743 4.1846 74.8119 4.6833L74.3756 6.92743L73.5652 6.80276L74.5626 2.18982Z" fill="#192632"/>
<path d="M84.7856 6.55306C84.3493 8.29849 82.9779 8.73485 81.8558 8.4855C80.6091 8.17382 79.861 6.98942 80.1727 5.55566C80.5467 3.99724 81.7935 3.31153 83.1025 3.62322C84.474 3.9349 85.1597 5.11931 84.7856 6.55306ZM81.0454 5.74268C80.7961 6.74007 81.1701 7.67512 82.0428 7.86213C82.8532 8.04915 83.6636 7.42578 83.9129 6.36605C84.0999 5.55566 83.9753 4.49593 82.9155 4.24659C81.9805 3.99724 81.2948 4.80762 81.0454 5.74268Z" fill="#192632"/>
<path d="M89.7106 5.68048L89.5236 6.36618L88.0898 5.92983L86.8431 9.85706L86.0327 9.60771L87.2795 5.68048L85.8457 5.24412L86.0327 4.55841L89.7106 5.68048Z" fill="#192632"/>
<path d="M90.0225 7.48815C90.2719 6.92712 90.4589 6.42842 90.5836 5.99207L91.3316 6.30375L91.0823 7.11413C91.6433 6.67777 92.2667 6.61544 93.0147 6.92712C94.0744 7.36348 94.5108 8.61022 93.9498 9.98164C93.2641 11.6024 91.955 11.9764 90.9576 11.5401C90.3966 11.2907 89.9602 10.8544 89.8979 10.2933L88.9005 12.7245L88.0901 12.4128L90.0225 7.48815ZM90.3342 8.98424C90.2719 9.10892 90.2719 9.23359 90.2095 9.35826C90.1472 9.98164 90.4589 10.5427 91.0199 10.792C91.8926 11.166 92.6407 10.6673 93.077 9.60761C93.4511 8.73489 93.2641 7.7375 92.4537 7.42582C91.8926 7.17647 91.2069 7.36348 90.8329 7.92451C90.7706 7.98685 90.7082 8.11152 90.6459 8.2362L90.3342 8.98424Z" fill="#192632"/>
<path d="M95.3829 10.8546C94.8842 11.9143 95.3206 12.7247 96.0686 13.0987C96.6297 13.4104 97.0037 13.4727 97.3777 13.4727L97.253 14.0961C96.9414 14.0961 96.3803 13.9714 95.6946 13.5974C94.3855 12.9117 94.0115 11.665 94.6972 10.3559C95.3829 9.04681 96.6297 8.42344 97.8764 9.10915C99.2478 9.85719 98.9985 11.2286 98.6245 12.039C98.5621 12.226 98.4374 12.2883 98.4374 12.413L95.3829 10.8546ZM97.9388 11.478C98.1881 10.9793 98.3751 10.1065 97.5024 9.67018C96.692 9.23382 96.0063 9.79485 95.6323 10.2936L97.9388 11.478Z" fill="#192632"/>
<path d="M103.487 12.5374L103.113 13.1608L101.804 12.3504L99.6221 15.8413L98.874 15.4049L101.056 11.9141L99.7467 11.1037L100.121 10.4803L103.487 12.5374Z" fill="#192632"/>
<path d="M104.983 13.5351L104.048 14.8442C104.235 14.9065 104.484 15.0935 104.734 15.2806C105.606 15.9039 106.354 16.839 105.606 17.8987C105.295 18.3351 104.921 18.4597 104.547 18.5221C103.861 18.5844 103.113 18.1481 102.49 17.774C102.116 17.4624 101.742 17.213 101.492 16.9637L104.297 13.0364L104.983 13.5351ZM102.552 16.9637C102.677 17.0883 102.801 17.213 103.051 17.4C103.612 17.774 104.422 18.0857 104.858 17.4624C105.357 16.7766 104.734 16.1533 104.235 15.7169C104.048 15.5922 103.861 15.4676 103.674 15.4052L102.552 16.9637Z" fill="#192632"/>
<path d="M110.158 17.587C110.469 17.774 110.968 18.148 111.342 18.522C111.965 19.083 112.838 20.0804 112.152 20.8285C111.778 21.2648 111.155 21.2648 110.656 20.9532C111.093 21.5142 111.217 22.1376 110.781 22.6363C109.908 23.5713 108.661 22.6363 107.913 22.0129C107.539 21.6389 107.103 21.2648 106.916 21.0778L110.158 17.587ZM107.976 21.2648C108.163 21.4519 108.287 21.5765 108.474 21.7635C108.911 22.1376 109.659 22.6363 110.095 22.1376C110.594 21.6389 110.158 21.0155 109.534 20.4545L109.035 20.0181L107.976 21.2648ZM109.472 19.6441L109.971 20.0804C110.469 20.5168 111.093 20.8285 111.467 20.3921C111.778 20.0181 111.654 19.5817 110.968 19.0207C110.781 18.8337 110.594 18.709 110.407 18.5844L109.472 19.6441Z" fill="#192632"/>
<path d="M114.646 21.701L113.15 23.0724C112.589 23.5711 112.215 23.9452 111.716 24.3815C112.339 24.1945 112.713 24.0698 113.337 23.9452L116.204 23.3218L116.89 24.0698L113.399 27.3737L112.838 26.7503L114.334 25.3789C114.895 24.8179 115.207 24.5685 115.83 24.0698C115.145 24.2568 114.77 24.3815 114.209 24.5062C113.337 24.6932 112.339 24.9425 111.342 25.1296L110.656 24.3815L114.085 21.14L114.646 21.701Z" fill="#192632"/>
<path d="M120.318 28.371L117.077 30.9268L117.388 31.3008L115.643 32.6099L115.206 32.0489L116.391 31.0515L114.334 28.4333L113.087 29.3684L112.651 28.8074L114.334 27.4359L114.583 27.7476C114.957 27.7476 115.331 27.6229 115.643 27.4983C116.204 27.2489 116.765 26.9372 117.326 26.5009L118.323 25.7528L120.318 28.371ZM117.638 27.3113C117.139 27.6853 116.578 27.997 116.079 28.2463C115.767 28.371 115.456 28.4333 115.144 28.4957L116.516 30.2411L119.258 28.0593L118.261 26.8126L117.638 27.3113Z" fill="#192632"/>
<path d="M119.445 31.6127C118.448 32.2984 118.448 33.1711 118.946 33.9191C119.32 34.4178 119.57 34.6672 119.881 34.9165L119.445 35.4152C119.133 35.2282 118.759 34.8542 118.323 34.2308C117.513 32.9841 117.824 31.7373 119.009 30.927C120.193 30.1166 121.627 30.1789 122.437 31.3633C123.31 32.6724 122.375 33.7945 121.627 34.2932C121.502 34.4178 121.378 34.4802 121.253 34.4802L119.445 31.6127ZM121.44 33.4204C121.939 33.1088 122.5 32.423 121.939 31.6127C121.44 30.8646 120.567 30.9893 120.006 31.301L121.44 33.4204Z" fill="#192632"/>
<path d="M124.245 39.1555C122.687 40.0282 121.378 39.2802 120.817 38.2828C120.193 37.1607 120.567 35.7893 121.876 35.0413C123.31 34.2932 124.619 34.7296 125.305 35.914C125.928 37.1607 125.554 38.4698 124.245 39.1555ZM122.313 35.8517C121.378 36.3504 121.004 37.2854 121.378 38.0335C121.752 38.7815 122.749 38.9685 123.746 38.4075C124.432 38.0335 125.18 37.1607 124.681 36.2257C124.183 35.2906 123.123 35.4153 122.313 35.8517Z" fill="#192632"/>
<path d="M128.484 72.9421C128.36 72.6304 128.235 71.9447 128.235 71.1343C128.297 69.2642 129.607 67.8928 131.788 67.9551C133.908 68.0798 135.279 69.5135 135.155 71.633C135.092 72.4434 134.905 73.0044 134.78 73.1914L134.095 72.9421C134.282 72.6304 134.406 72.1317 134.406 71.5706C134.469 70.0122 133.534 68.8901 131.726 68.8278C130.105 68.7655 128.983 69.6382 128.921 71.259C128.921 71.7577 128.983 72.3187 129.108 72.6927L128.484 72.9421Z" fill="#192632"/>
<path d="M132.911 74.5626L132.786 75.6224L130.23 76.121C129.856 76.1834 129.233 76.3081 128.859 76.3704C129.171 76.5574 129.919 76.9314 130.417 77.1808L132.412 78.2405L132.287 79.3002L127.488 78.9262L127.612 78.1158L129.919 78.3652C130.417 78.4275 131.041 78.4275 131.664 78.5522C131.228 78.3652 130.854 78.1782 130.168 77.8042L127.862 76.5574L127.924 75.934L130.417 75.4353C130.916 75.373 131.602 75.2483 132.1 75.186V75.1237C131.539 74.999 130.916 74.8743 130.417 74.812L128.173 74.3756L128.298 73.5652L132.911 74.5626Z" fill="#192632"/>
<path d="M128.547 84.7862C126.801 84.3499 126.365 82.9785 126.614 81.8564C126.926 80.6097 128.111 79.8616 129.544 80.1733C131.103 80.5473 131.788 81.7941 131.477 83.1031C131.165 84.4745 129.981 85.0979 128.547 84.7862ZM129.42 81.046C128.422 80.7967 127.487 81.1707 127.3 82.0434C127.113 82.8538 127.737 83.6642 128.796 83.9135C129.607 84.1005 130.666 83.9759 130.916 82.9161C131.103 81.9187 130.292 81.233 129.42 81.046Z" fill="#192632"/>
<path d="M129.482 89.6484L128.796 89.4614L129.233 88.0276L125.305 86.7809L125.555 85.9705L129.482 87.2172L129.918 85.7835L130.604 85.9705L129.482 89.6484Z" fill="#192632"/>
<path d="M127.675 90.0222C128.236 90.2716 128.734 90.4586 129.171 90.5832L128.859 91.3313L128.049 91.0819C128.485 91.643 128.547 92.2664 128.236 93.0144C127.799 94.0741 126.552 94.5105 125.181 93.9495C123.56 93.2637 123.186 91.9547 123.623 90.9573C123.872 90.3962 124.308 89.9599 124.869 89.8975L122.438 88.9002L122.75 88.0898L127.675 90.0222ZM126.116 90.3339C125.991 90.2716 125.867 90.2716 125.742 90.2092C125.119 90.1469 124.558 90.4586 124.308 91.0196C123.934 91.8923 124.433 92.6404 125.493 93.0767C126.365 93.4508 127.363 93.2637 127.675 92.4534C127.924 91.8923 127.737 91.2066 127.176 90.8326C127.114 90.7703 126.989 90.7079 126.864 90.6456L126.116 90.3339Z" fill="#192632"/>
<path d="M124.246 95.3209C123.186 94.8222 122.376 95.2586 122.002 96.0066C121.69 96.5677 121.628 96.9417 121.628 97.3157L121.004 97.191C121.004 96.8794 121.129 96.3183 121.503 95.6326C122.189 94.3235 123.436 93.9495 124.745 94.6352C126.054 95.3209 126.677 96.5677 125.991 97.8144C125.243 99.1858 123.872 98.9365 123.062 98.5625C122.874 98.5001 122.812 98.3754 122.687 98.3754L124.246 95.3209ZM123.623 97.8768C124.121 98.1261 124.994 98.3131 125.43 97.4404C125.867 96.63 125.306 95.9443 124.807 95.5703L123.623 97.8768Z" fill="#192632"/>
<path d="M122.625 103.425L122.002 103.051L122.812 101.742L119.321 99.5598L119.757 98.8118L123.248 100.994L124.059 99.6845L124.682 100.058L122.625 103.425Z" fill="#192632"/>
<path d="M121.565 104.921L120.256 103.986C120.194 104.173 120.007 104.422 119.82 104.672C119.196 105.544 118.261 106.292 117.202 105.544C116.765 105.233 116.641 104.859 116.578 104.485C116.516 103.799 116.952 103.051 117.326 102.428C117.638 102.054 117.887 101.68 118.137 101.43L122.064 104.235L121.565 104.921ZM118.137 102.49C118.012 102.615 117.887 102.739 117.7 102.989C117.326 103.55 117.015 104.36 117.638 104.796C118.324 105.295 118.947 104.672 119.383 104.173C119.508 103.986 119.633 103.799 119.695 103.612L118.137 102.49Z" fill="#192632"/>
<path d="M117.513 110.157C117.326 110.469 116.952 110.968 116.578 111.342C116.017 111.965 115.02 112.838 114.272 112.152C113.836 111.778 113.836 111.155 114.147 110.656C113.586 111.092 112.963 111.217 112.464 110.781C111.529 109.908 112.464 108.661 113.088 107.913C113.462 107.539 113.836 107.103 114.023 106.916L117.513 110.157ZM113.836 107.913C113.649 108.1 113.524 108.225 113.337 108.412C112.963 108.848 112.464 109.596 112.963 110.032C113.462 110.531 114.085 110.095 114.646 109.471L115.082 108.973L113.836 107.913ZM115.519 109.409L115.082 109.908C114.646 110.406 114.334 111.03 114.771 111.404C115.145 111.716 115.581 111.591 116.142 110.905C116.329 110.718 116.454 110.531 116.578 110.344L115.519 109.409Z" fill="#192632"/>
<path d="M113.399 114.583L112.028 113.087C111.529 112.526 111.155 112.152 110.718 111.653C110.906 112.277 111.03 112.651 111.155 113.274L111.778 116.142L111.03 116.827L107.726 113.336L108.35 112.775L109.721 114.271C110.282 114.832 110.531 115.144 111.03 115.768C110.843 115.082 110.718 114.708 110.594 114.147C110.407 113.274 110.157 112.277 109.97 111.279L110.718 110.594L114.022 114.084L113.399 114.583Z" fill="#192632"/>
<path d="M106.791 120.256L104.236 117.014L103.862 117.326L102.552 115.58L103.114 115.144L104.111 116.329L106.729 114.271L105.794 113.025L106.355 112.588L107.726 114.271L107.415 114.521C107.415 114.895 107.539 115.269 107.664 115.58C107.913 116.142 108.225 116.703 108.662 117.264L109.41 118.261L106.791 120.256ZM107.789 117.638C107.415 117.139 107.103 116.578 106.854 116.079C106.729 115.767 106.667 115.456 106.604 115.144L104.859 116.516L107.041 119.258L108.287 118.261L107.789 117.638Z" fill="#192632"/>
<path d="M103.488 119.446C102.802 118.448 101.929 118.448 101.181 118.947C100.682 119.321 100.433 119.57 100.184 119.882L99.6851 119.446C99.8721 119.134 100.246 118.76 100.869 118.323C102.116 117.513 103.363 117.825 104.173 119.009C104.984 120.194 104.921 121.627 103.737 122.438C102.428 123.31 101.306 122.375 100.807 121.627C100.682 121.503 100.62 121.378 100.62 121.253L103.488 119.446ZM101.68 121.378C101.992 121.877 102.677 122.438 103.488 121.877C104.236 121.378 104.111 120.505 103.799 119.944L101.68 121.378Z" fill="#192632"/>
<path d="M95.9448 124.183C95.0721 122.625 95.8201 121.316 96.8175 120.755C97.9396 120.131 99.311 120.505 100.059 121.814C100.807 123.248 100.371 124.557 99.1863 125.243C97.9396 125.929 96.6305 125.492 95.9448 124.183ZM99.2487 122.313C98.75 121.378 97.8149 121.004 97.0669 121.378C96.3188 121.752 96.1318 122.749 96.6928 123.747C97.0669 124.433 97.9396 125.181 98.8746 124.682C99.7474 124.183 99.685 123.123 99.2487 122.313Z" fill="#192632"/>
<path d="M128.484 72.9421C128.36 72.6304 128.235 71.9447 128.235 71.1343C128.297 69.2642 129.607 67.8928 131.788 67.9551C133.908 68.0798 135.279 69.5135 135.155 71.633C135.092 72.4434 134.905 73.0044 134.78 73.1914L134.095 72.9421C134.282 72.6304 134.406 72.1317 134.406 71.5706C134.469 70.0122 133.534 68.8901 131.726 68.8278C130.105 68.7655 128.983 69.6382 128.921 71.259C128.921 71.7577 128.983 72.3187 129.108 72.6927L128.484 72.9421Z" fill="#192632"/>
<path d="M132.911 74.5626L132.786 75.6224L130.23 76.121C129.856 76.1834 129.233 76.3081 128.859 76.3704C129.171 76.5574 129.919 76.9314 130.417 77.1808L132.412 78.2405L132.287 79.3002L127.488 78.9262L127.612 78.1158L129.919 78.3652C130.417 78.4275 131.041 78.4275 131.664 78.5522C131.228 78.3652 130.854 78.1782 130.168 77.8042L127.862 76.5574L127.924 75.934L130.417 75.4353C130.916 75.373 131.602 75.2483 132.1 75.186V75.1237C131.539 74.999 130.916 74.8743 130.417 74.812L128.173 74.3756L128.298 73.5652L132.911 74.5626Z" fill="#192632"/>
<path d="M128.547 84.7862C126.801 84.3499 126.365 82.9785 126.614 81.8564C126.926 80.6097 128.111 79.8616 129.544 80.1733C131.103 80.5473 131.788 81.7941 131.477 83.1031C131.165 84.4745 129.981 85.0979 128.547 84.7862ZM129.42 81.046C128.422 80.7967 127.487 81.1707 127.3 82.0434C127.113 82.8538 127.737 83.6642 128.796 83.9135C129.607 84.1005 130.666 83.9759 130.916 82.9161C131.103 81.9187 130.292 81.233 129.42 81.046Z" fill="#192632"/>
<path d="M129.482 89.6484L128.796 89.4614L129.233 88.0276L125.305 86.7809L125.555 85.9705L129.482 87.2172L129.918 85.7835L130.604 85.9705L129.482 89.6484Z" fill="#192632"/>
<path d="M127.675 90.0222C128.236 90.2716 128.734 90.4586 129.171 90.5832L128.859 91.3313L128.049 91.0819C128.485 91.643 128.547 92.2664 128.236 93.0144C127.799 94.0741 126.552 94.5105 125.181 93.9495C123.56 93.2637 123.186 91.9547 123.623 90.9573C123.872 90.3962 124.308 89.9599 124.869 89.8975L122.438 88.9002L122.75 88.0898L127.675 90.0222ZM126.116 90.3339C125.991 90.2716 125.867 90.2716 125.742 90.2092C125.119 90.1469 124.558 90.4586 124.308 91.0196C123.934 91.8923 124.433 92.6404 125.493 93.0767C126.365 93.4508 127.363 93.2637 127.675 92.4534C127.924 91.8923 127.737 91.2066 127.176 90.8326C127.114 90.7703 126.989 90.7079 126.864 90.6456L126.116 90.3339Z" fill="#192632"/>
<path d="M124.246 95.3209C123.186 94.8222 122.376 95.2586 122.002 96.0066C121.69 96.5677 121.628 96.9417 121.628 97.3157L121.004 97.191C121.004 96.8794 121.129 96.3183 121.503 95.6326C122.189 94.3235 123.436 93.9495 124.745 94.6352C126.054 95.3209 126.677 96.5677 125.991 97.8144C125.243 99.1858 123.872 98.9365 123.062 98.5625C122.874 98.5001 122.812 98.3754 122.687 98.3754L124.246 95.3209ZM123.623 97.8768C124.121 98.1261 124.994 98.3131 125.43 97.4404C125.867 96.63 125.306 95.9443 124.807 95.5703L123.623 97.8768Z" fill="#192632"/>
<path d="M122.625 103.425L122.002 103.051L122.812 101.742L119.321 99.5598L119.757 98.8118L123.248 100.994L124.059 99.6845L124.682 100.058L122.625 103.425Z" fill="#192632"/>
<path d="M121.565 104.921L120.256 103.986C120.194 104.173 120.007 104.422 119.82 104.672C119.196 105.544 118.261 106.292 117.202 105.544C116.765 105.233 116.641 104.859 116.578 104.485C116.516 103.799 116.952 103.051 117.326 102.428C117.638 102.054 117.887 101.68 118.137 101.43L122.064 104.235L121.565 104.921ZM118.137 102.49C118.012 102.615 117.887 102.739 117.7 102.989C117.326 103.55 117.015 104.36 117.638 104.796C118.324 105.295 118.947 104.672 119.383 104.173C119.508 103.986 119.633 103.799 119.695 103.612L118.137 102.49Z" fill="#192632"/>
<path d="M117.513 110.157C117.326 110.469 116.952 110.968 116.578 111.342C116.017 111.965 115.02 112.838 114.272 112.152C113.836 111.778 113.836 111.155 114.147 110.656C113.586 111.092 112.963 111.217 112.464 110.781C111.529 109.908 112.464 108.661 113.088 107.913C113.462 107.539 113.836 107.103 114.023 106.916L117.513 110.157ZM113.836 107.913C113.649 108.1 113.524 108.225 113.337 108.412C112.963 108.848 112.464 109.596 112.963 110.032C113.462 110.531 114.085 110.095 114.646 109.471L115.082 108.973L113.836 107.913ZM115.519 109.409L115.082 109.908C114.646 110.406 114.334 111.03 114.771 111.404C115.145 111.716 115.581 111.591 116.142 110.905C116.329 110.718 116.454 110.531 116.578 110.344L115.519 109.409Z" fill="#192632"/>
<path d="M113.399 114.583L112.028 113.087C111.529 112.526 111.155 112.152 110.718 111.653C110.906 112.277 111.03 112.651 111.155 113.274L111.778 116.142L111.03 116.827L107.726 113.336L108.35 112.775L109.721 114.271C110.282 114.832 110.531 115.144 111.03 115.768C110.843 115.082 110.718 114.708 110.594 114.147C110.407 113.274 110.157 112.277 109.97 111.279L110.718 110.594L114.022 114.084L113.399 114.583Z" fill="#192632"/>
<path d="M106.791 120.256L104.236 117.014L103.862 117.326L102.552 115.58L103.114 115.144L104.111 116.329L106.729 114.271L105.794 113.025L106.355 112.588L107.726 114.271L107.415 114.521C107.415 114.895 107.539 115.269 107.664 115.58C107.913 116.142 108.225 116.703 108.662 117.264L109.41 118.261L106.791 120.256ZM107.789 117.638C107.415 117.139 107.103 116.578 106.854 116.079C106.729 115.767 106.667 115.456 106.604 115.144L104.859 116.516L107.041 119.258L108.287 118.261L107.789 117.638Z" fill="#192632"/>
<path d="M103.488 119.446C102.802 118.448 101.929 118.448 101.181 118.947C100.682 119.321 100.433 119.57 100.184 119.882L99.6851 119.446C99.8721 119.134 100.246 118.76 100.869 118.323C102.116 117.513 103.363 117.825 104.173 119.009C104.984 120.194 104.921 121.627 103.737 122.438C102.428 123.31 101.306 122.375 100.807 121.627C100.682 121.503 100.62 121.378 100.62 121.253L103.488 119.446ZM101.68 121.378C101.992 121.877 102.677 122.438 103.488 121.877C104.236 121.378 104.111 120.505 103.799 119.944L101.68 121.378Z" fill="#192632"/>
<path d="M95.9448 124.183C95.0721 122.625 95.8201 121.316 96.8175 120.755C97.9396 120.131 99.311 120.505 100.059 121.814C100.807 123.248 100.371 124.557 99.1863 125.243C97.9396 125.929 96.6305 125.492 95.9448 124.183ZM99.2487 122.313C98.75 121.378 97.8149 121.004 97.0669 121.378C96.3188 121.752 96.1318 122.749 96.6928 123.747C97.0669 124.433 97.9396 125.181 98.8746 124.682C99.7474 124.183 99.685 123.123 99.2487 122.313Z" fill="#192632"/>
<path d="M62.2201 128.422C62.5317 128.297 63.2174 128.173 64.0278 128.173C65.8979 128.235 67.2694 129.544 67.207 131.726C67.0823 133.845 65.6486 135.217 63.5291 135.092C62.7187 135.03 62.1577 134.843 61.9707 134.718L62.2201 134.032C62.5317 134.219 63.0304 134.344 63.5915 134.344C65.1499 134.406 66.272 133.471 66.3343 131.664C66.3966 130.043 65.5239 128.921 63.9031 128.859C63.4045 128.859 62.8434 128.921 62.4694 129.046L62.2201 128.422Z" fill="#192632"/>
<path d="M60.5992 132.91L59.5395 132.785L59.0408 130.23C58.9784 129.856 58.8538 129.232 58.7914 128.858C58.6044 129.17 58.2304 129.918 57.981 130.417L56.9213 132.411L55.8616 132.287L56.2356 127.487L57.046 127.611L56.7966 129.918C56.7343 130.417 56.7343 131.04 56.6096 131.663C56.7966 131.227 56.9836 130.853 57.3577 130.167L58.6044 127.861L59.2278 127.923L59.7265 130.417C59.7888 130.915 59.9135 131.601 59.9758 132.1H60.0382C60.1628 131.539 60.2875 130.915 60.3498 130.417L60.7862 128.173L61.5966 128.297L60.5992 132.91Z" fill="#192632"/>
<path d="M50.3761 128.484C50.8124 126.739 52.1838 126.302 53.3059 126.552C54.5526 126.864 55.3007 128.048 54.989 129.482C54.615 131.04 53.3682 131.726 52.0592 131.414C50.6877 131.165 50.002 129.918 50.3761 128.484ZM54.0539 129.357C54.3033 128.36 53.9293 127.425 53.0566 127.238C52.2462 127.051 51.4358 127.674 51.1864 128.734C50.9994 129.544 51.1241 130.604 52.1838 130.853C53.1812 131.102 53.8669 130.23 54.0539 129.357Z" fill="#192632"/>
<path d="M45.4514 129.419L45.6384 128.734L47.0722 129.17L48.3189 125.243L49.1293 125.492L47.8826 129.419L49.3163 129.856L49.1293 130.541L45.4514 129.419Z" fill="#192632"/>
<path d="M45.1395 127.612C44.8902 128.173 44.7032 128.671 44.5785 129.108L43.8305 128.796L44.0798 127.986C43.5188 128.422 42.8954 128.484 42.1474 128.173C41.0876 127.736 40.6513 126.489 41.2123 125.118C41.898 123.497 43.2071 123.123 44.2045 123.56C44.7655 123.809 45.2019 124.245 45.2642 124.806L46.2616 122.375L47.072 122.687L45.1395 127.612ZM44.8278 126.115C44.8902 125.991 44.8902 125.866 44.9525 125.741C45.0149 125.118 44.7032 124.557 44.1421 124.308C43.2694 123.934 42.5214 124.432 42.085 125.492C41.711 126.365 41.898 127.362 42.7084 127.674C43.2694 127.923 43.9551 127.736 44.3291 127.175C44.3915 127.113 44.4538 126.988 44.5162 126.863L44.8278 126.115Z" fill="#192632"/>
<path d="M39.7787 124.245C40.2774 123.186 39.841 122.375 39.093 122.001C38.5319 121.69 38.1579 121.627 37.7839 121.627L37.9086 121.004C38.2203 121.004 38.7813 121.129 39.467 121.503C40.7761 122.188 41.1501 123.435 40.4644 124.744C39.7787 126.053 38.5319 126.676 37.2852 125.991C35.9138 125.243 36.1631 123.871 36.5372 123.061C36.5995 122.874 36.7242 122.812 36.7242 122.687L39.7787 124.245ZM37.2229 123.622C36.9735 124.121 36.7865 124.993 37.6592 125.43C38.4696 125.866 39.1553 125.305 39.5293 124.806L37.2229 123.622Z" fill="#192632"/>
<path d="M31.6748 122.562L32.0488 121.939L33.3579 122.749L35.5397 119.258L36.2877 119.695L34.1059 123.186L35.415 123.996L35.041 124.619L31.6748 122.562Z" fill="#192632"/>
<path d="M30.1787 121.565L31.1138 120.256C30.9267 120.193 30.6774 120.006 30.428 119.819C29.5553 119.196 28.8073 118.261 29.5553 117.201C29.867 116.765 30.241 116.64 30.6151 116.578C31.3008 116.516 32.0488 116.952 32.6722 117.326C33.0462 117.638 33.4202 117.887 33.6696 118.136L30.8644 122.063L30.1787 121.565ZM32.6098 118.074C32.4852 117.949 32.3605 117.825 32.1111 117.638C31.5501 117.264 30.7397 116.952 30.3034 117.575C29.8047 118.261 30.428 118.884 30.9267 119.321C31.1138 119.445 31.3008 119.57 31.4878 119.632L32.6098 118.074Z" fill="#192632"/>
<path d="M25.0049 117.513C24.6932 117.326 24.1945 116.952 23.8205 116.578C23.1971 116.017 22.3244 115.02 23.0101 114.272C23.3841 113.835 24.0075 113.835 24.5062 114.147C24.0698 113.586 23.9452 112.962 24.3815 112.464C25.2542 111.529 26.501 112.464 27.249 113.087C27.623 113.461 28.0594 113.835 28.2464 114.022L25.0049 117.513ZM25.6906 115.456L25.1919 115.02C24.6932 114.583 24.0698 114.272 23.6958 114.708C23.3841 115.082 23.5088 115.518 24.1945 116.079C24.3815 116.266 24.5685 116.391 24.7555 116.516L25.6906 115.456ZM27.1867 113.835C26.9997 113.648 26.875 113.523 26.688 113.336C26.2516 112.962 25.5036 112.464 25.0672 112.962C24.5685 113.461 25.0049 114.085 25.6283 114.646L26.127 115.082L27.1867 113.835Z" fill="#192632"/>
<path d="M20.5164 113.399L22.0124 112.027C22.5735 111.529 22.9475 111.155 23.4462 110.718C22.8228 110.905 22.4488 111.03 21.8254 111.155L18.9579 111.778L18.2722 111.03L21.7631 107.726L22.3241 108.349L20.828 109.721C20.267 110.282 19.9553 110.531 19.3319 111.03C20.0177 110.843 20.3917 110.718 20.9527 110.594C21.8254 110.407 22.8228 110.157 23.8202 109.97L24.5059 110.718L21.015 114.022L20.5164 113.399Z" fill="#192632"/>
<path d="M14.844 106.729L18.0855 104.173L17.7738 103.799L19.5193 102.49L19.9556 103.051L18.7712 104.048L20.8283 106.666L22.0751 105.731L22.5114 106.292L20.8283 107.664L20.579 107.352C20.205 107.352 19.831 107.477 19.5193 107.601C18.9582 107.851 18.3972 108.162 17.8362 108.599L16.8388 109.347L14.844 106.729ZM17.5245 107.726C18.0232 107.352 18.5842 107.04 19.0829 106.791C19.3946 106.666 19.7063 106.604 20.018 106.542L18.6466 104.796L15.9037 106.978L16.9011 108.225L17.5245 107.726Z" fill="#192632"/>
<path d="M15.6541 103.487C16.6515 102.802 16.6515 101.929 16.1528 101.181C15.7788 100.682 15.5294 100.433 15.2177 100.183L15.6541 99.6848C15.9658 99.8718 16.3398 100.246 16.7762 100.869C17.5865 102.116 17.2749 103.363 16.0904 104.173C14.906 104.983 13.4723 104.921 12.6619 103.737C11.7892 102.428 12.7242 101.306 13.4723 100.807C13.597 100.682 13.7216 100.62 13.8463 100.62L15.6541 103.487ZM13.7216 101.68C13.2229 101.991 12.6619 102.677 13.2229 103.487C13.7216 104.235 14.5944 104.111 15.1554 103.799L13.7216 101.68Z" fill="#192632"/>
<path d="M10.9169 95.8822C12.4753 95.0095 13.7844 95.7575 14.3455 96.7549C14.9688 97.877 14.5948 99.2484 13.2857 99.9964C11.852 100.744 10.5429 100.308 9.85719 99.1237C9.17148 97.9393 9.60784 96.6302 10.9169 95.8822ZM12.787 99.2484C13.7221 98.7497 14.0961 97.8146 13.7221 97.0666C13.3481 96.3186 12.3507 96.1315 11.3533 96.6926C10.6676 97.0666 9.91952 97.9393 10.4182 98.8744C10.9793 99.7471 11.9766 99.6848 12.787 99.2484Z" fill="#192632"/>
<path d="M6.67791 62.1579C6.80258 62.4696 6.92726 63.1553 6.92726 63.9657C6.86492 65.8358 5.55584 67.2072 3.37405 67.1449C1.25459 67.0202 -0.116827 65.5865 0.0078471 63.467C0.0701841 62.6566 0.257195 62.0956 0.381869 61.9086L1.06758 62.1579C0.880565 62.4696 0.755891 62.9683 0.755891 63.5294C0.693554 65.0878 1.62861 66.2099 3.43638 66.2722C5.05715 66.3345 6.17921 65.4618 6.24155 63.841C6.24155 63.3424 6.17921 62.7813 6.05454 62.4073L6.67791 62.1579Z" fill="#192632"/>
<path d="M2.2522 60.5371L2.37687 59.4774L4.93269 58.9787C5.30671 58.9163 5.93008 58.7916 6.3041 58.7293C5.93008 58.5423 5.24437 58.1683 4.74568 57.9189L2.75089 56.8592L2.87557 55.7995L7.67552 56.1735L7.55084 56.9839L5.24437 56.7345C4.74568 56.6722 4.12231 56.6722 3.49894 56.5475C3.99763 56.7969 4.37166 56.9839 5.05736 57.2956L7.36383 58.5423L7.3015 59.1657L4.80802 59.6644C4.30932 59.789 3.56127 59.9137 3.12492 59.9761V60.0384C3.68595 60.1631 4.30932 60.2877 4.80802 60.3501L7.05215 60.7864L6.92747 61.5968L2.2522 60.5371Z" fill="#192632"/>
<path d="M6.61543 50.3138C8.36087 50.7502 8.79723 52.1216 8.54788 53.2437C8.2362 54.4904 7.05179 55.2385 5.61804 54.9268C4.05962 54.5528 3.37391 53.306 3.68559 51.9969C3.99728 50.6255 5.18168 49.9398 6.61543 50.3138ZM5.74272 54.0541C6.74011 54.3034 7.67516 53.9294 7.86217 53.0567C8.04919 52.2463 7.42582 51.4359 6.36609 51.1866C5.55571 50.9995 4.49598 51.1242 4.24663 52.184C4.05962 53.1813 4.87 53.8047 5.74272 54.0541Z" fill="#192632"/>
<path d="M5.68025 45.4516L6.36596 45.6386L5.9296 47.0724L9.85683 48.3191L9.54515 49.1919L5.61792 47.9451L5.18156 49.3789L4.49585 49.1919L5.68025 45.4516Z" fill="#192632"/>
<path d="M7.48852 45.0777C6.92749 44.8283 6.42879 44.6413 5.99243 44.5167L6.30412 43.7686L7.1145 44.018C6.67814 43.4569 6.6158 42.8336 6.92749 42.0855C7.36385 41.0258 8.61059 40.5894 9.982 41.1505C11.6028 41.8362 11.9768 43.1452 11.5404 44.1426C11.2911 44.7037 10.8547 45.14 10.2937 45.2024L12.7248 46.1998L12.4131 47.0101L7.48852 45.0777ZM8.98461 44.766C9.10928 44.8283 9.23396 44.8283 9.35863 44.8907C9.982 44.953 10.543 44.6413 10.7924 44.0803C11.1664 43.2076 10.6677 42.4595 9.60798 42.0232C8.73526 41.6492 7.73787 41.8362 7.42618 42.6465C7.17683 43.2076 7.36385 43.8933 7.92488 44.2673C7.98722 44.3296 8.11189 44.392 8.23656 44.4543L8.98461 44.766Z" fill="#192632"/>
<path d="M10.9171 39.7789C11.9768 40.2776 12.7872 39.8412 13.1612 39.0932C13.4729 38.5321 13.5353 38.1581 13.5353 37.7841L14.1586 37.9088C14.1586 38.2204 14.034 38.7815 13.6599 39.4672C12.9742 40.7763 11.7275 41.1503 10.4184 40.4646C9.10934 39.7789 8.48597 38.5321 9.17168 37.2854C9.91972 35.914 11.2911 36.1633 12.1015 36.5373C12.2885 36.5997 12.3509 36.7243 12.4755 36.7243L10.9171 39.7789ZM11.5405 37.1607C11.0418 36.9114 10.1691 36.7243 9.73271 37.5971C9.29635 38.4074 9.85738 39.0932 10.3561 39.4672L11.5405 37.1607Z" fill="#192632"/>
<path d="M12.5373 31.6751L13.1607 32.0491L12.3503 33.3582L15.8412 35.54L15.4049 36.288L11.914 34.1062L11.1036 35.4153L10.4802 35.0413L12.5373 31.6751Z" fill="#192632"/>
<path d="M13.5971 30.1166L14.9062 31.0516C14.9685 30.8646 15.1555 30.6153 15.3425 30.3659C15.9659 29.4932 16.9009 28.7452 17.9607 29.4932C18.397 29.8049 18.5217 30.1789 18.584 30.5529C18.6464 31.2386 18.21 31.9867 17.836 32.6101C17.5243 32.9841 17.275 33.3581 17.0256 33.6075L13.0984 30.8646L13.5971 30.1166ZM17.0256 32.6101C17.1503 32.4854 17.275 32.3607 17.462 32.1114C17.836 31.5503 18.1477 30.74 17.5243 30.3036C16.8386 29.8049 16.2152 30.4283 15.7789 30.927C15.6542 31.114 15.5295 31.301 15.4672 31.488L17.0256 32.6101Z" fill="#192632"/>
<path d="M17.6492 24.9428C17.8362 24.6311 18.2102 24.1324 18.5842 23.7584C19.1453 23.135 20.1427 22.2623 20.8907 22.948C21.3271 23.322 21.3271 23.9454 21.0154 24.4441C21.5764 24.0077 22.1998 23.883 22.6985 24.3194C23.6335 25.1921 22.6985 26.4389 22.0751 27.1869C21.7011 27.5609 21.3271 27.9973 21.14 28.1843L17.6492 24.9428ZM19.644 25.6285L20.0803 25.1298C20.5167 24.6311 20.8284 24.0077 20.392 23.6337C20.018 23.322 19.5816 23.4467 19.0206 24.1324C18.8336 24.3194 18.7089 24.5064 18.5842 24.6934L19.644 25.6285ZM21.3271 27.1246C21.5141 26.9376 21.6387 26.8129 21.8258 26.6259C22.1998 26.1895 22.6985 25.4415 22.1998 25.0051C21.7011 24.5064 21.0777 24.9428 20.5167 25.5661L20.0803 26.0648L21.3271 27.1246Z" fill="#192632"/>
<path d="M21.7638 20.5168L23.1352 22.0129C23.6339 22.5739 24.0079 22.948 24.4442 23.4466C24.2572 22.8233 24.1326 22.4493 24.0079 21.8259L23.3845 18.9584L24.1326 18.2727L27.4364 21.7635L26.813 22.3246L25.4416 20.8285C24.8806 20.2675 24.6313 19.9558 24.1326 19.3324C24.3196 20.0181 24.4442 20.3921 24.5689 20.9532C24.7559 21.8259 25.0053 22.8233 25.1923 23.8207L24.4442 24.5064L21.1404 21.0155L21.7638 20.5168Z" fill="#192632"/>
<path d="M28.3717 14.844L30.9275 18.0855L31.3015 17.7738L32.6106 19.5192L32.0495 19.9556L31.1768 18.7712L28.5587 20.8283L29.4937 22.0751L28.9327 22.5114L27.5613 20.8283L27.873 20.579C27.873 20.2049 27.7483 19.8309 27.6236 19.5192C27.3743 18.9582 27.0626 18.3972 26.6262 17.8361L25.8782 16.8387L28.3717 14.844ZM27.3743 17.4621C27.7483 17.9608 28.06 18.5218 28.3093 19.0205C28.434 19.3322 28.4963 19.6439 28.5587 19.9556L30.3041 18.5842L28.1223 15.8414L26.8756 16.8387L27.3743 17.4621Z" fill="#192632"/>
<path d="M31.6751 15.6543C32.3608 16.6517 33.2335 16.6517 33.9815 16.153C34.4802 15.7789 34.7296 15.5296 34.9789 15.2179L35.4776 15.6543C35.2906 15.966 34.9166 16.34 34.2932 16.7763C33.0465 17.5867 31.7997 17.275 30.9894 16.0906C30.179 14.9062 30.2413 13.4725 31.4257 12.6621C32.7348 11.7894 33.8569 12.7244 34.3556 13.4725C34.4802 13.5972 34.5426 13.7218 34.5426 13.8465L31.6751 15.6543ZM33.4828 13.7218C33.1712 13.2231 32.4855 12.6621 31.6751 13.2231C30.927 13.7218 31.0517 14.5945 31.3634 15.1556L33.4828 13.7218Z" fill="#192632"/>
<path d="M39.2178 10.917C40.0905 12.4754 39.3425 13.7845 38.3451 14.3455C37.223 14.9689 35.8516 14.5949 35.1036 13.2858C34.3555 11.852 34.7919 10.543 35.9763 9.85725C37.223 9.17154 38.5321 9.6079 39.2178 10.917ZM35.914 12.7871C36.4126 13.7221 37.3477 14.0962 38.0957 13.7221C38.8438 13.3481 39.0308 12.3507 38.4698 11.3533C38.0957 10.6676 37.223 9.91958 36.288 10.4183C35.3529 10.917 35.4153 11.9767 35.914 12.7871Z" fill="#192632"/>
<path d="M6.67791 62.1579C6.80258 62.4696 6.92726 63.1553 6.92726 63.9657C6.86492 65.8358 5.55584 67.2072 3.37405 67.1449C1.25459 67.0202 -0.116827 65.5865 0.0078471 63.467C0.0701841 62.6566 0.257195 62.0956 0.381869 61.9086L1.06758 62.1579C0.880565 62.4696 0.755891 62.9683 0.755891 63.5294C0.693554 65.0878 1.62861 66.2099 3.43638 66.2722C5.05715 66.3345 6.17921 65.4618 6.24155 63.841C6.24155 63.3424 6.17921 62.7813 6.05454 62.4073L6.67791 62.1579Z" fill="#192632"/>
<path d="M2.2522 60.5371L2.37687 59.4774L4.93269 58.9787C5.30671 58.9163 5.93008 58.7916 6.3041 58.7293C5.93008 58.5423 5.24437 58.1683 4.74568 57.9189L2.75089 56.8592L2.87557 55.7995L7.67552 56.1735L7.55084 56.9839L5.24437 56.7345C4.74568 56.6722 4.12231 56.6722 3.49894 56.5475C3.99763 56.7969 4.37166 56.9839 5.05736 57.2956L7.36383 58.5423L7.3015 59.1657L4.80802 59.6644C4.30932 59.789 3.56127 59.9137 3.12492 59.9761V60.0384C3.68595 60.1631 4.30932 60.2877 4.80802 60.3501L7.05215 60.7864L6.92747 61.5968L2.2522 60.5371Z" fill="#192632"/>
<path d="M6.61543 50.3138C8.36087 50.7502 8.79723 52.1216 8.54788 53.2437C8.2362 54.4904 7.05179 55.2385 5.61804 54.9268C4.05962 54.5528 3.37391 53.306 3.68559 51.9969C3.99728 50.6255 5.18168 49.9398 6.61543 50.3138ZM5.74272 54.0541C6.74011 54.3034 7.67516 53.9294 7.86217 53.0567C8.04919 52.2463 7.42582 51.4359 6.36609 51.1866C5.55571 50.9995 4.49598 51.1242 4.24663 52.184C4.05962 53.1813 4.87 53.8047 5.74272 54.0541Z" fill="#192632"/>
<path d="M5.68025 45.4516L6.36596 45.6386L5.9296 47.0724L9.85683 48.3191L9.54515 49.1919L5.61792 47.9451L5.18156 49.3789L4.49585 49.1919L5.68025 45.4516Z" fill="#192632"/>
<path d="M7.48852 45.0777C6.92749 44.8283 6.42879 44.6413 5.99243 44.5167L6.30412 43.7686L7.1145 44.018C6.67814 43.4569 6.6158 42.8336 6.92749 42.0855C7.36385 41.0258 8.61059 40.5894 9.982 41.1505C11.6028 41.8362 11.9768 43.1452 11.5404 44.1426C11.2911 44.7037 10.8547 45.14 10.2937 45.2024L12.7248 46.1998L12.4131 47.0101L7.48852 45.0777ZM8.98461 44.766C9.10928 44.8283 9.23396 44.8283 9.35863 44.8907C9.982 44.953 10.543 44.6413 10.7924 44.0803C11.1664 43.2076 10.6677 42.4595 9.60798 42.0232C8.73526 41.6492 7.73787 41.8362 7.42618 42.6465C7.17683 43.2076 7.36385 43.8933 7.92488 44.2673C7.98722 44.3296 8.11189 44.392 8.23656 44.4543L8.98461 44.766Z" fill="#192632"/>
<path d="M10.9171 39.7789C11.9768 40.2776 12.7872 39.8412 13.1612 39.0932C13.4729 38.5321 13.5353 38.1581 13.5353 37.7841L14.1586 37.9088C14.1586 38.2204 14.034 38.7815 13.6599 39.4672C12.9742 40.7763 11.7275 41.1503 10.4184 40.4646C9.10934 39.7789 8.48597 38.5321 9.17168 37.2854C9.91972 35.914 11.2911 36.1633 12.1015 36.5373C12.2885 36.5997 12.3509 36.7243 12.4755 36.7243L10.9171 39.7789ZM11.5405 37.1607C11.0418 36.9114 10.1691 36.7243 9.73271 37.5971C9.29635 38.4074 9.85738 39.0932 10.3561 39.4672L11.5405 37.1607Z" fill="#192632"/>
<path d="M12.5373 31.6751L13.1607 32.0491L12.3503 33.3582L15.8412 35.54L15.4049 36.288L11.914 34.1062L11.1036 35.4153L10.4802 35.0413L12.5373 31.6751Z" fill="#192632"/>
<path d="M13.5971 30.1166L14.9062 31.0516C14.9685 30.8646 15.1555 30.6153 15.3425 30.3659C15.9659 29.4932 16.9009 28.7452 17.9607 29.4932C18.397 29.8049 18.5217 30.1789 18.584 30.5529C18.6464 31.2386 18.21 31.9867 17.836 32.6101C17.5243 32.9841 17.275 33.3581 17.0256 33.6075L13.0984 30.8646L13.5971 30.1166ZM17.0256 32.6101C17.1503 32.4854 17.275 32.3607 17.462 32.1114C17.836 31.5503 18.1477 30.74 17.5243 30.3036C16.8386 29.8049 16.2152 30.4283 15.7789 30.927C15.6542 31.114 15.5295 31.301 15.4672 31.488L17.0256 32.6101Z" fill="#192632"/>
<path d="M17.6492 24.9428C17.8362 24.6311 18.2102 24.1324 18.5842 23.7584C19.1453 23.135 20.1427 22.2623 20.8907 22.948C21.3271 23.322 21.3271 23.9454 21.0154 24.4441C21.5764 24.0077 22.1998 23.883 22.6985 24.3194C23.6335 25.1921 22.6985 26.4389 22.0751 27.1869C21.7011 27.5609 21.3271 27.9973 21.14 28.1843L17.6492 24.9428ZM19.644 25.6285L20.0803 25.1298C20.5167 24.6311 20.8284 24.0077 20.392 23.6337C20.018 23.322 19.5816 23.4467 19.0206 24.1324C18.8336 24.3194 18.7089 24.5064 18.5842 24.6934L19.644 25.6285ZM21.3271 27.1246C21.5141 26.9376 21.6387 26.8129 21.8258 26.6259C22.1998 26.1895 22.6985 25.4415 22.1998 25.0051C21.7011 24.5064 21.0777 24.9428 20.5167 25.5661L20.0803 26.0648L21.3271 27.1246Z" fill="#192632"/>
<path d="M21.7638 20.5168L23.1352 22.0129C23.6339 22.5739 24.0079 22.948 24.4442 23.4466C24.2572 22.8233 24.1326 22.4493 24.0079 21.8259L23.3845 18.9584L24.1326 18.2727L27.4364 21.7635L26.813 22.3246L25.4416 20.8285C24.8806 20.2675 24.6313 19.9558 24.1326 19.3324C24.3196 20.0181 24.4442 20.3921 24.5689 20.9532C24.7559 21.8259 25.0053 22.8233 25.1923 23.8207L24.4442 24.5064L21.1404 21.0155L21.7638 20.5168Z" fill="#192632"/>
<path d="M28.3717 14.844L30.9275 18.0855L31.3015 17.7738L32.6106 19.5192L32.0495 19.9556L31.1768 18.7712L28.5587 20.8283L29.4937 22.0751L28.9327 22.5114L27.5613 20.8283L27.873 20.579C27.873 20.2049 27.7483 19.8309 27.6236 19.5192C27.3743 18.9582 27.0626 18.3972 26.6262 17.8361L25.8782 16.8387L28.3717 14.844ZM27.3743 17.4621C27.7483 17.9608 28.06 18.5218 28.3093 19.0205C28.434 19.3322 28.4963 19.6439 28.5587 19.9556L30.3041 18.5842L28.1223 15.8414L26.8756 16.8387L27.3743 17.4621Z" fill="#192632"/>
<path d="M31.6751 15.6543C32.3608 16.6517 33.2335 16.6517 33.9815 16.153C34.4802 15.7789 34.7296 15.5296 34.9789 15.2179L35.4776 15.6543C35.2906 15.966 34.9166 16.34 34.2932 16.7763C33.0465 17.5867 31.7997 17.275 30.9894 16.0906C30.179 14.9062 30.2413 13.4725 31.4257 12.6621C32.7348 11.7894 33.8569 12.7244 34.3556 13.4725C34.4802 13.5972 34.5426 13.7218 34.5426 13.8465L31.6751 15.6543ZM33.4828 13.7218C33.1712 13.2231 32.4855 12.6621 31.6751 13.2231C30.927 13.7218 31.0517 14.5945 31.3634 15.1556L33.4828 13.7218Z" fill="#192632"/>
<path d="M39.2178 10.917C40.0905 12.4754 39.3425 13.7845 38.3451 14.3455C37.223 14.9689 35.8516 14.5949 35.1036 13.2858C34.3555 11.852 34.7919 10.543 35.9763 9.85725C37.223 9.17154 38.5321 9.6079 39.2178 10.917ZM35.914 12.7871C36.4126 13.7221 37.3477 14.0962 38.0957 13.7221C38.8438 13.3481 39.0308 12.3507 38.4698 11.3533C38.0957 10.6676 37.223 9.91958 36.288 10.4183C35.3529 10.917 35.4153 11.9767 35.914 12.7871Z" fill="#192632"/>
</svg>
