<svg width="137" height="136" viewBox="0 0 137 136" fill="none" xmlns="http://www.w3.org/2000/svg">
<path d="M73.9131 6.67791C73.6014 6.80258 72.9157 6.92726 72.1053 6.92726C70.2352 6.86492 68.8638 5.55584 68.9261 3.37405C69.0508 1.25459 70.4845 -0.116827 72.604 0.0078471C73.4144 0.0701841 73.9754 0.257195 74.1624 0.381869L73.9131 1.06758C73.6014 0.880565 73.1027 0.755891 72.5417 0.755891C70.9832 0.693554 69.8612 1.62861 69.7988 3.43638C69.7365 5.05715 70.6092 6.17921 72.23 6.24155C72.7287 6.24155 73.2897 6.17921 73.6637 6.05454L73.9131 6.67791Z" fill="#B90303"/>
<path d="M75.5338 2.18982L76.5935 2.31449L77.0922 4.87031C77.1545 5.24433 77.2792 5.8677 77.3415 6.24173C77.5286 5.93004 77.9026 5.182 78.1519 4.6833L79.2117 2.68852L80.2714 2.81319L79.8974 7.61314L79.087 7.48847L79.3363 5.182C79.3987 4.6833 79.3987 4.05993 79.5233 3.43656C79.3363 3.87292 79.1493 4.24694 78.7753 4.93265L77.5286 7.23912L76.9052 7.17678L76.4065 4.6833C76.3442 4.1846 76.2195 3.4989 76.1571 3.0002H76.0948C75.9701 3.56123 75.8455 4.1846 75.7831 4.6833L75.3468 6.92743L74.5364 6.80276L75.5338 2.18982Z" fill="#B90303"/>
<path d="M85.7568 6.55306C85.3205 8.29849 83.9491 8.73485 82.827 8.4855C81.5803 8.17382 80.8322 6.98942 81.1439 5.55566C81.5179 3.99724 82.7647 3.31153 84.0737 3.62322C85.4451 3.9349 86.1309 5.11931 85.7568 6.55306ZM82.0166 5.74268C81.7673 6.74007 82.1413 7.67512 83.014 7.86213C83.8244 8.04915 84.6348 7.42578 84.8841 6.36605C85.0711 5.55566 84.9464 4.49593 83.8867 4.24659C82.9517 3.99724 82.266 4.80762 82.0166 5.74268Z" fill="#B90303"/>
<path d="M90.6818 5.68048L90.4948 6.36618L89.061 5.92983L87.8143 9.85706L87.0039 9.60771L88.2506 5.68048L86.8169 5.24412L87.0039 4.55841L90.6818 5.68048Z" fill="#B90303"/>
<path d="M90.9937 7.48815C91.2431 6.92712 91.4301 6.42842 91.5548 5.99207L92.3028 6.30375L92.0535 7.11413C92.6145 6.67777 93.2379 6.61544 93.9859 6.92712C95.0456 7.36348 95.482 8.61022 94.921 9.98164C94.2352 11.6024 92.9262 11.9764 91.9288 11.5401C91.3677 11.2907 90.9314 10.8544 90.869 10.2933L89.8717 12.7245L89.0613 12.4128L90.9937 7.48815ZM91.3054 8.98424C91.2431 9.10892 91.2431 9.23359 91.1807 9.35826C91.1184 9.98164 91.4301 10.5427 91.9911 10.792C92.8638 11.166 93.6119 10.6673 94.0482 9.60761C94.4223 8.73489 94.2353 7.7375 93.4249 7.42582C92.8638 7.17647 92.1781 7.36348 91.8041 7.92451C91.7418 7.98685 91.6794 8.11152 91.6171 8.2362L91.3054 8.98424Z" fill="#B90303"/>
<path d="M96.3541 10.8546C95.8554 11.9143 96.2918 12.7247 97.0398 13.0987C97.6009 13.4104 97.9749 13.4727 98.3489 13.4727L98.2242 14.0961C97.9126 14.0961 97.3515 13.9714 96.6658 13.5974C95.3567 12.9117 94.9827 11.665 95.6684 10.3559C96.3541 9.04681 97.6009 8.42344 98.8476 9.10915C100.219 9.85719 99.9697 11.2286 99.5956 12.039C99.5333 12.226 99.4086 12.2883 99.4086 12.413L96.3541 10.8546ZM98.9099 11.478C99.1593 10.9793 99.3463 10.1065 98.4736 9.67018C97.6632 9.23382 96.9775 9.79485 96.6035 10.2936L98.9099 11.478Z" fill="#B90303"/>
<path d="M104.458 12.5374L104.084 13.1608L102.775 12.3504L100.593 15.8413L99.8452 15.4049L102.027 11.9141L100.718 11.1037L101.092 10.4803L104.458 12.5374Z" fill="#B90303"/>
<path d="M105.954 13.5351L105.019 14.8442C105.206 14.9065 105.456 15.0935 105.705 15.2806C106.578 15.9039 107.326 16.839 106.578 17.8987C106.266 18.3351 105.892 18.4597 105.518 18.5221C104.832 18.5844 104.084 18.1481 103.461 17.774C103.087 17.4624 102.713 17.213 102.463 16.9637L105.269 13.0364L105.954 13.5351ZM103.523 16.9637C103.648 17.0883 103.772 17.213 104.022 17.4C104.583 17.774 105.393 18.0857 105.83 17.4624C106.328 16.7766 105.705 16.1533 105.206 15.7169C105.019 15.5922 104.832 15.4676 104.645 15.4052L103.523 16.9637Z" fill="#B90303"/>
<path d="M111.129 17.587C111.44 17.774 111.939 18.148 112.313 18.522C112.937 19.083 113.809 20.0804 113.124 20.8285C112.749 21.2648 112.126 21.2648 111.627 20.9532C112.064 21.5142 112.188 22.1376 111.752 22.6363C110.879 23.5713 109.633 22.6363 108.885 22.0129C108.511 21.6389 108.074 21.2648 107.887 21.0778L111.129 17.587ZM108.947 21.2648C109.134 21.4519 109.259 21.5765 109.446 21.7635C109.882 22.1376 110.63 22.6363 111.066 22.1376C111.565 21.6389 111.129 21.0155 110.505 20.4545L110.007 20.0181L108.947 21.2648ZM110.443 19.6441L110.942 20.0804C111.44 20.5168 112.064 20.8285 112.438 20.3921C112.749 20.0181 112.625 19.5817 111.939 19.0207C111.752 18.8337 111.565 18.709 111.378 18.5844L110.443 19.6441Z" fill="#B90303"/>
<path d="M115.617 21.701L114.121 23.0724C113.56 23.5711 113.186 23.9452 112.687 24.3815C113.311 24.1945 113.685 24.0698 114.308 23.9452L117.175 23.3218L117.861 24.0698L114.37 27.3737L113.809 26.7503L115.305 25.3789C115.866 24.8179 116.178 24.5685 116.801 24.0698C116.116 24.2568 115.742 24.3815 115.181 24.5062C114.308 24.6932 113.311 24.9425 112.313 25.1296L111.627 24.3815L115.056 21.14L115.617 21.701Z" fill="#B90303"/>
<path d="M121.289 28.371L118.048 30.9268L118.359 31.3008L116.614 32.6099L116.178 32.0489L117.362 31.0515L115.305 28.4333L114.058 29.3684L113.622 28.8074L115.305 27.4359L115.554 27.7476C115.928 27.7476 116.302 27.6229 116.614 27.4983C117.175 27.2489 117.736 26.9372 118.297 26.5009L119.294 25.7528L121.289 28.371ZM118.609 27.3113C118.11 27.6853 117.549 27.997 117.05 28.2463C116.739 28.371 116.427 28.4333 116.115 28.4957L117.487 30.2411L120.23 28.0593L119.232 26.8126L118.609 27.3113Z" fill="#B90303"/>
<path d="M120.416 31.6127C119.419 32.2984 119.419 33.1711 119.918 33.9191C120.292 34.4178 120.541 34.6672 120.853 34.9165L120.416 35.4152C120.105 35.2282 119.731 34.8542 119.294 34.2308C118.484 32.9841 118.796 31.7373 119.98 30.927C121.164 30.1166 122.598 30.1789 123.408 31.3633C124.281 32.6724 123.346 33.7945 122.598 34.2932C122.473 34.4178 122.349 34.4802 122.224 34.4802L120.416 31.6127ZM122.411 33.4204C122.91 33.1088 123.471 32.423 122.91 31.6127C122.411 30.8646 121.538 30.9893 120.977 31.301L122.411 33.4204Z" fill="#B90303"/>
<path d="M125.216 39.1555C123.658 40.0282 122.349 39.2802 121.788 38.2828C121.164 37.1607 121.538 35.7893 122.848 35.0413C124.281 34.2932 125.59 34.7296 126.276 35.914C126.899 37.1607 126.525 38.4698 125.216 39.1555ZM123.284 35.8517C122.349 36.3504 121.975 37.2854 122.349 38.0335C122.723 38.7815 123.72 38.9685 124.718 38.4075C125.403 38.0335 126.151 37.1607 125.653 36.2257C125.154 35.2906 124.094 35.4153 123.284 35.8517Z" fill="#B90303"/>
<path d="M129.456 72.9421C129.331 72.6304 129.206 71.9447 129.206 71.1343C129.269 69.2642 130.578 67.8928 132.76 67.9551C134.879 68.0798 136.25 69.5135 136.126 71.633C136.063 72.4434 135.876 73.0044 135.752 73.1914L135.066 72.9421C135.253 72.6304 135.378 72.1317 135.378 71.5706C135.44 70.0122 134.505 68.8901 132.697 68.8278C131.076 68.7655 129.954 69.6382 129.892 71.259C129.892 71.7577 129.954 72.3187 130.079 72.6927L129.456 72.9421Z" fill="#B90303"/>
<path d="M133.882 74.5626L133.757 75.6224L131.202 76.121C130.828 76.1834 130.204 76.3081 129.83 76.3704C130.142 76.5574 130.89 76.9314 131.389 77.1808L133.383 78.2405L133.259 79.3002L128.459 78.9262L128.583 78.1158L130.89 78.3652C131.389 78.4275 132.012 78.4275 132.635 78.5522C132.199 78.3652 131.825 78.1782 131.139 77.8042L128.833 76.5574L128.895 75.934L131.389 75.4353C131.887 75.373 132.573 75.2483 133.072 75.186V75.1237C132.511 74.999 131.887 74.8743 131.389 74.812L129.144 74.3756L129.269 73.5652L133.882 74.5626Z" fill="#B90303"/>
<path d="M129.518 84.7862C127.773 84.3499 127.336 82.9785 127.586 81.8564C127.897 80.6097 129.082 79.8616 130.515 80.1733C132.074 80.5473 132.76 81.7941 132.448 83.1031C132.136 84.4745 130.952 85.0979 129.518 84.7862ZM130.391 81.046C129.393 80.7967 128.458 81.1707 128.271 82.0434C128.084 82.8538 128.708 83.6642 129.767 83.9135C130.578 84.1005 131.638 83.9759 131.887 82.9161C132.074 81.9187 131.264 81.233 130.391 81.046Z" fill="#B90303"/>
<path d="M130.453 89.6484L129.767 89.4614L130.204 88.0276L126.277 86.7809L126.526 85.9705L130.453 87.2172L130.89 85.7835L131.575 85.9705L130.453 89.6484Z" fill="#B90303"/>
<path d="M128.646 90.0222C129.207 90.2716 129.705 90.4586 130.142 90.5832L129.83 91.3313L129.02 91.0819C129.456 91.643 129.518 92.2664 129.207 93.0144C128.77 94.0741 127.524 94.5105 126.152 93.9495C124.531 93.2637 124.157 91.9547 124.594 90.9573C124.843 90.3962 125.28 89.9599 125.841 89.8975L123.409 88.9002L123.721 88.0898L128.646 90.0222ZM127.087 90.3339C126.963 90.2716 126.838 90.2716 126.713 90.2092C126.09 90.1469 125.529 90.4586 125.28 91.0196C124.906 91.8923 125.404 92.6404 126.464 93.0767C127.337 93.4508 128.334 93.2637 128.646 92.4534C128.895 91.8923 128.708 91.2066 128.147 90.8326C128.085 90.7703 127.96 90.7079 127.835 90.6456L127.087 90.3339Z" fill="#B90303"/>
<path d="M125.217 95.3209C124.157 94.8222 123.347 95.2586 122.973 96.0066C122.661 96.5677 122.599 96.9417 122.599 97.3157L121.976 97.191C121.976 96.8794 122.1 96.3183 122.474 95.6326C123.16 94.3235 124.407 93.9495 125.716 94.6352C127.025 95.3209 127.648 96.5677 126.963 97.8144C126.215 99.1858 124.843 98.9365 124.033 98.5625C123.846 98.5001 123.783 98.3754 123.659 98.3754L125.217 95.3209ZM124.594 97.8768C125.092 98.1261 125.965 98.3131 126.402 97.4404C126.838 96.63 126.277 95.9443 125.778 95.5703L124.594 97.8768Z" fill="#B90303"/>
<path d="M123.596 103.425L122.973 103.051L123.783 101.742L120.292 99.5598L120.729 98.8118L124.219 100.994L125.03 99.6845L125.653 100.058L123.596 103.425Z" fill="#B90303"/>
<path d="M122.536 104.921L121.227 103.986C121.165 104.173 120.978 104.422 120.791 104.672C120.168 105.544 119.233 106.292 118.173 105.544C117.736 105.233 117.612 104.859 117.549 104.485C117.487 103.799 117.923 103.051 118.297 102.428C118.609 102.054 118.859 101.68 119.108 101.43L123.035 104.235L122.536 104.921ZM119.108 102.49C118.983 102.615 118.859 102.739 118.672 102.989C118.297 103.55 117.986 104.36 118.609 104.796C119.295 105.295 119.918 104.672 120.355 104.173C120.479 103.986 120.604 103.799 120.666 103.612L119.108 102.49Z" fill="#B90303"/>
<path d="M118.485 110.157C118.298 110.469 117.924 110.968 117.55 111.342C116.989 111.965 115.991 112.838 115.243 112.152C114.807 111.778 114.807 111.155 115.118 110.656C114.557 111.092 113.934 111.217 113.435 110.781C112.5 109.908 113.435 108.661 114.059 107.913C114.433 107.539 114.807 107.103 114.994 106.916L118.485 110.157ZM114.807 107.913C114.62 108.1 114.495 108.225 114.308 108.412C113.934 108.848 113.435 109.596 113.934 110.032C114.433 110.531 115.056 110.095 115.617 109.471L116.054 108.973L114.807 107.913ZM116.49 109.409L116.054 109.908C115.617 110.406 115.305 111.03 115.742 111.404C116.116 111.716 116.552 111.591 117.113 110.905C117.3 110.718 117.425 110.531 117.55 110.344L116.49 109.409Z" fill="#B90303"/>
<path d="M114.37 114.583L112.999 113.087C112.5 112.526 112.126 112.152 111.69 111.653C111.877 112.277 112.001 112.651 112.126 113.274L112.749 116.142L112.001 116.827L108.698 113.336L109.321 112.775L110.692 114.271C111.253 114.832 111.503 115.144 112.001 115.768C111.814 115.082 111.69 114.708 111.565 114.147C111.378 113.274 111.129 112.277 110.942 111.279L111.69 110.594L114.994 114.084L114.37 114.583Z" fill="#B90303"/>
<path d="M107.763 120.256L105.207 117.014L104.833 117.326L103.524 115.58L104.085 115.144L105.082 116.329L107.7 114.271L106.765 113.025L107.326 112.588L108.698 114.271L108.386 114.521C108.386 114.895 108.511 115.269 108.635 115.58C108.885 116.142 109.196 116.703 109.633 117.264L110.381 118.261L107.763 120.256ZM108.76 117.638C108.386 117.139 108.074 116.578 107.825 116.079C107.7 115.767 107.638 115.456 107.576 115.144L105.83 116.516L108.012 119.258L109.259 118.261L108.76 117.638Z" fill="#B90303"/>
<path d="M104.459 119.446C103.773 118.448 102.9 118.448 102.152 118.947C101.654 119.321 101.404 119.57 101.155 119.882L100.656 119.446C100.843 119.134 101.217 118.76 101.841 118.323C103.087 117.513 104.334 117.825 105.145 119.009C105.955 120.194 105.893 121.627 104.708 122.438C103.399 123.31 102.277 122.375 101.778 121.627C101.654 121.503 101.591 121.378 101.591 121.253L104.459 119.446ZM102.651 121.378C102.963 121.877 103.648 122.438 104.459 121.877C105.207 121.378 105.082 120.505 104.77 119.944L102.651 121.378Z" fill="#B90303"/>
<path d="M96.916 124.183C96.0433 122.625 96.7913 121.316 97.7887 120.755C98.9108 120.131 100.282 120.505 101.03 121.814C101.778 123.248 101.342 124.557 100.158 125.243C98.9108 125.929 97.6017 125.492 96.916 124.183ZM100.22 122.313C99.7211 121.378 98.7861 121.004 98.038 121.378C97.29 121.752 97.103 122.749 97.664 123.747C98.0381 124.433 98.9108 125.181 99.8458 124.682C100.719 124.183 100.656 123.123 100.22 122.313Z" fill="#B90303"/>
<path d="M129.456 72.9421C129.331 72.6304 129.206 71.9447 129.206 71.1343C129.269 69.2642 130.578 67.8928 132.76 67.9551C134.879 68.0798 136.25 69.5135 136.126 71.633C136.063 72.4434 135.876 73.0044 135.752 73.1914L135.066 72.9421C135.253 72.6304 135.378 72.1317 135.378 71.5706C135.44 70.0122 134.505 68.8901 132.697 68.8278C131.076 68.7655 129.954 69.6382 129.892 71.259C129.892 71.7577 129.954 72.3187 130.079 72.6927L129.456 72.9421Z" fill="#B90303"/>
<path d="M133.882 74.5626L133.757 75.6224L131.202 76.121C130.828 76.1834 130.204 76.3081 129.83 76.3704C130.142 76.5574 130.89 76.9314 131.389 77.1808L133.383 78.2405L133.259 79.3002L128.459 78.9262L128.583 78.1158L130.89 78.3652C131.389 78.4275 132.012 78.4275 132.635 78.5522C132.199 78.3652 131.825 78.1782 131.139 77.8042L128.833 76.5574L128.895 75.934L131.389 75.4353C131.887 75.373 132.573 75.2483 133.072 75.186V75.1237C132.511 74.999 131.887 74.8743 131.389 74.812L129.144 74.3756L129.269 73.5652L133.882 74.5626Z" fill="#B90303"/>
<path d="M129.518 84.7862C127.773 84.3499 127.336 82.9785 127.586 81.8564C127.897 80.6097 129.082 79.8616 130.515 80.1733C132.074 80.5473 132.76 81.7941 132.448 83.1031C132.136 84.4745 130.952 85.0979 129.518 84.7862ZM130.391 81.046C129.393 80.7967 128.458 81.1707 128.271 82.0434C128.084 82.8538 128.708 83.6642 129.767 83.9135C130.578 84.1005 131.638 83.9759 131.887 82.9161C132.074 81.9187 131.264 81.233 130.391 81.046Z" fill="#B90303"/>
<path d="M130.453 89.6484L129.767 89.4614L130.204 88.0276L126.277 86.7809L126.526 85.9705L130.453 87.2172L130.89 85.7835L131.575 85.9705L130.453 89.6484Z" fill="#B90303"/>
<path d="M128.646 90.0222C129.207 90.2716 129.705 90.4586 130.142 90.5832L129.83 91.3313L129.02 91.0819C129.456 91.643 129.518 92.2664 129.207 93.0144C128.77 94.0741 127.524 94.5105 126.152 93.9495C124.531 93.2637 124.157 91.9547 124.594 90.9573C124.843 90.3962 125.28 89.9599 125.841 89.8975L123.409 88.9002L123.721 88.0898L128.646 90.0222ZM127.087 90.3339C126.963 90.2716 126.838 90.2716 126.713 90.2092C126.09 90.1469 125.529 90.4586 125.28 91.0196C124.906 91.8923 125.404 92.6404 126.464 93.0767C127.337 93.4508 128.334 93.2637 128.646 92.4534C128.895 91.8923 128.708 91.2066 128.147 90.8326C128.085 90.7703 127.96 90.7079 127.835 90.6456L127.087 90.3339Z" fill="#B90303"/>
<path d="M125.217 95.3209C124.157 94.8222 123.347 95.2586 122.973 96.0066C122.661 96.5677 122.599 96.9417 122.599 97.3157L121.976 97.191C121.976 96.8794 122.1 96.3183 122.474 95.6326C123.16 94.3235 124.407 93.9495 125.716 94.6352C127.025 95.3209 127.648 96.5677 126.963 97.8144C126.215 99.1858 124.843 98.9365 124.033 98.5625C123.846 98.5001 123.783 98.3754 123.659 98.3754L125.217 95.3209ZM124.594 97.8768C125.092 98.1261 125.965 98.3131 126.402 97.4404C126.838 96.63 126.277 95.9443 125.778 95.5703L124.594 97.8768Z" fill="#B90303"/>
<path d="M123.596 103.425L122.973 103.051L123.783 101.742L120.292 99.5598L120.729 98.8118L124.219 100.994L125.03 99.6845L125.653 100.058L123.596 103.425Z" fill="#B90303"/>
<path d="M122.536 104.921L121.227 103.986C121.165 104.173 120.978 104.422 120.791 104.672C120.168 105.544 119.233 106.292 118.173 105.544C117.736 105.233 117.612 104.859 117.549 104.485C117.487 103.799 117.923 103.051 118.297 102.428C118.609 102.054 118.859 101.68 119.108 101.43L123.035 104.235L122.536 104.921ZM119.108 102.49C118.983 102.615 118.859 102.739 118.672 102.989C118.297 103.55 117.986 104.36 118.609 104.796C119.295 105.295 119.918 104.672 120.355 104.173C120.479 103.986 120.604 103.799 120.666 103.612L119.108 102.49Z" fill="#B90303"/>
<path d="M118.485 110.157C118.298 110.469 117.924 110.968 117.55 111.342C116.989 111.965 115.991 112.838 115.243 112.152C114.807 111.778 114.807 111.155 115.118 110.656C114.557 111.092 113.934 111.217 113.435 110.781C112.5 109.908 113.435 108.661 114.059 107.913C114.433 107.539 114.807 107.103 114.994 106.916L118.485 110.157ZM114.807 107.913C114.62 108.1 114.495 108.225 114.308 108.412C113.934 108.848 113.435 109.596 113.934 110.032C114.433 110.531 115.056 110.095 115.617 109.471L116.054 108.973L114.807 107.913ZM116.49 109.409L116.054 109.908C115.617 110.406 115.305 111.03 115.742 111.404C116.116 111.716 116.552 111.591 117.113 110.905C117.3 110.718 117.425 110.531 117.55 110.344L116.49 109.409Z" fill="#B90303"/>
<path d="M114.37 114.583L112.999 113.087C112.5 112.526 112.126 112.152 111.69 111.653C111.877 112.277 112.001 112.651 112.126 113.274L112.749 116.142L112.001 116.827L108.698 113.336L109.321 112.775L110.692 114.271C111.253 114.832 111.503 115.144 112.001 115.768C111.814 115.082 111.69 114.708 111.565 114.147C111.378 113.274 111.129 112.277 110.942 111.279L111.69 110.594L114.994 114.084L114.37 114.583Z" fill="#B90303"/>
<path d="M107.763 120.256L105.207 117.014L104.833 117.326L103.524 115.58L104.085 115.144L105.082 116.329L107.7 114.271L106.765 113.025L107.326 112.588L108.698 114.271L108.386 114.521C108.386 114.895 108.511 115.269 108.635 115.58C108.885 116.142 109.196 116.703 109.633 117.264L110.381 118.261L107.763 120.256ZM108.76 117.638C108.386 117.139 108.074 116.578 107.825 116.079C107.7 115.767 107.638 115.456 107.576 115.144L105.83 116.516L108.012 119.258L109.259 118.261L108.76 117.638Z" fill="#B90303"/>
<path d="M104.459 119.446C103.773 118.448 102.9 118.448 102.152 118.947C101.654 119.321 101.404 119.57 101.155 119.882L100.656 119.446C100.843 119.134 101.217 118.76 101.841 118.323C103.087 117.513 104.334 117.825 105.145 119.009C105.955 120.194 105.893 121.627 104.708 122.438C103.399 123.31 102.277 122.375 101.778 121.627C101.654 121.503 101.591 121.378 101.591 121.253L104.459 119.446ZM102.651 121.378C102.963 121.877 103.648 122.438 104.459 121.877C105.207 121.378 105.082 120.505 104.77 119.944L102.651 121.378Z" fill="#B90303"/>
<path d="M96.916 124.183C96.0433 122.625 96.7913 121.316 97.7887 120.755C98.9108 120.131 100.282 120.505 101.03 121.814C101.778 123.248 101.342 124.557 100.158 125.243C98.9108 125.929 97.6017 125.492 96.916 124.183ZM100.22 122.313C99.7211 121.378 98.7861 121.004 98.038 121.378C97.29 121.752 97.103 122.749 97.664 123.747C98.0381 124.433 98.9108 125.181 99.8458 124.682C100.719 124.183 100.656 123.123 100.22 122.313Z" fill="#B90303"/>
<path d="M63.1912 128.422C63.5029 128.297 64.1886 128.173 64.999 128.173C66.8691 128.235 68.2405 129.544 68.1782 131.726C68.0535 133.845 66.6198 135.217 64.5003 135.092C63.6899 135.03 63.1289 134.843 62.9419 134.718L63.1912 134.032C63.5029 134.219 64.0016 134.344 64.5627 134.344C66.1211 134.406 67.2431 133.471 67.3055 131.664C67.3678 130.043 66.4951 128.921 64.8743 128.859C64.3756 128.859 63.8146 128.921 63.4406 129.046L63.1912 128.422Z" fill="#B90303"/>
<path d="M61.5704 132.91L60.5106 132.785L60.012 130.23C59.9496 129.856 59.8249 129.232 59.7626 128.858C59.5756 129.17 59.2016 129.918 58.9522 130.417L57.8925 132.411L56.8328 132.287L57.2068 127.487L58.0172 127.611L57.7678 129.918C57.7055 130.417 57.7055 131.04 57.5808 131.663C57.7678 131.227 57.9548 130.853 58.3289 130.167L59.5756 127.861L60.199 127.923L60.6977 130.417C60.76 130.915 60.8847 131.601 60.947 132.1H61.0093C61.134 131.539 61.2587 130.915 61.321 130.417L61.7574 128.173L62.5678 128.297L61.5704 132.91Z" fill="#B90303"/>
<path d="M51.3473 128.484C51.7836 126.739 53.155 126.302 54.2771 126.552C55.5238 126.864 56.2719 128.048 55.9602 129.482C55.5862 131.04 54.3394 131.726 53.0304 131.414C51.6589 131.165 50.9732 129.918 51.3473 128.484ZM55.0251 129.357C55.2745 128.36 54.9005 127.425 54.0277 127.238C53.2174 127.051 52.407 127.674 52.1576 128.734C51.9706 129.544 52.0953 130.604 53.155 130.853C54.1524 131.102 54.8381 130.23 55.0251 129.357Z" fill="#B90303"/>
<path d="M46.4226 129.419L46.6096 128.734L48.0434 129.17L49.2901 125.243L50.1005 125.492L48.8538 129.419L50.2875 129.856L50.1005 130.541L46.4226 129.419Z" fill="#B90303"/>
<path d="M46.1107 127.612C45.8614 128.173 45.6744 128.671 45.5497 129.108L44.8016 128.796L45.051 127.986C44.49 128.422 43.8666 128.484 43.1185 128.173C42.0588 127.736 41.6225 126.489 42.1835 125.118C42.8692 123.497 44.1783 123.123 45.1757 123.56C45.7367 123.809 46.1731 124.245 46.2354 124.806L47.2328 122.375L48.0432 122.687L46.1107 127.612ZM45.799 126.115C45.8614 125.991 45.8614 125.866 45.9237 125.741C45.986 125.118 45.6744 124.557 45.1133 124.308C44.2406 123.934 43.4926 124.432 43.0562 125.492C42.6822 126.365 42.8692 127.362 43.6796 127.674C44.2406 127.923 44.9263 127.736 45.3003 127.175C45.3627 127.113 45.425 126.988 45.4874 126.863L45.799 126.115Z" fill="#B90303"/>
<path d="M40.7499 124.245C41.2486 123.186 40.8122 122.375 40.0642 122.001C39.5031 121.69 39.1291 121.627 38.7551 121.627L38.8798 121.004C39.1914 121.004 39.7525 121.129 40.4382 121.503C41.7473 122.188 42.1213 123.435 41.4356 124.744C40.7499 126.053 39.5031 126.676 38.2564 125.991C36.885 125.243 37.1343 123.871 37.5083 123.061C37.5707 122.874 37.6954 122.812 37.6954 122.687L40.7499 124.245ZM38.1941 123.622C37.9447 124.121 37.7577 124.993 38.6304 125.43C39.4408 125.866 40.1265 125.305 40.5005 124.806L38.1941 123.622Z" fill="#B90303"/>
<path d="M32.646 122.562L33.02 121.939L34.3291 122.749L36.5109 119.258L37.2589 119.695L35.0771 123.186L36.3862 123.996L36.0122 124.619L32.646 122.562Z" fill="#B90303"/>
<path d="M31.1499 121.565L32.0849 120.256C31.8979 120.193 31.6486 120.006 31.3992 119.819C30.5265 119.196 29.7785 118.261 30.5265 117.201C30.8382 116.765 31.2122 116.64 31.5862 116.578C32.272 116.516 33.02 116.952 33.6434 117.326C34.0174 117.638 34.3914 117.887 34.6408 118.136L31.8356 122.063L31.1499 121.565ZM33.581 118.074C33.4564 117.949 33.3317 117.825 33.0823 117.638C32.5213 117.264 31.7109 116.952 31.2746 117.575C30.7759 118.261 31.3992 118.884 31.8979 119.321C32.0849 119.445 32.272 119.57 32.459 119.632L33.581 118.074Z" fill="#B90303"/>
<path d="M25.9761 117.513C25.6644 117.326 25.1657 116.952 24.7917 116.578C24.1683 116.017 23.2956 115.02 23.9813 114.272C24.3553 113.835 24.9787 113.835 25.4774 114.147C25.041 113.586 24.9163 112.962 25.3527 112.464C26.2254 111.529 27.4722 112.464 28.2202 113.087C28.5942 113.461 29.0306 113.835 29.2176 114.022L25.9761 117.513ZM26.6618 115.456L26.1631 115.02C25.6644 114.583 25.041 114.272 24.667 114.708C24.3553 115.082 24.48 115.518 25.1657 116.079C25.3527 116.266 25.5397 116.391 25.7267 116.516L26.6618 115.456ZM28.1579 113.835C27.9709 113.648 27.8462 113.523 27.6592 113.336C27.2228 112.962 26.4748 112.464 26.0384 112.962C25.5397 113.461 25.9761 114.085 26.5994 114.646L27.0981 115.082L28.1579 113.835Z" fill="#B90303"/>
<path d="M21.4875 113.399L22.9836 112.027C23.5447 111.529 23.9187 111.155 24.4174 110.718C23.794 110.905 23.42 111.03 22.7966 111.155L19.9291 111.778L19.2434 111.03L22.7343 107.726L23.2953 108.349L21.7992 109.721C21.2382 110.282 20.9265 110.531 20.3031 111.03C20.9888 110.843 21.3629 110.718 21.9239 110.594C22.7966 110.407 23.794 110.157 24.7914 109.97L25.4771 110.718L21.9862 114.022L21.4875 113.399Z" fill="#B90303"/>
<path d="M15.8152 106.729L19.0567 104.173L18.745 103.799L20.4905 102.49L20.9268 103.051L19.7424 104.048L21.7995 106.666L23.0463 105.731L23.4826 106.292L21.7995 107.664L21.5502 107.352C21.1762 107.352 20.8021 107.477 20.4905 107.601C19.9294 107.851 19.3684 108.162 18.8074 108.599L17.81 109.347L15.8152 106.729ZM18.4957 107.726C18.9944 107.352 19.5554 107.04 20.0541 106.791C20.3658 106.666 20.6775 106.604 20.9892 106.542L19.6177 104.796L16.8749 106.978L17.8723 108.225L18.4957 107.726Z" fill="#B90303"/>
<path d="M16.6253 103.487C17.6227 102.802 17.6227 101.929 17.124 101.181C16.75 100.682 16.5006 100.433 16.1889 100.183L16.6253 99.6848C16.937 99.8718 17.311 100.246 17.7473 100.869C18.5577 102.116 18.246 103.363 17.0616 104.173C15.8772 104.983 14.4435 104.921 13.6331 103.737C12.7604 102.428 13.6954 101.306 14.4435 100.807C14.5682 100.682 14.6928 100.62 14.8175 100.62L16.6253 103.487ZM14.6928 101.68C14.1941 101.991 13.6331 102.677 14.1941 103.487C14.6928 104.235 15.5656 104.111 16.1266 103.799L14.6928 101.68Z" fill="#B90303"/>
<path d="M11.8881 95.8822C13.4465 95.0095 14.7556 95.7575 15.3166 96.7549C15.94 97.877 15.566 99.2484 14.2569 99.9964C12.8232 100.744 11.5141 100.308 10.8284 99.1237C10.1427 97.9393 10.579 96.6302 11.8881 95.8822ZM13.7582 99.2484C14.6933 98.7497 15.0673 97.8146 14.6933 97.0666C14.3192 96.3186 13.3219 96.1315 12.3245 96.6926C11.6388 97.0666 10.8907 97.9393 11.3894 98.8744C11.9504 99.7471 12.9478 99.6848 13.7582 99.2484Z" fill="#B90303"/>
<path d="M7.6491 62.1579C7.77377 62.4696 7.89845 63.1553 7.89845 63.9657C7.83611 65.8358 6.52703 67.2072 4.34524 67.1449C2.22578 67.0202 0.854364 65.5865 0.979039 63.467C1.04138 62.6566 1.22839 62.0956 1.35306 61.9086L2.03877 62.1579C1.85176 62.4696 1.72708 62.9683 1.72708 63.5294C1.66475 65.0878 2.5998 66.2099 4.40757 66.2722C6.02834 66.3345 7.1504 65.4618 7.21274 63.841C7.21274 63.3424 7.1504 62.7813 7.02573 62.4073L7.6491 62.1579Z" fill="#B90303"/>
<path d="M3.22339 60.5371L3.34806 59.4774L5.90388 58.9787C6.2779 58.9163 6.90127 58.7916 7.2753 58.7293C6.90127 58.5423 6.21557 58.1683 5.71687 57.9189L3.72208 56.8592L3.84676 55.7995L8.64671 56.1735L8.52204 56.9839L6.21557 56.7345C5.71687 56.6722 5.0935 56.6722 4.47013 56.5475C4.96883 56.7969 5.34285 56.9839 6.02855 57.2956L8.33502 58.5423L8.27269 59.1657L5.77921 59.6644C5.28051 59.789 4.53247 59.9137 4.09611 59.9761V60.0384C4.65714 60.1631 5.28051 60.2877 5.77921 60.3501L8.02334 60.7864L7.89867 61.5968L3.22339 60.5371Z" fill="#B90303"/>
<path d="M7.58663 50.3138C9.33206 50.7502 9.76842 52.1216 9.51907 53.2437C9.20739 54.4904 8.02298 55.2385 6.58923 54.9268C5.03081 54.5528 4.3451 53.306 4.65679 51.9969C4.96847 50.6255 6.15287 49.9398 7.58663 50.3138ZM6.71391 54.0541C7.7113 54.3034 8.64636 53.9294 8.83337 53.0567C9.02038 52.2463 8.39701 51.4359 7.33728 51.1866C6.5269 50.9995 5.46717 51.1242 5.21782 52.184C5.03081 53.1813 5.84119 53.8047 6.71391 54.0541Z" fill="#B90303"/>
<path d="M6.65144 45.4516L7.33715 45.6386L6.90079 47.0724L10.828 48.3191L10.5163 49.1919L6.58911 47.9451L6.15275 49.3789L5.46704 49.1919L6.65144 45.4516Z" fill="#B90303"/>
<path d="M8.45971 45.0777C7.89868 44.8283 7.39998 44.6413 6.96362 44.5167L7.27531 43.7686L8.08569 44.018C7.64933 43.4569 7.58699 42.8336 7.89868 42.0855C8.33504 41.0258 9.58178 40.5894 10.9532 41.1505C12.574 41.8362 12.948 43.1452 12.5116 44.1426C12.2623 44.7037 11.8259 45.14 11.2649 45.2024L13.696 46.1998L13.3843 47.0101L8.45971 45.0777ZM9.9558 44.766C10.0805 44.8283 10.2051 44.8283 10.3298 44.8907C10.9532 44.953 11.5142 44.6413 11.7636 44.0803C12.1376 43.2076 11.6389 42.4595 10.5792 42.0232C9.70645 41.6492 8.70906 41.8362 8.39737 42.6465C8.14803 43.2076 8.33504 43.8933 8.89607 44.2673C8.95841 44.3296 9.08308 44.392 9.20776 44.4543L9.9558 44.766Z" fill="#B90303"/>
<path d="M11.8883 39.7789C12.948 40.2776 13.7584 39.8412 14.1324 39.0932C14.4441 38.5321 14.5065 38.1581 14.5065 37.7841L15.1298 37.9088C15.1298 38.2204 15.0052 38.7815 14.6311 39.4672C13.9454 40.7763 12.6987 41.1503 11.3896 40.4646C10.0805 39.7789 9.45716 38.5321 10.1429 37.2854C10.8909 35.914 12.2623 36.1633 13.0727 36.5373C13.2597 36.5997 13.3221 36.7243 13.4467 36.7243L11.8883 39.7789ZM12.5117 37.1607C12.013 36.9114 11.1403 36.7243 10.7039 37.5971C10.2675 38.4074 10.8286 39.0932 11.3273 39.4672L12.5117 37.1607Z" fill="#B90303"/>
<path d="M13.5085 31.6751L14.1319 32.0491L13.3215 33.3582L16.8124 35.54L16.376 36.288L12.8852 34.1062L12.0748 35.4153L11.4514 35.0413L13.5085 31.6751Z" fill="#B90303"/>
<path d="M14.5683 30.1166L15.8774 31.0516C15.9397 30.8646 16.1267 30.6153 16.3137 30.3659C16.9371 29.4932 17.8721 28.7452 18.9319 29.4932C19.3682 29.8049 19.4929 30.1789 19.5552 30.5529C19.6176 31.2386 19.1812 31.9867 18.8072 32.6101C18.4955 32.9841 18.2462 33.3581 17.9968 33.6075L14.0696 30.8646L14.5683 30.1166ZM17.9968 32.6101C18.1215 32.4854 18.2462 32.3607 18.4332 32.1114C18.8072 31.5503 19.1189 30.74 18.4955 30.3036C17.8098 29.8049 17.1864 30.4283 16.7501 30.927C16.6254 31.114 16.5007 31.301 16.4384 31.488L17.9968 32.6101Z" fill="#B90303"/>
<path d="M18.6204 24.9428C18.8074 24.6311 19.1814 24.1324 19.5554 23.7584C20.1164 23.135 21.1138 22.2623 21.8619 22.948C22.2982 23.322 22.2982 23.9454 21.9866 24.4441C22.5476 24.0077 23.171 23.883 23.6697 24.3194C24.6047 25.1921 23.6697 26.4389 23.0463 27.1869C22.6723 27.5609 22.2982 27.9973 22.1112 28.1843L18.6204 24.9428ZM20.6151 25.6285L21.0515 25.1298C21.4879 24.6311 21.7996 24.0077 21.3632 23.6337C20.9892 23.322 20.5528 23.4467 19.9918 24.1324C19.8048 24.3194 19.6801 24.5064 19.5554 24.6934L20.6151 25.6285ZM22.2982 27.1246C22.4853 26.9376 22.6099 26.8129 22.7969 26.6259C23.171 26.1895 23.6697 25.4415 23.171 25.0051C22.6723 24.5064 22.0489 24.9428 21.4879 25.5661L21.0515 26.0648L22.2982 27.1246Z" fill="#B90303"/>
<path d="M22.7349 20.5168L24.1064 22.0129C24.6051 22.5739 24.9791 22.948 25.4154 23.4466C25.2284 22.8233 25.1037 22.4493 24.9791 21.8259L24.3557 18.9584L25.1037 18.2727L28.4076 21.7635L27.7842 22.3246L26.4128 20.8285C25.8518 20.2675 25.6024 19.9558 25.1037 19.3324C25.2908 20.0181 25.4154 20.3921 25.5401 20.9532C25.7271 21.8259 25.9765 22.8233 26.1635 23.8207L25.4154 24.5064L22.1116 21.0155L22.7349 20.5168Z" fill="#B90303"/>
<path d="M29.3428 14.844L31.8987 18.0855L32.2727 17.7738L33.5818 19.5192L33.0207 19.9556L32.148 18.7712L29.5299 20.8283L30.4649 22.0751L29.9039 22.5114L28.5325 20.8283L28.8442 20.579C28.8442 20.2049 28.7195 19.8309 28.5948 19.5192C28.3455 18.9582 28.0338 18.3972 27.5974 17.8361L26.8494 16.8387L29.3428 14.844ZM28.3455 17.4621C28.7195 17.9608 29.0312 18.5218 29.2805 19.0205C29.4052 19.3322 29.4675 19.6439 29.5299 19.9556L31.2753 18.5842L29.0935 15.8414L27.8468 16.8387L28.3455 17.4621Z" fill="#B90303"/>
<path d="M32.6463 15.6543C33.332 16.6517 34.2047 16.6517 34.9527 16.153C35.4514 15.7789 35.7008 15.5296 35.9501 15.2179L36.4488 15.6543C36.2618 15.966 35.8878 16.34 35.2644 16.7763C34.0177 17.5867 32.7709 17.275 31.9606 16.0906C31.1502 14.9062 31.2125 13.4725 32.3969 12.6621C33.706 11.7894 34.8281 12.7244 35.3268 13.4725C35.4514 13.5972 35.5138 13.7218 35.5138 13.8465L32.6463 15.6543ZM34.454 13.7218C34.1424 13.2231 33.4566 12.6621 32.6463 13.2231C31.8982 13.7218 32.0229 14.5945 32.3346 15.1556L34.454 13.7218Z" fill="#B90303"/>
<path d="M40.189 10.917C41.0617 12.4754 40.3137 13.7845 39.3163 14.3455C38.1942 14.9689 36.8228 14.5949 36.0748 13.2858C35.3267 11.852 35.7631 10.543 36.9475 9.85725C38.1942 9.17154 39.5033 9.6079 40.189 10.917ZM36.8851 12.7871C37.3838 13.7221 38.3189 14.0962 39.0669 13.7221C39.815 13.3481 40.002 12.3507 39.441 11.3533C39.0669 10.6676 38.1942 9.91958 37.2592 10.4183C36.3241 10.917 36.3864 11.9767 36.8851 12.7871Z" fill="#B90303"/>
<path d="M7.6491 62.1579C7.77377 62.4696 7.89845 63.1553 7.89845 63.9657C7.83611 65.8358 6.52703 67.2072 4.34524 67.1449C2.22578 67.0202 0.854364 65.5865 0.979039 63.467C1.04138 62.6566 1.22839 62.0956 1.35306 61.9086L2.03877 62.1579C1.85176 62.4696 1.72708 62.9683 1.72708 63.5294C1.66475 65.0878 2.5998 66.2099 4.40757 66.2722C6.02834 66.3345 7.1504 65.4618 7.21274 63.841C7.21274 63.3424 7.1504 62.7813 7.02573 62.4073L7.6491 62.1579Z" fill="#B90303"/>
<path d="M3.22339 60.5371L3.34806 59.4774L5.90388 58.9787C6.2779 58.9163 6.90127 58.7916 7.2753 58.7293C6.90127 58.5423 6.21557 58.1683 5.71687 57.9189L3.72208 56.8592L3.84676 55.7995L8.64671 56.1735L8.52204 56.9839L6.21557 56.7345C5.71687 56.6722 5.0935 56.6722 4.47013 56.5475C4.96883 56.7969 5.34285 56.9839 6.02855 57.2956L8.33502 58.5423L8.27269 59.1657L5.77921 59.6644C5.28051 59.789 4.53247 59.9137 4.09611 59.9761V60.0384C4.65714 60.1631 5.28051 60.2877 5.77921 60.3501L8.02334 60.7864L7.89867 61.5968L3.22339 60.5371Z" fill="#B90303"/>
<path d="M7.58663 50.3138C9.33206 50.7502 9.76842 52.1216 9.51907 53.2437C9.20739 54.4904 8.02298 55.2385 6.58923 54.9268C5.03081 54.5528 4.3451 53.306 4.65679 51.9969C4.96847 50.6255 6.15287 49.9398 7.58663 50.3138ZM6.71391 54.0541C7.7113 54.3034 8.64636 53.9294 8.83337 53.0567C9.02038 52.2463 8.39701 51.4359 7.33728 51.1866C6.5269 50.9995 5.46717 51.1242 5.21782 52.184C5.03081 53.1813 5.84119 53.8047 6.71391 54.0541Z" fill="#B90303"/>
<path d="M6.65144 45.4516L7.33715 45.6386L6.90079 47.0724L10.828 48.3191L10.5163 49.1919L6.58911 47.9451L6.15275 49.3789L5.46704 49.1919L6.65144 45.4516Z" fill="#B90303"/>
<path d="M8.45971 45.0777C7.89868 44.8283 7.39998 44.6413 6.96362 44.5167L7.27531 43.7686L8.08569 44.018C7.64933 43.4569 7.58699 42.8336 7.89868 42.0855C8.33504 41.0258 9.58178 40.5894 10.9532 41.1505C12.574 41.8362 12.948 43.1452 12.5116 44.1426C12.2623 44.7037 11.8259 45.14 11.2649 45.2024L13.696 46.1998L13.3843 47.0101L8.45971 45.0777ZM9.9558 44.766C10.0805 44.8283 10.2051 44.8283 10.3298 44.8907C10.9532 44.953 11.5142 44.6413 11.7636 44.0803C12.1376 43.2076 11.6389 42.4595 10.5792 42.0232C9.70645 41.6492 8.70906 41.8362 8.39737 42.6465C8.14803 43.2076 8.33504 43.8933 8.89607 44.2673C8.95841 44.3296 9.08308 44.392 9.20776 44.4543L9.9558 44.766Z" fill="#B90303"/>
<path d="M11.8883 39.7789C12.948 40.2776 13.7584 39.8412 14.1324 39.0932C14.4441 38.5321 14.5065 38.1581 14.5065 37.7841L15.1298 37.9088C15.1298 38.2204 15.0052 38.7815 14.6311 39.4672C13.9454 40.7763 12.6987 41.1503 11.3896 40.4646C10.0805 39.7789 9.45716 38.5321 10.1429 37.2854C10.8909 35.914 12.2623 36.1633 13.0727 36.5373C13.2597 36.5997 13.3221 36.7243 13.4467 36.7243L11.8883 39.7789ZM12.5117 37.1607C12.013 36.9114 11.1403 36.7243 10.7039 37.5971C10.2675 38.4074 10.8286 39.0932 11.3273 39.4672L12.5117 37.1607Z" fill="#B90303"/>
<path d="M13.5085 31.6751L14.1319 32.0491L13.3215 33.3582L16.8124 35.54L16.376 36.288L12.8852 34.1062L12.0748 35.4153L11.4514 35.0413L13.5085 31.6751Z" fill="#B90303"/>
<path d="M14.5683 30.1166L15.8774 31.0516C15.9397 30.8646 16.1267 30.6153 16.3137 30.3659C16.9371 29.4932 17.8721 28.7452 18.9319 29.4932C19.3682 29.8049 19.4929 30.1789 19.5552 30.5529C19.6176 31.2386 19.1812 31.9867 18.8072 32.6101C18.4955 32.9841 18.2462 33.3581 17.9968 33.6075L14.0696 30.8646L14.5683 30.1166ZM17.9968 32.6101C18.1215 32.4854 18.2462 32.3607 18.4332 32.1114C18.8072 31.5503 19.1189 30.74 18.4955 30.3036C17.8098 29.8049 17.1864 30.4283 16.7501 30.927C16.6254 31.114 16.5007 31.301 16.4384 31.488L17.9968 32.6101Z" fill="#B90303"/>
<path d="M18.6204 24.9428C18.8074 24.6311 19.1814 24.1324 19.5554 23.7584C20.1164 23.135 21.1138 22.2623 21.8619 22.948C22.2982 23.322 22.2982 23.9454 21.9866 24.4441C22.5476 24.0077 23.171 23.883 23.6697 24.3194C24.6047 25.1921 23.6697 26.4389 23.0463 27.1869C22.6723 27.5609 22.2982 27.9973 22.1112 28.1843L18.6204 24.9428ZM20.6151 25.6285L21.0515 25.1298C21.4879 24.6311 21.7996 24.0077 21.3632 23.6337C20.9892 23.322 20.5528 23.4467 19.9918 24.1324C19.8048 24.3194 19.6801 24.5064 19.5554 24.6934L20.6151 25.6285ZM22.2982 27.1246C22.4853 26.9376 22.6099 26.8129 22.7969 26.6259C23.171 26.1895 23.6697 25.4415 23.171 25.0051C22.6723 24.5064 22.0489 24.9428 21.4879 25.5661L21.0515 26.0648L22.2982 27.1246Z" fill="#B90303"/>
<path d="M22.7349 20.5168L24.1064 22.0129C24.6051 22.5739 24.9791 22.948 25.4154 23.4466C25.2284 22.8233 25.1037 22.4493 24.9791 21.8259L24.3557 18.9584L25.1037 18.2727L28.4076 21.7635L27.7842 22.3246L26.4128 20.8285C25.8518 20.2675 25.6024 19.9558 25.1037 19.3324C25.2908 20.0181 25.4154 20.3921 25.5401 20.9532C25.7271 21.8259 25.9765 22.8233 26.1635 23.8207L25.4154 24.5064L22.1116 21.0155L22.7349 20.5168Z" fill="#B90303"/>
<path d="M29.3428 14.844L31.8987 18.0855L32.2727 17.7738L33.5818 19.5192L33.0207 19.9556L32.148 18.7712L29.5299 20.8283L30.4649 22.0751L29.9039 22.5114L28.5325 20.8283L28.8442 20.579C28.8442 20.2049 28.7195 19.8309 28.5948 19.5192C28.3455 18.9582 28.0338 18.3972 27.5974 17.8361L26.8494 16.8387L29.3428 14.844ZM28.3455 17.4621C28.7195 17.9608 29.0312 18.5218 29.2805 19.0205C29.4052 19.3322 29.4675 19.6439 29.5299 19.9556L31.2753 18.5842L29.0935 15.8414L27.8468 16.8387L28.3455 17.4621Z" fill="#B90303"/>
<path d="M32.6463 15.6543C33.332 16.6517 34.2047 16.6517 34.9527 16.153C35.4514 15.7789 35.7008 15.5296 35.9501 15.2179L36.4488 15.6543C36.2618 15.966 35.8878 16.34 35.2644 16.7763C34.0177 17.5867 32.7709 17.275 31.9606 16.0906C31.1502 14.9062 31.2125 13.4725 32.3969 12.6621C33.706 11.7894 34.8281 12.7244 35.3268 13.4725C35.4514 13.5972 35.5138 13.7218 35.5138 13.8465L32.6463 15.6543ZM34.454 13.7218C34.1424 13.2231 33.4566 12.6621 32.6463 13.2231C31.8982 13.7218 32.0229 14.5945 32.3346 15.1556L34.454 13.7218Z" fill="#B90303"/>
<path d="M40.189 10.917C41.0617 12.4754 40.3137 13.7845 39.3163 14.3455C38.1942 14.9689 36.8228 14.5949 36.0748 13.2858C35.3267 11.852 35.7631 10.543 36.9475 9.85725C38.1942 9.17154 39.5033 9.6079 40.189 10.917ZM36.8851 12.7871C37.3838 13.7221 38.3189 14.0962 39.0669 13.7221C39.815 13.3481 40.002 12.3507 39.441 11.3533C39.0669 10.6676 38.1942 9.91958 37.2592 10.4183C36.3241 10.917 36.3864 11.9767 36.8851 12.7871Z" fill="#B90303"/>
</svg>
