<svg width="375" height="62" viewBox="0 0 375 62" fill="none" xmlns="http://www.w3.org/2000/svg">
<rect x="9.23682" y="5" width="365.764" height="57" fill="#B90303"/>
<rect width="365.764" height="57" fill="#FC0000"/>
<path d="M136.397 29.7C136.397 32.6 138.497 34.7 140.697 34.7C142.897 34.7 144.997 32.6 144.997 29.7C144.997 26.8 142.897 24.7 140.697 24.7C138.497 24.7 136.397 26.8 136.397 29.7ZM146.597 29.7C146.597 33.3 143.797 36.1 140.697 36.1C137.597 36.1 134.797 33.3 134.797 29.7C134.797 26.1 137.597 23.3 140.697 23.3C143.797 23.3 146.597 26.1 146.597 29.7ZM157.6 23.4V24.8H153.8V36H152.2V24.8H148.4V23.4H157.6ZM160.305 23.4H169.705V36H168.105V24.8H161.905V36H160.305V23.4ZM173.702 23.4H178.002C180.202 23.4 182.002 25.2 182.002 27.3C182.002 29.4 180.202 31.2 178.002 31.2H175.302V36H173.702V23.4ZM175.302 29.8H178.002C179.302 29.8 180.402 28.7 180.402 27.3C180.402 25.9 179.302 24.8 178.002 24.8H175.302V29.8ZM192.905 36L191.705 32.9H186.505L185.305 36H183.605L188.405 23.4H189.805L194.605 36H192.905ZM189.105 26L187.005 31.5H191.205L189.105 26ZM203.902 29.3C203.902 29.3 205.802 30.1 205.802 32.4C205.802 34.28 204.102 36 201.802 36H197.002V23.4H201.702C203.802 23.4 205.302 24.9 205.302 26.8C205.302 28.6 203.902 29.3 203.902 29.3ZM198.602 24.8V28.7H201.702C202.902 28.7 203.802 27.8 203.802 26.8C203.802 25.7 202.902 24.8 201.702 24.8H198.602ZM198.602 34.6H201.802C203.202 34.6 204.202 33.6 204.202 32.3C204.202 31.1 203.202 30.1 201.802 30.1H198.602V34.6ZM218.293 36H216.693V26.3L210.393 36H208.993V23.4H210.593V33.1L216.893 23.4H218.293V36ZM230.193 23.4V24.8H226.393V36H224.793V24.8H220.993V23.4H230.193ZM237.298 36H232.898V23.4H234.498V28.2H237.298C239.498 28.2 241.298 30 241.298 32.1C241.298 34.2 239.498 36 237.298 36ZM237.298 29.6H234.498V34.6H237.298C238.598 34.6 239.698 33.5 239.698 32.1C239.698 30.7 238.598 29.6 237.298 29.6Z" fill="#F1F1F1"/>
</svg>
