<svg width="366" height="57" viewBox="0 0 366 57" fill="none" xmlns="http://www.w3.org/2000/svg">
<rect width="366" height="57" fill="#B90303"/>
<path d="M135.897 27.7C135.897 24.8 137.997 22.7 140.197 22.7C142.397 22.7 144.497 24.8 144.497 27.7C144.497 30.6 142.397 32.7 140.197 32.7C137.997 32.7 135.897 30.6 135.897 27.7ZM146.097 27.7C146.097 24.1 143.297 21.3 140.197 21.3C137.097 21.3 134.297 24.1 134.297 27.7C134.297 31.3 137.097 34.1 140.197 34.1C143.297 34.1 146.097 31.3 146.097 27.7ZM157.1 21.4H147.9V22.8H151.7V34H153.3V22.8H157.1V21.4ZM159.805 21.4V34H161.405V22.8H167.605V34H169.205V21.4H159.805ZM173.202 21.4V34H174.802V29.2H177.502C179.702 29.2 181.502 27.4 181.502 25.3C181.502 23.2 179.702 21.4 177.502 21.4H173.202ZM174.802 27.8V22.8H177.502C178.802 22.8 179.902 23.9 179.902 25.3C179.902 26.7 178.802 27.8 177.502 27.8H174.802ZM192.405 34H194.105L189.305 21.4H187.905L183.105 34H184.805L186.005 30.9H191.205L192.405 34ZM188.605 24L190.705 29.5H186.505L188.605 24ZM203.402 27.3C203.402 27.3 204.802 26.6 204.802 24.8C204.802 22.9 203.302 21.4 201.202 21.4H196.502V34H201.302C203.602 34 205.302 32.28 205.302 30.4C205.302 28.1 203.402 27.3 203.402 27.3ZM198.102 22.8H201.202C202.402 22.8 203.302 23.7 203.302 24.8C203.302 25.8 202.402 26.7 201.202 26.7H198.102V22.8ZM198.102 32.6V28.1H201.302C202.702 28.1 203.702 29.1 203.702 30.3C203.702 31.6 202.702 32.6 201.302 32.6H198.102ZM217.793 34V21.4H216.393L210.093 31.1V21.4H208.493V34H209.893L216.193 24.3V34H217.793ZM229.693 21.4H220.493V22.8H224.293V34H225.893V22.8H229.693V21.4ZM236.798 34C238.998 34 240.798 32.2 240.798 30.1C240.798 28 238.998 26.2 236.798 26.2H233.998V21.4H232.398V34H236.798ZM236.798 27.6C238.098 27.6 239.198 28.7 239.198 30.1C239.198 31.5 238.098 32.6 236.798 32.6H233.998V27.6H236.798Z" fill="#F1F1F1"/>
</svg>
