<svg width="355" height="60" viewBox="0 0 355 60" fill="none" xmlns="http://www.w3.org/2000/svg">
<rect width="355" height="60" fill="#FC0000"/>
<path d="M125.897 31.7C125.897 28.8 127.997 26.7 130.197 26.7C132.397 26.7 134.497 28.8 134.497 31.7C134.497 34.6 132.397 36.7 130.197 36.7C127.997 36.7 125.897 34.6 125.897 31.7ZM136.097 31.7C136.097 28.1 133.297 25.3 130.197 25.3C127.097 25.3 124.297 28.1 124.297 31.7C124.297 35.3 127.097 38.1 130.197 38.1C133.297 38.1 136.097 35.3 136.097 31.7ZM147.1 25.4H137.9V26.8H141.7V38H143.3V26.8H147.1V25.4ZM149.805 25.4V38H151.405V26.8H157.605V38H159.205V25.4H149.805ZM163.202 25.4V38H164.802V33.2H167.502C169.702 33.2 171.502 31.4 171.502 29.3C171.502 27.2 169.702 25.4 167.502 25.4H163.202ZM164.802 31.8V26.8H167.502C168.802 26.8 169.902 27.9 169.902 29.3C169.902 30.7 168.802 31.8 167.502 31.8H164.802ZM182.405 38H184.105L179.305 25.4H177.905L173.105 38H174.805L176.005 34.9H181.205L182.405 38ZM178.605 28L180.705 33.5H176.505L178.605 28ZM193.402 31.3C193.402 31.3 194.802 30.6 194.802 28.8C194.802 26.9 193.302 25.4 191.202 25.4H186.502V38H191.302C193.602 38 195.302 36.28 195.302 34.4C195.302 32.1 193.402 31.3 193.402 31.3ZM188.102 26.8H191.202C192.402 26.8 193.302 27.7 193.302 28.8C193.302 29.8 192.402 30.7 191.202 30.7H188.102V26.8ZM188.102 36.6V32.1H191.302C192.702 32.1 193.702 33.1 193.702 34.3C193.702 35.6 192.702 36.6 191.302 36.6H188.102ZM207.793 38V25.4H206.393L200.093 35.1V25.4H198.493V38H199.893L206.193 28.3V38H207.793ZM219.693 25.4H210.493V26.8H214.293V38H215.893V26.8H219.693V25.4ZM226.798 38C228.998 38 230.798 36.2 230.798 34.1C230.798 32 228.998 30.2 226.798 30.2H223.998V25.4H222.398V38H226.798ZM226.798 31.6C228.098 31.6 229.198 32.7 229.198 34.1C229.198 35.5 228.098 36.6 226.798 36.6H223.998V31.6H226.798Z" fill="#F1F1F1"/>
</svg>
