<svg width="198" height="57" viewBox="0 0 198 57" fill="none" xmlns="http://www.w3.org/2000/svg">
<rect width="198" height="57" fill="#FC0000"/>
<path d="M47.3969 28.7C47.3969 25.8 49.4969 23.7 51.6969 23.7C53.8969 23.7 55.9969 25.8 55.9969 28.7C55.9969 31.6 53.8969 33.7 51.6969 33.7C49.4969 33.7 47.3969 31.6 47.3969 28.7ZM57.5969 28.7C57.5969 25.1 54.7969 22.3 51.6969 22.3C48.5969 22.3 45.7969 25.1 45.7969 28.7C45.7969 32.3 48.5969 35.1 51.6969 35.1C54.7969 35.1 57.5969 32.3 57.5969 28.7ZM68.6 22.4H59.4V23.8H63.2V35H64.8V23.8H68.6V22.4ZM71.3047 22.4V35H72.9047V23.8H79.1047V35H80.7047V22.4H71.3047ZM84.7023 22.4V35H86.3023V30.2H89.0023C91.2023 30.2 93.0023 28.4 93.0023 26.3C93.0023 24.2 91.2023 22.4 89.0023 22.4H84.7023ZM86.3023 28.8V23.8H89.0023C90.3023 23.8 91.4023 24.9 91.4023 26.3C91.4023 27.7 90.3023 28.8 89.0023 28.8H86.3023ZM103.905 35H105.605L100.805 22.4H99.4055L94.6055 35H96.3055L97.5055 31.9H102.705L103.905 35ZM100.105 25L102.205 30.5H98.0055L100.105 25ZM114.902 28.3C114.902 28.3 116.302 27.6 116.302 25.8C116.302 23.9 114.802 22.4 112.702 22.4H108.002V35H112.802C115.102 35 116.802 33.28 116.802 31.4C116.802 29.1 114.902 28.3 114.902 28.3ZM109.602 23.8H112.702C113.902 23.8 114.802 24.7 114.802 25.8C114.802 26.8 113.902 27.7 112.702 27.7H109.602V23.8ZM109.602 33.6V29.1H112.802C114.202 29.1 115.202 30.1 115.202 31.3C115.202 32.6 114.202 33.6 112.802 33.6H109.602ZM129.293 35V22.4H127.893L121.593 32.1V22.4H119.993V35H121.393L127.693 25.3V35H129.293ZM141.193 22.4H131.993V23.8H135.793V35H137.393V23.8H141.193V22.4ZM148.298 35C150.498 35 152.298 33.2 152.298 31.1C152.298 29 150.498 27.2 148.298 27.2H145.498V22.4H143.898V35H148.298ZM148.298 28.6C149.598 28.6 150.698 29.7 150.698 31.1C150.698 32.5 149.598 33.6 148.298 33.6H145.498V28.6H148.298Z" fill="#F1F1F1"/>
</svg>
