<svg width="355" height="60" viewBox="0 0 355 60" fill="none" xmlns="http://www.w3.org/2000/svg">
<rect x="0.5" y="0.5" width="354" height="59" fill="#F1F1F1" stroke="#BDB199"/>
<path d="M24.42 28.24H28.4V29.66H24.42V33.78H22.98V29.66H19V28.24H22.98V24.1H24.42V28.24ZM30.1453 23.4V24.8H35.9453L30.7453 36H32.4453L37.7453 24.5V23.4H30.1453ZM51.4708 39.08H42.5108V37.8H51.4708V39.08ZM60.3575 39.08H51.3975V37.8H60.3575V39.08ZM69.2442 39.08H60.2842V37.8H69.2442V39.08ZM75.4109 30.2H69.9109V31.5H75.4109V30.2ZM85.0255 39.08H76.0655V37.8H85.0255V39.08ZM93.9122 39.08H84.9522V37.8H93.9122V39.08ZM102.799 39.08H93.8389V37.8H102.799V39.08ZM108.966 30.2H103.466V31.5H108.966V30.2ZM118.58 39.08H109.62V37.8H118.58V39.08ZM127.467 39.08H118.507V37.8H127.467V39.08ZM133.634 30.2H128.134V31.5H133.634V30.2ZM143.248 39.08H134.288V37.8H143.248V39.08ZM152.135 39.08H143.175V37.8H152.135V39.08Z" fill="#BDB199"/>
</svg>
