<svg width="137" height="136" viewBox="0 0 137 136" fill="none" xmlns="http://www.w3.org/2000/svg">
<circle cx="67.9636" cy="66.9928" r="49.2824" fill="#F1F1F1" stroke="#B90303" stroke-width="0.5"/>
<path d="M56.6948 56.9623H77.7461V78.0136" stroke="#B90303" stroke-width="5"/>
<path d="M56.6948 78.0136L77.7461 56.9623" stroke="#B90303" stroke-width="5"/>
<path d="M74.3449 0.249208L74.0334 6.97618L73.1614 6.9139L73.4728 0.934363L70.3585 0.80979L70.0471 6.78932L69.175 6.72704L69.5488 6.10352e-05L74.3449 0.249208Z" fill="#B90303"/>
<path d="M76.2136 4.92081C76.089 6.10426 76.7742 6.66484 77.6462 6.78942C78.269 6.8517 78.6428 6.8517 79.0165 6.72713L79.0788 7.35C78.7673 7.47457 78.2068 7.53686 77.4593 7.41228C75.9644 7.22542 75.2793 6.10426 75.4661 4.67167C75.653 3.23907 76.6496 2.24248 78.0822 2.42934C79.6394 2.67849 79.8885 4.0488 79.7639 4.9831C79.7639 5.16996 79.7016 5.29453 79.7016 5.35682L76.2136 4.92081ZM78.8296 4.67167C78.8919 4.11108 78.8296 3.23907 77.833 3.1145C76.961 2.98992 76.4627 3.73736 76.2759 4.36023L78.8296 4.67167Z" fill="#B90303"/>
<path d="M80.9469 4.67173C81.0715 4.04887 81.1961 3.55057 81.2583 3.11456L82.0058 3.30142L81.8812 4.11115C82.3795 3.61286 83.0024 3.426 83.7498 3.61286C84.871 3.862 85.4939 5.04545 85.1824 6.47805C84.8087 8.15979 83.563 8.78266 82.4418 8.53351C81.8189 8.40894 81.3206 7.97293 81.1338 7.47464L80.5732 10.0284L79.7012 9.84154L80.9469 4.67173ZM81.5075 6.10433C81.5075 6.2289 81.4452 6.35348 81.4452 6.47805C81.4452 7.10092 81.8812 7.6615 82.5041 7.78607C83.4384 7.97293 84.1235 7.35007 84.3727 6.29119C84.5595 5.35689 84.3104 4.42259 83.3761 4.23573C82.8155 4.11115 82.1304 4.42259 81.8189 4.98317C81.7567 5.10774 81.6944 5.23231 81.6944 5.2946L81.5075 6.10433Z" fill="#B90303"/>
<path d="M86.7401 7.16323C86.3664 8.28439 86.9893 8.96955 87.799 9.28098C88.4219 9.46784 88.7956 9.46784 89.1693 9.46784L89.107 10.0907C88.7956 10.153 88.235 10.0907 87.4876 9.90385C86.055 9.46784 85.5567 8.22211 85.9927 6.8518C86.4287 5.48149 87.6122 4.60947 88.9202 5.04548C90.4151 5.54377 90.4151 6.97637 90.1036 7.84839C90.0413 8.03525 89.979 8.15982 89.979 8.22211L86.7401 7.16323ZM89.3562 7.35009C89.543 6.8518 89.6053 5.91749 88.6087 5.60606C87.7367 5.35691 87.1138 5.97978 86.8647 6.54036L89.3562 7.35009Z" fill="#B90303"/>
<path d="M92.7816 6.54008L91.9718 8.40869C91.6604 9.09384 91.4736 9.52985 91.1621 10.1527C91.6604 9.71671 91.9718 9.46756 92.4701 9.09384L94.837 7.34981L95.7713 7.72353L93.9027 12.1459L93.1553 11.8345L93.965 9.96586C94.2765 9.21842 94.4633 8.8447 94.7747 8.15954C94.2765 8.59555 93.9027 8.90698 93.4667 9.21842C92.7816 9.71671 91.9096 10.4019 91.0998 10.9624L90.1655 10.5887L92.0341 6.16636L92.7816 6.54008ZM94.0896 4.92063C93.965 5.35663 94.0273 5.73035 94.401 5.85493C94.7747 6.04179 95.0862 5.79264 95.3353 5.41892L95.8959 5.66807C95.5222 6.41551 94.8993 6.60237 94.2142 6.29094C93.4044 5.9795 93.2799 5.29435 93.529 4.67148L94.0896 4.92063Z" fill="#B90303"/>
<path d="M100.194 10.0282L99.8823 10.6511L98.5743 9.96595L96.7057 13.6409L95.9583 13.2672L97.8269 9.59223L96.5188 8.90708L96.8303 8.28421L100.194 10.0282Z" fill="#B90303"/>
<path d="M101.752 10.9002L100.693 12.6442C100.319 13.3294 100.008 13.7031 99.6341 14.2637C100.195 13.8899 100.506 13.7031 101.067 13.3917L103.683 12.0836L104.555 12.6442L102.063 16.7551L101.378 16.3191L102.437 14.5751C102.873 13.8899 103.06 13.5785 103.496 12.8934C102.935 13.2671 102.499 13.4539 102.063 13.7654C101.254 14.1391 100.319 14.6997 99.4472 15.1357L98.5752 14.6374L101.067 10.5265L101.752 10.9002Z" fill="#B90303"/>
<path d="M108.416 15.4471L107.108 17.0666L107.294 17.1911L110.035 16.6929L110.845 17.378L107.855 17.814C108.416 18.3746 108.478 19.0598 108.229 19.9941C108.104 20.3055 107.98 20.8038 107.917 21.2398L107.17 20.6792C107.17 20.4301 107.294 20.0563 107.419 19.6203C107.668 18.8106 107.481 18.25 106.858 17.7517L106.734 17.6272L105.426 19.3089L104.741 18.7483L107.73 14.9488L108.416 15.4471Z" fill="#B90303"/>
<path d="M115.641 21.8005L115.143 22.2988L114.084 21.2399L111.219 24.2297L110.596 23.6068L113.461 20.6171L112.402 19.5582L112.901 19.0599L115.641 21.8005Z" fill="#B90303"/>
<path d="M117.385 27.282C116.077 28.4654 114.644 28.0917 113.897 27.2197C113.025 26.2231 113.087 24.8528 114.208 23.8562C115.392 22.7973 116.824 22.9219 117.696 23.9185C118.569 24.9151 118.444 26.2854 117.385 27.282ZM114.769 24.4791C113.959 25.1642 113.772 26.1608 114.333 26.7837C114.894 27.4066 115.89 27.3443 116.7 26.6591C117.323 26.0985 117.821 25.102 117.136 24.3545C116.451 23.5448 115.454 23.8562 114.769 24.4791Z" fill="#B90303"/>
<path d="M119.939 26.7835C120.188 27.0326 120.624 27.4686 120.936 27.9669C121.434 28.5898 122.119 29.7732 121.247 30.3961C120.749 30.7698 120.188 30.583 119.752 30.2715C120.126 30.8944 120.064 31.5796 119.503 31.9533C118.506 32.7007 117.385 31.5173 116.825 30.7698C116.513 30.3338 116.202 29.8978 116.077 29.6487L119.939 26.7835ZM117.074 29.9601C117.198 30.147 117.323 30.3338 117.447 30.5207C117.821 31.019 118.444 31.5796 119.005 31.2058C119.565 30.7698 119.254 30.147 118.755 29.4618L118.382 28.9635L117.074 29.9601ZM118.88 28.6521L119.254 29.1504C119.627 29.6487 120.188 30.0847 120.624 29.7732C120.998 29.4618 120.936 29.0258 120.437 28.3406C120.25 28.0915 120.126 27.9669 120.001 27.8424L118.88 28.6521Z" fill="#B90303"/>
<path d="M120.437 35.8774L120.935 35.5036C120.499 35.5036 119.938 35.2545 119.564 34.6316C119.066 33.8219 119.378 33.0122 119.938 32.6384C120.935 32.0156 121.994 32.5762 122.99 34.1333L123.053 34.071C123.364 33.8842 123.925 33.3859 123.426 32.5762C123.177 32.2024 122.803 31.891 122.43 31.7041L122.803 31.2058C123.239 31.3927 123.675 31.8287 123.987 32.327C124.797 33.5727 124.111 34.4448 123.302 34.943L121.807 35.9396C121.433 36.1888 121.122 36.3756 120.873 36.6248L120.437 35.8774ZM122.43 34.4448C121.931 33.635 121.184 32.8253 120.437 33.3236C119.938 33.635 119.938 34.071 120.187 34.4448C120.499 35.0053 121.059 35.0676 121.495 35.0053C121.558 35.0053 121.682 34.9431 121.745 34.8808L122.43 34.4448Z" fill="#B90303"/>
<path d="M124.361 36.0643C124.921 35.7529 125.357 35.5038 125.731 35.3169L126.105 36.002L125.42 36.4381C126.105 36.5003 126.665 36.8118 127.039 37.4969C127.6 38.5558 127.102 39.7393 125.793 40.4244C124.236 41.2341 122.991 40.6736 122.492 39.677C122.181 39.1164 122.181 38.4935 122.492 37.9952L120.188 39.241L119.814 38.4935L124.361 36.0643ZM123.613 37.4346C123.489 37.4969 123.427 37.5592 123.302 37.6215C122.866 38.0575 122.741 38.6804 122.991 39.241C123.427 40.0507 124.361 40.1753 125.295 39.677C126.167 39.241 126.666 38.3689 126.229 37.5592C125.98 36.9986 125.295 36.7495 124.672 36.8741C124.548 36.8741 124.423 36.9364 124.299 36.9986L123.613 37.4346Z" fill="#B90303"/>
<path d="M128.472 40.7978L126.23 42.8532C125.981 43.1024 125.669 43.3515 125.42 43.5384C125.732 43.5384 126.105 43.4761 126.479 43.4138L129.469 43.1647L129.842 44.0367L126.23 44.2235C124.486 44.2858 123.489 44.2235 122.804 43.8498C122.306 43.6007 121.994 43.2892 121.87 43.1024L122.493 42.6041C122.617 42.7909 122.866 42.9778 123.178 43.1647C123.427 43.2892 123.863 43.4761 124.361 43.4761C124.486 43.4761 124.548 43.4761 124.61 43.4761C124.673 43.4761 124.735 43.4138 124.797 43.3515L128.223 39.988L128.472 40.7978Z" fill="#B90303"/>
<path d="M135.822 73.3741L129.095 73.0627L129.158 72.1907L135.137 72.5021L135.262 69.3878L129.282 69.0763L129.344 68.2043L136.071 68.5157L135.822 73.3741Z" fill="#B90303"/>
<path d="M131.151 75.1804C129.968 75.0558 129.407 75.741 129.282 76.613C129.22 77.2359 129.22 77.6096 129.345 77.9833L128.722 78.0456C128.597 77.7342 128.535 77.1736 128.66 76.4261C128.846 74.9312 129.968 74.2461 131.4 74.433C132.833 74.6198 133.829 75.6164 133.643 77.049C133.393 78.6062 132.023 78.8553 131.089 78.7307C130.902 78.7307 130.777 78.6685 130.715 78.6685L131.151 75.1804ZM131.4 77.7964C131.961 77.8587 132.833 77.7964 132.957 76.7999C133.082 75.9278 132.334 75.4295 131.712 75.2427L131.4 77.7964Z" fill="#B90303"/>
<path d="M131.4 79.9142C132.023 80.0388 132.522 80.1634 132.958 80.2257L132.771 80.9731L131.961 80.8485C132.459 81.3468 132.646 81.9697 132.459 82.7171C132.21 83.8383 131.027 84.4612 129.594 84.1497C127.912 83.776 127.289 82.5303 127.539 81.4091C127.663 80.7862 128.099 80.2879 128.597 80.1011L126.044 79.5405L126.231 78.6685L131.4 79.9142ZM129.968 80.4748C129.843 80.4748 129.719 80.4125 129.594 80.4125C128.971 80.4125 128.411 80.8485 128.286 81.4714C128.099 82.4057 128.722 83.0909 129.781 83.34C130.715 83.5269 131.65 83.2154 131.836 82.3434C131.961 81.7828 131.649 81.0977 131.089 80.7862C130.964 80.7239 130.84 80.6617 130.777 80.6617L129.968 80.4748Z" fill="#B90303"/>
<path d="M128.971 85.7067C127.85 85.3329 127.165 85.9558 126.854 86.7655C126.667 87.3884 126.667 87.7621 126.667 88.1358L126.044 88.0736C125.982 87.7621 126.044 87.2015 126.231 86.4541C126.667 85.0215 127.912 84.5232 129.283 84.9592C130.653 85.3952 131.525 86.5787 131.089 87.8867C130.591 89.3816 129.158 89.3816 128.286 89.0701C128.099 89.0079 127.975 88.9456 127.912 88.9456L128.971 85.7067ZM128.722 88.385C129.22 88.5718 130.155 88.6341 130.466 87.6375C130.715 86.7655 130.092 86.1427 129.532 85.8935L128.722 88.385Z" fill="#B90303"/>
<path d="M129.532 91.8109L127.663 91.0011C126.978 90.6897 126.542 90.5028 125.919 90.1914C126.355 90.6897 126.604 91.0011 126.978 91.4994L128.722 93.8663L128.349 94.8006L123.926 92.932L124.238 92.1846L126.106 92.9943C126.854 93.3057 127.227 93.4926 127.913 93.804C127.477 93.3057 127.165 92.932 126.854 92.496C126.355 91.8109 125.67 90.9388 125.11 90.1291L125.483 89.1948L129.906 91.0634L129.532 91.8109ZM131.151 93.0566C130.715 92.932 130.342 92.9943 130.217 93.368C130.03 93.7417 130.279 94.0532 130.653 94.3023L130.404 94.8629C129.657 94.4892 129.47 93.8663 129.781 93.1812C130.093 92.3714 130.778 92.2469 131.401 92.496L131.151 93.0566Z" fill="#B90303"/>
<path d="M126.043 99.1606L125.42 98.8492L126.105 97.5412L122.43 95.6726L122.804 94.9251L126.479 96.7937L127.164 95.4857L127.787 95.7971L126.043 99.1606Z" fill="#B90303"/>
<path d="M125.171 100.78L123.427 99.7213C122.742 99.3476 122.369 99.0361 121.808 98.6624C122.182 99.223 122.369 99.5344 122.68 100.095L123.988 102.711L123.427 103.583L119.317 101.092L119.753 100.406L121.497 101.465C122.182 101.901 122.493 102.088 123.178 102.524C122.805 101.964 122.618 101.528 122.306 101.092C121.933 100.282 121.372 99.3476 120.936 98.4756L121.434 97.6035L125.545 100.095L125.171 100.78Z" fill="#B90303"/>
<path d="M120.624 107.445L119.005 106.137L118.88 106.324L119.379 109.065L118.693 109.875L118.257 106.885C117.697 107.445 117.012 107.508 116.077 107.258C115.766 107.134 115.268 107.009 114.832 106.947L115.392 106.2C115.641 106.2 116.015 106.324 116.451 106.449C117.261 106.698 117.821 106.511 118.32 105.888L118.444 105.764L116.763 104.456L117.323 103.77L121.123 106.76L120.624 107.445Z" fill="#B90303"/>
<path d="M114.271 114.608L113.773 114.109L114.832 113.051L111.842 110.185L112.465 109.562L115.454 112.428L116.513 111.369L117.012 111.867L114.271 114.608Z" fill="#B90303"/>
<path d="M108.79 116.352C107.606 115.044 107.98 113.611 108.852 112.864C109.849 111.992 111.219 112.054 112.215 113.175C113.274 114.359 113.15 115.791 112.153 116.663C111.157 117.598 109.786 117.473 108.79 116.352ZM111.655 113.798C110.97 112.989 109.973 112.802 109.35 113.362C108.727 113.923 108.79 114.919 109.475 115.729C110.035 116.352 111.032 116.85 111.779 116.165C112.527 115.48 112.278 114.483 111.655 113.798Z" fill="#B90303"/>
<path d="M109.289 118.906C109.039 119.155 108.603 119.591 108.105 119.902C107.482 120.401 106.299 121.086 105.676 120.214C105.302 119.716 105.489 119.155 105.801 118.719C105.178 119.093 104.493 119.03 104.119 118.47C103.371 117.473 104.555 116.352 105.302 115.791C105.738 115.48 106.174 115.169 106.423 115.044L109.289 118.906ZM106.112 116.103C105.925 116.227 105.738 116.352 105.551 116.477C105.053 116.85 104.493 117.473 104.866 118.034C105.302 118.594 105.925 118.283 106.61 117.785L107.109 117.411L106.112 116.103ZM107.42 117.847L106.922 118.221C106.423 118.594 105.987 119.155 106.299 119.591C106.61 119.965 107.046 119.902 107.731 119.404C107.981 119.217 108.105 119.093 108.23 118.968L107.42 117.847Z" fill="#B90303"/>
<path d="M100.257 119.466L100.631 119.965C100.631 119.529 100.88 118.968 101.503 118.594C102.312 118.096 103.122 118.407 103.496 118.968C104.119 119.965 103.558 121.024 102.001 122.02L102.063 122.082C102.25 122.394 102.748 122.954 103.558 122.456C103.932 122.207 104.243 121.833 104.43 121.46L104.928 121.833C104.742 122.269 104.306 122.705 103.807 123.017C102.562 123.826 101.69 123.141 101.191 122.332L100.195 120.837C99.9455 120.463 99.7587 120.152 99.5095 119.902L100.257 119.466ZM101.69 121.46C102.499 120.961 103.309 120.214 102.811 119.466C102.499 118.968 102.063 118.968 101.69 119.217C101.129 119.529 101.067 120.089 101.129 120.525C101.129 120.588 101.191 120.712 101.254 120.774L101.69 121.46Z" fill="#B90303"/>
<path d="M100.07 123.328C100.381 123.888 100.63 124.324 100.817 124.698L100.132 125.072L99.6962 124.387C99.6339 125.072 99.3225 125.632 98.6373 126.006C97.5784 126.567 96.395 126.068 95.7098 124.76C94.9001 123.203 95.4607 121.957 96.4573 121.459C97.0179 121.148 97.6407 121.148 98.139 121.459L96.8933 119.155L97.6407 118.781L100.07 123.328ZM98.6996 122.643C98.6373 122.518 98.575 122.456 98.5127 122.331C98.0767 121.895 97.4539 121.771 96.8933 122.02C96.0835 122.456 95.959 123.39 96.4573 124.324C96.8933 125.196 97.7653 125.695 98.575 125.259C99.1356 125.01 99.3848 124.324 99.2602 123.702C99.2602 123.577 99.1979 123.452 99.1356 123.328L98.6996 122.643Z" fill="#B90303"/>
<path d="M95.2737 127.501L93.2182 125.259C92.9691 125.01 92.7199 124.698 92.5331 124.449C92.5331 124.761 92.5954 125.134 92.6577 125.508L92.9068 128.498L92.0348 128.872L91.9102 125.197C91.8479 123.453 91.9102 122.456 92.2839 121.771C92.5331 121.273 92.8445 120.961 93.0314 120.837L93.5297 121.46C93.3428 121.584 93.1559 121.833 92.9691 122.145C92.8445 122.394 92.6577 122.83 92.6577 123.328C92.6577 123.453 92.6577 123.515 92.6577 123.577C92.6577 123.64 92.7199 123.702 92.7822 123.764L96.1457 127.19L95.2737 127.501Z" fill="#B90303"/>
<path d="M62.6973 134.852L63.0087 128.125L63.8807 128.187L63.5693 134.166L66.6836 134.291L66.9951 128.311L67.8671 128.374L67.5556 135.101L62.6973 134.852Z" fill="#B90303"/>
<path d="M60.8911 130.118C61.0157 128.934 60.3305 128.374 59.4585 128.249C58.8357 128.187 58.4619 128.187 58.0882 128.311L58.0259 127.688C58.3374 127.564 58.898 127.502 59.6454 127.626C61.1403 127.813 61.8254 128.934 61.6386 130.367C61.4517 131.799 60.4551 132.796 59.0225 132.609C57.4654 132.36 57.2162 130.927 57.3408 130.055C57.3408 129.869 57.4031 129.744 57.4031 129.682L60.8911 130.118ZM58.2751 130.429C58.2128 130.99 58.2751 131.862 59.2717 131.986C60.1437 132.111 60.642 131.363 60.8288 130.741L58.2751 130.429Z" fill="#B90303"/>
<path d="M56.1571 130.429C56.0325 131.052 55.9079 131.55 55.8456 131.986L55.0982 131.799L55.2228 130.99C54.7245 131.488 54.1016 131.675 53.3541 131.488C52.233 131.239 51.6101 130.055 51.9216 128.623C52.2953 126.941 53.541 126.318 54.6622 126.567C55.285 126.692 55.7833 127.128 55.9702 127.626L56.5308 125.072L57.4028 125.259L56.1571 130.429ZM55.5965 128.996C55.5965 128.872 55.6588 128.747 55.6588 128.623C55.6588 128 55.2228 127.439 54.5999 127.315C53.6656 127.128 52.9804 127.751 52.7313 128.809C52.5444 129.744 52.7936 130.678 53.7279 130.865C54.2885 130.99 54.9736 130.678 55.285 130.118C55.3473 129.993 55.4096 129.868 55.4096 129.806L55.5965 128.996Z" fill="#B90303"/>
<path d="M50.3643 127.937C50.738 126.816 50.1151 126.131 49.3054 125.82C48.6825 125.633 48.3088 125.633 47.9351 125.633L47.9974 125.01C48.3088 124.948 48.8694 125.01 49.6168 125.197C51.0494 125.633 51.5477 126.879 51.1117 128.249C50.6757 129.619 49.4923 130.491 48.1843 130.055C46.6894 129.557 46.6894 128.124 47.0008 127.252C47.0631 127.065 47.1254 126.941 47.1254 126.879L50.3643 127.937ZM47.7482 127.751C47.5614 128.249 47.4991 129.183 48.4957 129.495C49.3677 129.744 49.9906 129.121 50.2397 128.56L47.7482 127.751Z" fill="#B90303"/>
<path d="M43.0148 130.117C43.1394 129.681 43.0771 129.308 42.7034 129.183C42.3297 128.996 42.0182 129.245 41.7691 129.619L41.2085 129.37C41.5822 128.623 42.2051 128.436 42.8902 128.747C43.7 129.059 43.8245 129.744 43.5754 130.367L43.0148 130.117ZM44.3228 128.56L45.1326 126.692C45.444 126.007 45.6309 125.571 45.9423 124.948C45.444 125.384 45.1326 125.633 44.6343 126.007L42.2674 127.751L41.3331 127.377L43.2017 122.955L43.9491 123.266L43.1394 125.135C42.828 125.882 42.6411 126.256 42.3297 126.941C42.8279 126.505 43.2017 126.193 43.6377 125.882C44.3228 125.384 45.1949 124.699 46.0046 124.138L46.9389 124.512L45.0703 128.934L44.3228 128.56Z" fill="#B90303"/>
<path d="M36.9111 125.072L37.2226 124.449L38.5306 125.134L40.3992 121.46L41.1466 121.833L39.278 125.508L40.5861 126.193L40.2746 126.816L36.9111 125.072Z" fill="#B90303"/>
<path d="M35.3534 124.138L36.4123 122.394C36.786 121.771 37.0975 121.335 37.4712 120.774C36.9106 121.148 36.5992 121.335 36.0386 121.646L33.4225 122.955L32.5505 122.394L35.042 118.283L35.7272 118.719L34.6683 120.463C34.2323 121.148 34.0454 121.46 33.6094 122.145C34.17 121.771 34.606 121.584 35.042 121.273C35.8517 120.899 36.786 120.338 37.658 119.902L38.5301 120.401L36.0386 124.512L35.3534 124.138Z" fill="#B90303"/>
<path d="M28.626 119.654L29.934 118.034L29.7471 117.91L27.0065 118.408L26.1968 117.723L29.1866 117.287C28.626 116.726 28.5637 116.041 28.8128 115.107C28.9374 114.795 29.062 114.297 29.1243 113.861L29.8717 114.422C29.8717 114.671 29.7471 115.044 29.6226 115.48C29.3734 116.29 29.5603 116.851 30.1831 117.349L30.3077 117.474L31.6157 115.792L32.3009 116.352L29.3111 120.152L28.626 119.654Z" fill="#B90303"/>
<path d="M21.4631 113.3L21.9614 112.802L23.0203 113.86L25.8855 110.871L26.5084 111.494L23.6432 114.483L24.7021 115.542L24.2038 116.041L21.4631 113.3Z" fill="#B90303"/>
<path d="M19.7191 107.819C21.0271 106.635 22.4597 107.009 23.2072 107.881C24.0792 108.878 24.0169 110.248 22.8957 111.245C21.7123 112.303 20.2797 112.179 19.4077 111.182C18.4734 110.186 18.598 108.815 19.7191 107.819ZM22.2729 110.622C23.0826 109.937 23.2695 108.94 22.7089 108.317C22.1483 107.694 21.1517 107.756 20.342 108.442C19.7191 109.002 19.2208 109.999 19.906 110.746C20.5911 111.556 21.5877 111.245 22.2729 110.622Z" fill="#B90303"/>
<path d="M17.1659 108.317C16.9167 108.068 16.4807 107.632 16.1693 107.134C15.671 106.511 14.9858 105.327 15.8578 104.704C16.3561 104.331 16.9167 104.517 17.3527 104.829C16.979 104.206 17.0413 103.521 17.6019 103.147C18.5985 102.4 19.7196 103.583 20.2802 104.331C20.5916 104.767 20.9031 105.203 21.0277 105.452L17.1659 108.317ZM18.2248 106.448L17.851 105.95C17.4773 105.452 16.9167 105.016 16.4807 105.327C16.107 105.639 16.1693 106.075 16.6676 106.76C16.8544 107.009 16.979 107.134 17.1036 107.258L18.2248 106.448ZM20.0311 105.14C19.9065 104.953 19.7819 104.767 19.6573 104.58C19.2836 104.081 18.6608 103.521 18.1002 103.895C17.5396 104.331 17.851 104.953 18.3493 105.639L18.723 106.137L20.0311 105.14Z" fill="#B90303"/>
<path d="M16.6673 99.2232L16.169 99.5969C16.605 99.5969 17.1656 99.8461 17.5393 100.469C18.0376 101.279 17.7262 102.088 17.1656 102.462C16.169 103.085 15.1101 102.524 14.1135 100.967L14.0513 101.03C13.7398 101.216 13.1792 101.715 13.6775 102.524C13.9267 102.898 14.3004 103.21 14.6741 103.396L14.3004 103.895C13.8644 103.708 13.4284 103.272 13.117 102.774C12.3072 101.528 12.9924 100.656 13.8021 100.158L15.297 99.1609C15.6707 98.9118 15.9821 98.7249 16.2313 98.4758L16.6673 99.2232ZM14.6118 100.656C15.1101 101.466 15.8576 102.275 16.605 101.777C17.1033 101.466 17.1033 101.03 16.8542 100.656C16.5427 100.095 15.9821 100.033 15.5461 100.095C15.4838 100.095 15.3593 100.158 15.297 100.22L14.6118 100.656Z" fill="#B90303"/>
<path d="M12.7427 99.0363C12.1821 99.3478 11.7461 99.5969 11.3724 99.7838L10.9987 99.0986L11.6838 98.6626C10.9987 98.6003 10.4381 98.2889 10.0643 97.6037C9.50377 96.5448 10.0021 95.3614 11.3101 94.6762C12.8673 93.8665 14.113 94.4271 14.6113 95.4237C14.9227 95.9843 14.9227 96.6071 14.6113 97.1054L16.9159 95.8597L17.2896 96.6071L12.7427 99.0363ZM13.4901 97.666C13.6147 97.6037 13.677 97.5414 13.8016 97.4792C14.2376 97.0431 14.3621 96.4203 14.113 95.8597C13.677 95.05 12.7427 94.9254 11.8084 95.4237C10.9364 95.8597 10.4381 96.7317 10.8741 97.5414C11.1232 98.102 11.8084 98.3512 12.4312 98.2266C12.5558 98.2266 12.6804 98.1643 12.805 98.102L13.4901 97.666Z" fill="#B90303"/>
<path d="M8.56978 94.2403L10.8121 92.1848C11.0613 91.9356 11.3727 91.6865 11.6218 91.4996C11.3104 91.4996 10.9367 91.5619 10.5629 91.6242L7.57319 91.8734L7.19946 91.0014L10.8744 90.8768C12.6184 90.8145 13.615 90.8768 14.3002 91.2505C14.7984 91.4996 15.1099 91.8111 15.2345 91.9979L14.6116 92.4962C14.487 92.3094 14.2379 92.1225 13.9264 91.9357C13.6773 91.8111 13.2413 91.6242 12.743 91.6242C12.6184 91.6242 12.5561 91.6242 12.4938 91.6242C12.4316 91.6242 12.3693 91.6865 12.307 91.7488L8.88121 95.1123L8.56978 94.2403Z" fill="#B90303"/>
<path d="M1.22009 61.7263L7.94708 62.0377L7.88479 62.9097L1.90525 62.5983L1.78069 65.7126L7.76021 66.024L7.69793 66.8961L0.970947 66.5846L1.22009 61.7263Z" fill="#B90303"/>
<path d="M5.95392 59.9201C7.13737 60.0447 7.69795 59.3595 7.82253 58.4875C7.88482 57.8647 7.88481 57.4909 7.76024 57.1172L8.38311 57.0549C8.50768 57.3664 8.56997 57.9269 8.4454 58.6744C8.25854 60.1693 7.13738 60.8544 5.70478 60.6676C4.27218 60.4807 3.27559 59.4841 3.46245 58.0515C3.7116 56.4944 5.08191 56.2452 6.01621 56.3698C6.20308 56.3698 6.32765 56.4321 6.38994 56.4321L5.95392 59.9201ZM5.70478 57.2418C5.1442 57.1795 4.27218 57.2418 4.14761 58.2384C4.02304 59.1104 4.77048 59.6087 5.39335 59.7956L5.70478 57.2418Z" fill="#B90303"/>
<path d="M5.64286 55.1864C5.02 55.0618 4.5217 54.9372 4.08569 54.875L4.27257 54.1275L5.08229 54.2521C4.58399 53.7538 4.39714 53.1309 4.584 52.3835C4.83315 51.2623 6.01658 50.6395 7.44918 50.9509C9.13092 51.3246 9.7538 52.5703 9.50465 53.6915C9.38008 54.3144 8.94406 54.8127 8.44577 54.9995L10.9995 55.5601L10.8127 56.4321L5.64286 55.1864ZM7.07547 54.6258C7.20005 54.6258 7.3246 54.6881 7.44918 54.6881C8.07205 54.6881 8.63263 54.2521 8.7572 53.6292C8.94406 52.6949 8.3212 52.0098 7.26232 51.7606C6.32802 51.5738 5.39373 51.8229 5.20687 52.7572C5.08229 53.3178 5.39372 54.0029 5.9543 54.3144C6.07887 54.3767 6.20344 54.4389 6.26573 54.4389L7.07547 54.6258Z" fill="#B90303"/>
<path d="M8.13463 49.3934C9.25579 49.7671 9.94094 49.1442 10.2524 48.3345C10.4392 47.7116 10.4393 47.3379 10.4393 46.9642L11.0621 47.0265C11.1244 47.3379 11.0621 47.8985 10.8752 48.6459C10.4392 50.0785 9.19351 50.5768 7.8232 50.1408C6.45289 49.7048 5.58088 48.5214 6.01688 47.2133C6.51518 45.7185 7.94777 45.7185 8.81979 46.0299C9.00665 46.0922 9.13123 46.1545 9.19351 46.1545L8.13463 49.3934ZM8.3215 46.715C7.82321 46.5282 6.8889 46.4659 6.57746 47.4625C6.32831 48.3345 6.95118 48.9574 7.51176 49.2065L8.3215 46.715Z" fill="#B90303"/>
<path d="M5.95447 42.044C6.39047 42.1685 6.76419 42.1062 6.88877 41.7325C7.07563 41.3588 6.82649 41.0474 6.45277 40.7982L6.70191 40.2376C7.44936 40.6114 7.63622 41.2342 7.32478 41.9194C7.01335 42.7291 6.32819 42.8537 5.70532 42.6045L5.95447 42.044ZM7.51164 43.2897L9.38024 44.0994C10.0654 44.4109 10.5014 44.5977 11.1243 44.9092C10.6883 44.4109 10.4391 44.0994 10.0654 43.6011L8.32138 41.2342L8.69508 40.2999L13.1174 42.1685L12.806 42.916L10.9374 42.1062C10.19 41.7948 9.81625 41.608 9.1311 41.2965C9.5671 41.7948 9.87855 42.1685 10.19 42.6045C10.6883 43.2897 11.3734 44.1617 11.934 44.9714L11.5603 45.9057L7.13791 44.0371L7.51164 43.2897Z" fill="#B90303"/>
<path d="M10.9994 35.8772L11.6223 36.1887L10.9371 37.4967L14.612 39.3653L14.2383 40.1127L10.5634 38.2441L9.87824 39.5522L9.25537 39.2407L10.9994 35.8772Z" fill="#B90303"/>
<path d="M11.9338 34.3199L13.6778 35.3788C14.363 35.7525 14.7367 36.064 15.2973 36.4377C14.9235 35.8771 14.7367 35.5657 14.4253 35.0051L13.1172 32.389L13.6778 31.517L17.7887 34.0085L17.3527 34.6936L15.6087 33.6348C14.9235 33.1988 14.6121 33.0119 13.927 32.5759C14.3007 33.1365 14.4875 33.5725 14.799 34.0085C15.1727 34.8182 15.7333 35.7525 16.1693 36.6245L15.671 37.4965L11.5601 35.0051L11.9338 34.3199Z" fill="#B90303"/>
<path d="M16.4187 27.6556L18.0382 28.9636L18.1627 28.7768L17.6645 26.0362L18.3496 25.2264L18.7856 28.2162C19.3462 27.6556 20.0313 27.5933 20.9656 27.8425C21.2771 27.9671 21.7754 28.0916 22.2114 28.1539L21.6508 28.9014C21.4017 28.9014 21.0279 28.7768 20.5919 28.6522C19.7822 28.4031 19.2216 28.5899 18.7233 29.2128L18.5988 29.3374L20.2805 30.6454L19.7199 31.3305L15.9204 28.3408L16.4187 27.6556Z" fill="#B90303"/>
<path d="M22.8344 20.4304L23.3327 20.9287L22.2738 21.9876L25.2635 24.8528L24.6407 25.4757L21.6509 22.6105L20.592 23.6693L20.0938 23.171L22.8344 20.4304Z" fill="#B90303"/>
<path d="M28.2522 18.7485C29.4357 20.0566 29.062 21.4892 28.1899 22.2366C27.1934 23.1086 25.823 23.0463 24.8265 21.9252C23.7676 20.7417 23.8921 19.3091 24.8887 18.4371C25.9476 17.5028 27.3179 17.6274 28.2522 18.7485ZM25.4493 21.3023C26.1345 22.112 27.1311 22.2989 27.7539 21.7383C28.3768 21.1777 28.3145 20.1811 27.6294 19.3714C27.0688 18.7485 26.0722 18.2503 25.3247 18.9354C24.515 19.6206 24.8265 20.6172 25.4493 21.3023Z" fill="#B90303"/>
<path d="M27.8167 16.1322C28.0658 15.883 28.5018 15.447 29.0001 15.1356C29.623 14.6373 30.8064 13.9521 31.4293 14.8241C31.803 15.3224 31.6161 15.883 31.3047 16.319C31.9276 15.9453 32.6127 16.0076 32.9864 16.5682C33.7339 17.5648 32.5504 18.6859 31.803 19.2465C31.367 19.5579 30.931 19.8694 30.6818 19.9939L27.8167 16.1322ZM29.623 17.2533L30.1213 16.8796C30.6196 16.5059 31.0556 15.9453 30.7441 15.5093C30.4327 15.1356 29.9967 15.1979 29.3115 15.6962C29.0624 15.883 28.9378 16.0076 28.8132 16.1322L29.623 17.2533ZM30.9933 18.9974C31.1801 18.8728 31.367 18.7482 31.5539 18.6236C32.0522 18.2499 32.6127 17.627 32.239 17.0665C31.803 16.5059 31.1801 16.8173 30.495 17.3156L29.9967 17.6893L30.9933 18.9974Z" fill="#B90303"/>
<path d="M36.8485 15.6342L36.4748 15.1359C36.4748 15.5719 36.2256 16.1325 35.6028 16.5062C34.793 17.0045 33.9833 16.6931 33.6096 16.1325C32.9867 15.1359 33.5473 14.077 35.1045 13.0804L35.0422 13.0181C34.8553 12.7067 34.357 12.1461 33.5473 12.6444C33.1736 12.8936 32.8621 13.2673 32.6753 13.641L32.177 13.2673C32.3639 12.8313 32.7999 12.3953 33.2982 12.0838C34.5439 11.2741 35.4159 11.9593 35.9142 12.769L36.9108 14.2639C37.16 14.6376 37.3468 14.949 37.596 15.1982L36.8485 15.6342ZM35.4159 13.641C34.6062 14.1393 33.7965 14.8867 34.2947 15.6342C34.6062 16.1325 35.0422 16.1325 35.4159 15.8833C35.9765 15.5719 36.0388 15.0113 35.9765 14.5753C35.9765 14.513 35.9142 14.3885 35.8519 14.3262L35.4159 13.641Z" fill="#B90303"/>
<path d="M37.0355 11.71C36.7241 11.1494 36.4749 10.7134 36.2881 10.3397L36.9732 9.96594L37.4092 10.6511C37.4715 9.96594 37.783 9.40536 38.4681 9.03163C39.527 8.47105 40.7104 8.96935 41.3956 10.2774C42.2053 11.8345 41.6448 13.0803 40.6482 13.5786C40.0876 13.89 39.4647 13.89 38.9664 13.5786L40.2121 15.8832L39.4647 16.2569L37.0355 11.71ZM38.4058 12.4574C38.4681 12.582 38.5304 12.6443 38.5927 12.7688C39.0287 13.2049 39.6516 13.3294 40.2121 13.0803C41.0219 12.6443 41.1465 11.71 40.6482 10.7757C40.2122 9.90365 39.3401 9.40536 38.5304 9.84136C37.9698 10.0905 37.7207 10.7757 37.8453 11.3985C37.8453 11.5231 37.9075 11.6477 37.9698 11.7723L38.4058 12.4574Z" fill="#B90303"/>
<path d="M41.8312 7.59916L43.8867 9.84149C44.1358 10.0906 44.385 10.4021 44.5719 10.6512C44.5719 10.3398 44.5096 9.96606 44.4473 9.59234L44.1981 6.60257L45.0702 6.22885L45.1947 9.90377C45.257 11.6478 45.1947 12.6444 44.821 13.3295C44.5719 13.8278 44.2604 14.1393 44.0736 14.2638L43.5753 13.641C43.7621 13.5164 43.949 13.2673 44.1359 12.9558C44.2604 12.7067 44.4473 12.2707 44.4473 11.7724C44.4473 11.6478 44.4473 11.5855 44.4473 11.5232C44.4473 11.4609 44.385 11.3987 44.3227 11.3364L40.9592 7.91059L41.8312 7.59916Z" fill="#B90303"/>
</svg>
