<svg width="136" height="136" viewBox="0 0 136 136" fill="none" xmlns="http://www.w3.org/2000/svg">
<circle cx="66.9924" cy="66.9928" r="49.2824" fill="#F1F1F1" stroke="#FC0000" stroke-width="0.5"/>
<path d="M55.7236 56.9623H76.7749V78.0136" stroke="#FC0000" stroke-width="5"/>
<path d="M55.7236 78.0136L76.7749 56.9623" stroke="#FC0000" stroke-width="5"/>
<path d="M73.3737 0.249208L73.0622 6.97618L72.1902 6.9139L72.5016 0.934363L69.3873 0.80979L69.0759 6.78932L68.2039 6.72704L68.5776 6.10352e-05L73.3737 0.249208Z" fill="#FC0000"/>
<path d="M75.2424 4.92081C75.1178 6.10426 75.803 6.66484 76.675 6.78942C77.2979 6.8517 77.6716 6.8517 78.0453 6.72713L78.1076 7.35C77.7961 7.47457 77.2356 7.53686 76.4881 7.41228C74.9933 7.22542 74.3081 6.10426 74.495 4.67167C74.6818 3.23907 75.6784 2.24248 77.111 2.42934C78.6682 2.67849 78.9173 4.0488 78.7927 4.9831C78.7927 5.16996 78.7304 5.29453 78.7304 5.35682L75.2424 4.92081ZM77.8584 4.67167C77.9207 4.11108 77.8584 3.23907 76.8618 3.1145C75.9898 2.98992 75.4915 3.73736 75.3047 4.36023L77.8584 4.67167Z" fill="#FC0000"/>
<path d="M79.9757 4.67173C80.1003 4.04887 80.2249 3.55057 80.2872 3.11456L81.0346 3.30142L80.91 4.11115C81.4083 3.61286 82.0312 3.426 82.7786 3.61286C83.8998 3.862 84.5227 5.04545 84.2112 6.47805C83.8375 8.15979 82.5918 8.78266 81.4706 8.53352C80.8477 8.40894 80.3494 7.97293 80.1626 7.47464L79.602 10.0284L78.73 9.84154L79.9757 4.67173ZM80.5363 6.10433C80.5363 6.2289 80.474 6.35348 80.474 6.47805C80.474 7.10092 80.91 7.6615 81.5329 7.78607C82.4672 7.97293 83.1523 7.35007 83.4015 6.29119C83.5884 5.35689 83.3392 4.42259 82.4049 4.23573C81.8443 4.11115 81.1592 4.42259 80.8477 4.98317C80.7855 5.10774 80.7232 5.23231 80.7232 5.2946L80.5363 6.10433Z" fill="#FC0000"/>
<path d="M85.7689 7.16323C85.3952 8.28439 86.0181 8.96955 86.8278 9.28098C87.4507 9.46784 87.8244 9.46784 88.1981 9.46784L88.1358 10.0907C87.8244 10.153 87.2638 10.0907 86.5164 9.90385C85.0838 9.46784 84.5855 8.22211 85.0215 6.8518C85.4575 5.48149 86.641 4.60947 87.949 5.04548C89.4439 5.54377 89.4439 6.97637 89.1324 7.84838C89.0701 8.03525 89.0079 8.15982 89.0079 8.22211L85.7689 7.16323ZM88.385 7.35009C88.5718 6.8518 88.6341 5.91749 87.6376 5.60606C86.7655 5.35691 86.1427 5.97978 85.8935 6.54036L88.385 7.35009Z" fill="#FC0000"/>
<path d="M91.8104 6.54008L91.0006 8.40869C90.6892 9.09384 90.5024 9.52985 90.1909 10.1527C90.6892 9.71671 91.0006 9.46756 91.4989 9.09384L93.8658 7.34981L94.8001 7.72353L92.9315 12.1459L92.1841 11.8345L92.9938 9.96586C93.3053 9.21842 93.4921 8.84469 93.8036 8.15954C93.3053 8.59555 92.9315 8.90698 92.4955 9.21842C91.8104 9.71671 90.9384 10.4019 90.1286 10.9624L89.1943 10.5887L91.0629 6.16636L91.8104 6.54008ZM93.1184 4.92063C92.9938 5.35663 93.0561 5.73035 93.4298 5.85493C93.8036 6.04179 94.115 5.79264 94.3641 5.41892L94.9247 5.66807C94.551 6.41551 93.9281 6.60237 93.243 6.29094C92.4332 5.9795 92.3087 5.29435 92.5578 4.67148L93.1184 4.92063Z" fill="#FC0000"/>
<path d="M99.2226 10.0282L98.9111 10.6511L97.6031 9.96595L95.7345 13.6409L94.9871 13.2672L96.8557 9.59223L95.5476 8.90708L95.8591 8.28421L99.2226 10.0282Z" fill="#FC0000"/>
<path d="M100.781 10.9002L99.7218 12.6442C99.348 13.3294 99.0366 13.7031 98.6629 14.2637C99.2234 13.8899 99.5349 13.7031 100.095 13.3917L102.712 12.0836L103.584 12.6442L101.092 16.7551L100.407 16.3191L101.466 14.5751C101.902 13.8899 102.089 13.5785 102.525 12.8934C101.964 13.2671 101.528 13.4539 101.092 13.7654C100.282 14.1391 99.348 14.6997 98.476 15.1357L97.604 14.6374L100.095 10.5265L100.781 10.9002Z" fill="#FC0000"/>
<path d="M107.444 15.4471L106.136 17.0666L106.323 17.1911L109.064 16.6929L109.874 17.378L106.884 17.814C107.444 18.3746 107.507 19.0598 107.258 19.9941C107.133 20.3055 107.008 20.8038 106.946 21.2398L106.199 20.6792C106.199 20.4301 106.323 20.0563 106.448 19.6203C106.697 18.8106 106.51 18.25 105.887 17.7517L105.763 17.6272L104.455 19.3089L103.77 18.7483L106.759 14.9488L107.444 15.4471Z" fill="#FC0000"/>
<path d="M114.67 21.8005L114.172 22.2988L113.113 21.2399L110.248 24.2297L109.625 23.6068L112.49 20.6171L111.431 19.5582L111.929 19.0599L114.67 21.8005Z" fill="#FC0000"/>
<path d="M116.414 27.282C115.106 28.4654 113.673 28.0917 112.926 27.2197C112.054 26.2231 112.116 24.8528 113.237 23.8562C114.421 22.7973 115.853 22.9219 116.725 23.9185C117.597 24.9151 117.473 26.2854 116.414 27.282ZM113.798 24.4791C112.988 25.1642 112.801 26.1608 113.362 26.7837C113.923 27.4066 114.919 27.3443 115.729 26.6591C116.352 26.0985 116.85 25.102 116.165 24.3545C115.48 23.5448 114.483 23.8562 113.798 24.4791Z" fill="#FC0000"/>
<path d="M118.968 26.7835C119.217 27.0326 119.653 27.4686 119.964 27.9669C120.463 28.5898 121.148 29.7732 120.276 30.3961C119.777 30.7698 119.217 30.583 118.781 30.2715C119.155 30.8944 119.092 31.5796 118.532 31.9533C117.535 32.7007 116.414 31.5173 115.853 30.7698C115.542 30.3338 115.231 29.8978 115.106 29.6487L118.968 26.7835ZM116.103 29.9601C116.227 30.147 116.352 30.3338 116.476 30.5207C116.85 31.019 117.473 31.5796 118.033 31.2058C118.594 30.7698 118.283 30.147 117.784 29.4618L117.411 28.9635L116.103 29.9601ZM117.909 28.6521L118.283 29.1504C118.656 29.6487 119.217 30.0847 119.653 29.7732C120.027 29.4618 119.964 29.0258 119.466 28.3406C119.279 28.0915 119.155 27.9669 119.03 27.8424L117.909 28.6521Z" fill="#FC0000"/>
<path d="M119.465 35.8774L119.964 35.5036C119.528 35.5036 118.967 35.2545 118.593 34.6316C118.095 33.8219 118.407 33.0122 118.967 32.6384C119.964 32.0156 121.023 32.5762 122.019 34.1333L122.081 34.071C122.393 33.8842 122.954 33.3859 122.455 32.5762C122.206 32.2024 121.832 31.891 121.459 31.7041L121.832 31.2058C122.268 31.3927 122.704 31.8287 123.016 32.327C123.826 33.5727 123.14 34.4448 122.331 34.943L120.836 35.9396C120.462 36.1888 120.151 36.3756 119.901 36.6248L119.465 35.8774ZM121.459 34.4448C120.96 33.635 120.213 32.8253 119.465 33.3236C118.967 33.635 118.967 34.071 119.216 34.4448C119.528 35.0053 120.088 35.0676 120.524 35.0053C120.587 35.0053 120.711 34.9431 120.773 34.8808L121.459 34.4448Z" fill="#FC0000"/>
<path d="M123.39 36.0643C123.95 35.7529 124.386 35.5038 124.76 35.3169L125.134 36.002L124.449 36.4381C125.134 36.5003 125.694 36.8118 126.068 37.4969C126.629 38.5558 126.13 39.7393 124.822 40.4244C123.265 41.2341 122.019 40.6736 121.521 39.677C121.21 39.1164 121.21 38.4935 121.521 37.9952L119.216 39.241L118.843 38.4935L123.39 36.0643ZM122.642 37.4346C122.518 37.4969 122.455 37.5592 122.331 37.6215C121.895 38.0575 121.77 38.6804 122.019 39.241C122.455 40.0507 123.39 40.1753 124.324 39.677C125.196 39.241 125.694 38.3689 125.258 37.5592C125.009 36.9986 124.324 36.7495 123.701 36.8741C123.577 36.8741 123.452 36.9364 123.327 36.9986L122.642 37.4346Z" fill="#FC0000"/>
<path d="M127.501 40.7978L125.259 42.8532C125.01 43.1024 124.698 43.3515 124.449 43.5384C124.76 43.5384 125.134 43.4761 125.508 43.4138L128.498 43.1647L128.871 44.0367L125.259 44.2235C123.515 44.2858 122.518 44.2235 121.833 43.8498C121.335 43.6007 121.023 43.2892 120.899 43.1024L121.522 42.6041C121.646 42.7909 121.895 42.9778 122.207 43.1647C122.456 43.2892 122.892 43.4761 123.39 43.4761C123.515 43.4761 123.577 43.4761 123.639 43.4761C123.702 43.4761 123.764 43.4138 123.826 43.3515L127.252 39.988L127.501 40.7978Z" fill="#FC0000"/>
<path d="M134.851 73.3741L128.124 73.0627L128.187 72.1907L134.166 72.5021L134.291 69.3878L128.311 69.0763L128.373 68.2043L135.1 68.5157L134.851 73.3741Z" fill="#FC0000"/>
<path d="M130.18 75.1804C128.996 75.0558 128.436 75.741 128.311 76.613C128.249 77.2359 128.249 77.6096 128.373 77.9833L127.751 78.0456C127.626 77.7342 127.564 77.1736 127.688 76.4261C127.875 74.9312 128.996 74.2461 130.429 74.433C131.861 74.6198 132.858 75.6164 132.671 77.049C132.422 78.6062 131.052 78.8553 130.117 78.7307C129.931 78.7307 129.806 78.6685 129.744 78.6685L130.18 75.1804ZM130.429 77.7964C130.989 77.8587 131.861 77.7964 131.986 76.7999C132.111 75.9278 131.363 75.4295 130.74 75.2427L130.429 77.7964Z" fill="#FC0000"/>
<path d="M130.429 79.9142C131.052 80.0388 131.55 80.1634 131.986 80.2257L131.799 80.9731L130.99 80.8485C131.488 81.3468 131.675 81.9697 131.488 82.7171C131.239 83.8383 130.055 84.4612 128.623 84.1497C126.941 83.776 126.318 82.5303 126.567 81.4091C126.692 80.7862 127.128 80.2879 127.626 80.1011L125.073 79.5405L125.259 78.6685L130.429 79.9142ZM128.997 80.4748C128.872 80.4748 128.747 80.4125 128.623 80.4125C128 80.4125 127.439 80.8485 127.315 81.4714C127.128 82.4057 127.751 83.0909 128.81 83.34C129.744 83.5269 130.678 83.2154 130.865 82.3434C130.99 81.7828 130.678 81.0977 130.118 80.7862C129.993 80.7239 129.869 80.6617 129.806 80.6617L128.997 80.4748Z" fill="#FC0000"/>
<path d="M128 85.7067C126.879 85.3329 126.194 85.9558 125.882 86.7655C125.696 87.3884 125.696 87.7621 125.696 88.1358L125.073 88.0736C125.01 87.7621 125.073 87.2015 125.26 86.4541C125.696 85.0215 126.941 84.5232 128.312 84.9592C129.682 85.3952 130.554 86.5787 130.118 87.8867C129.62 89.3816 128.187 89.3816 127.315 89.0701C127.128 89.0079 127.004 88.9456 126.941 88.9456L128 85.7067ZM127.751 88.385C128.249 88.5718 129.184 88.6341 129.495 87.6375C129.744 86.7655 129.121 86.1427 128.561 85.8935L127.751 88.385Z" fill="#FC0000"/>
<path d="M128.561 91.8109L126.692 91.0011C126.007 90.6897 125.571 90.5028 124.948 90.1914C125.384 90.6897 125.633 91.0011 126.007 91.4994L127.751 93.8663L127.377 94.8006L122.955 92.932L123.266 92.1846L125.135 92.9943C125.882 93.3057 126.256 93.4926 126.941 93.804C126.505 93.3057 126.194 92.932 125.882 92.496C125.384 91.8109 124.699 90.9388 124.138 90.1291L124.512 89.1948L128.934 91.0634L128.561 91.8109ZM130.18 93.0566C129.744 92.932 129.37 92.9943 129.246 93.368C129.059 93.7417 129.308 94.0532 129.682 94.3023L129.433 94.8629C128.685 94.4892 128.498 93.8663 128.81 93.1812C129.121 92.3714 129.806 92.2469 130.429 92.496L130.18 93.0566Z" fill="#FC0000"/>
<path d="M125.072 99.1606L124.449 98.8492L125.134 97.5412L121.459 95.6726L121.833 94.9251L125.508 96.7937L126.193 95.4857L126.816 95.7971L125.072 99.1606Z" fill="#FC0000"/>
<path d="M124.2 100.78L122.456 99.7213C121.771 99.3476 121.397 99.0361 120.837 98.6624C121.21 99.223 121.397 99.5344 121.709 100.095L123.017 102.711L122.456 103.583L118.345 101.092L118.781 100.406L120.525 101.465C121.21 101.901 121.522 102.088 122.207 102.524C121.833 101.964 121.646 101.528 121.335 101.092C120.961 100.282 120.401 99.3476 119.965 98.4756L120.463 97.6035L124.574 100.095L124.2 100.78Z" fill="#FC0000"/>
<path d="M119.653 107.445L118.034 106.137L117.909 106.324L118.407 109.065L117.722 109.875L117.286 106.885C116.726 107.445 116.04 107.508 115.106 107.258C114.795 107.134 114.296 107.009 113.86 106.947L114.421 106.2C114.67 106.2 115.044 106.324 115.48 106.449C116.29 106.698 116.85 106.511 117.348 105.888L117.473 105.764L115.791 104.456L116.352 103.77L120.151 106.76L119.653 107.445Z" fill="#FC0000"/>
<path d="M113.3 114.608L112.802 114.109L113.86 113.051L110.871 110.185L111.493 109.562L114.483 112.428L115.542 111.369L116.04 111.867L113.3 114.608Z" fill="#FC0000"/>
<path d="M107.818 116.352C106.635 115.044 107.009 113.611 107.881 112.864C108.877 111.992 110.248 112.054 111.244 113.175C112.303 114.359 112.179 115.791 111.182 116.663C110.185 117.598 108.815 117.473 107.818 116.352ZM110.684 113.798C109.999 112.989 109.002 112.802 108.379 113.362C107.756 113.923 107.818 114.919 108.504 115.729C109.064 116.352 110.061 116.85 110.808 116.165C111.556 115.48 111.307 114.483 110.684 113.798Z" fill="#FC0000"/>
<path d="M108.317 118.906C108.068 119.155 107.632 119.591 107.134 119.902C106.511 120.401 105.328 121.086 104.705 120.214C104.331 119.716 104.518 119.155 104.829 118.719C104.207 119.093 103.521 119.03 103.148 118.47C102.4 117.473 103.584 116.352 104.331 115.791C104.767 115.48 105.203 115.169 105.452 115.044L108.317 118.906ZM105.141 116.103C104.954 116.227 104.767 116.352 104.58 116.477C104.082 116.85 103.521 117.473 103.895 118.034C104.331 118.594 104.954 118.283 105.639 117.785L106.137 117.411L105.141 116.103ZM106.449 117.847L105.951 118.221C105.452 118.594 105.016 119.155 105.328 119.591C105.639 119.965 106.075 119.902 106.76 119.404C107.009 119.217 107.134 119.093 107.259 118.968L106.449 117.847Z" fill="#FC0000"/>
<path d="M99.2858 119.466L99.6595 119.965C99.6595 119.529 99.9086 118.968 100.531 118.594C101.341 118.096 102.151 118.407 102.525 118.968C103.148 119.965 102.587 121.024 101.03 122.02L101.092 122.082C101.279 122.394 101.777 122.954 102.587 122.456C102.961 122.207 103.272 121.833 103.459 121.46L103.957 121.833C103.77 122.269 103.334 122.705 102.836 123.017C101.59 123.826 100.718 123.141 100.22 122.332L99.2235 120.837C98.9743 120.463 98.7875 120.152 98.5383 119.902L99.2858 119.466ZM100.718 121.46C101.528 120.961 102.338 120.214 101.84 119.466C101.528 118.968 101.092 118.968 100.718 119.217C100.158 119.529 100.096 120.089 100.158 120.525C100.158 120.588 100.22 120.712 100.282 120.774L100.718 121.46Z" fill="#FC0000"/>
<path d="M99.0987 123.328C99.4101 123.888 99.6593 124.324 99.8462 124.698L99.161 125.072L98.725 124.387C98.6627 125.072 98.3513 125.632 97.6661 126.006C96.6072 126.567 95.4238 126.068 94.7386 124.76C93.9289 123.203 94.4895 121.957 95.4861 121.459C96.0467 121.148 96.6695 121.148 97.1678 121.459L95.9221 119.155L96.6695 118.781L99.0987 123.328ZM97.7284 122.643C97.6661 122.518 97.6038 122.456 97.5415 122.331C97.1055 121.895 96.4827 121.771 95.9221 122.02C95.1124 122.456 94.9878 123.39 95.4861 124.324C95.9221 125.196 96.7941 125.695 97.6038 125.259C98.1644 125.01 98.4136 124.324 98.289 123.702C98.289 123.577 98.2267 123.452 98.1644 123.328L97.7284 122.643Z" fill="#FC0000"/>
<path d="M94.3025 127.501L92.247 125.259C91.9979 125.01 91.7487 124.698 91.5619 124.449C91.5619 124.761 91.6242 125.134 91.6865 125.508L91.9356 128.498L91.0636 128.872L90.939 125.197C90.8767 123.453 90.939 122.456 91.3127 121.771C91.5619 121.273 91.8733 120.961 92.0602 120.837L92.5585 121.46C92.3716 121.584 92.1848 121.833 91.9979 122.145C91.8733 122.394 91.6865 122.83 91.6865 123.328C91.6865 123.453 91.6865 123.515 91.6865 123.577C91.6865 123.64 91.7487 123.702 91.811 123.764L95.1745 127.19L94.3025 127.501Z" fill="#FC0000"/>
<path d="M61.7261 134.852L62.0375 128.125L62.9095 128.187L62.5981 134.166L65.7124 134.291L66.0239 128.311L66.8959 128.374L66.5844 135.101L61.7261 134.852Z" fill="#FC0000"/>
<path d="M59.9199 130.118C60.0445 128.934 59.3593 128.374 58.4873 128.249C57.8645 128.187 57.4908 128.187 57.117 128.311L57.0547 127.688C57.3662 127.564 57.9268 127.502 58.6742 127.626C60.1691 127.813 60.8542 128.934 60.6674 130.367C60.4805 131.799 59.4839 132.796 58.0513 132.609C56.4942 132.36 56.245 130.927 56.3696 130.055C56.3696 129.869 56.4319 129.744 56.4319 129.682L59.9199 130.118ZM57.3039 130.429C57.2416 130.99 57.3039 131.862 58.3005 131.986C59.1725 132.111 59.6708 131.363 59.8576 130.741L57.3039 130.429Z" fill="#FC0000"/>
<path d="M55.1859 130.429C55.0613 131.052 54.9367 131.55 54.8744 131.986L54.127 131.799L54.2516 130.99C53.7533 131.488 53.1304 131.675 52.383 131.488C51.2618 131.239 50.6389 130.055 50.9504 128.623C51.3241 126.941 52.5698 126.318 53.691 126.567C54.3139 126.692 54.8121 127.128 54.999 127.626L55.5596 125.072L56.4316 125.259L55.1859 130.429ZM54.6253 128.996C54.6253 128.872 54.6876 128.747 54.6876 128.623C54.6876 128 54.2516 127.439 53.6287 127.315C52.6944 127.128 52.0092 127.751 51.7601 128.809C51.5732 129.744 51.8224 130.678 52.7567 130.865C53.3173 130.99 54.0024 130.678 54.3139 130.118C54.3761 129.993 54.4384 129.868 54.4384 129.806L54.6253 128.996Z" fill="#FC0000"/>
<path d="M49.3931 127.937C49.7668 126.816 49.1439 126.131 48.3342 125.82C47.7114 125.633 47.3376 125.633 46.9639 125.633L47.0262 125.01C47.3376 124.948 47.8982 125.01 48.6457 125.197C50.0783 125.633 50.5765 126.879 50.1405 128.249C49.7045 129.619 48.5211 130.491 47.2131 130.055C45.7182 129.557 45.7182 128.124 46.0296 127.252C46.0919 127.065 46.1542 126.941 46.1542 126.879L49.3931 127.937ZM46.7771 127.751C46.5902 128.249 46.5279 129.183 47.5245 129.495C48.3965 129.744 49.0194 129.121 49.2685 128.56L46.7771 127.751Z" fill="#FC0000"/>
<path d="M42.0436 130.117C42.1682 129.681 42.1059 129.308 41.7322 129.183C41.3585 128.996 41.047 129.245 40.7979 129.619L40.2373 129.37C40.611 128.623 41.2339 128.436 41.9191 128.747C42.7288 129.059 42.8533 129.744 42.6042 130.367L42.0436 130.117ZM43.3516 128.56L44.1614 126.692C44.4728 126.007 44.6597 125.571 44.9711 124.948C44.4728 125.384 44.1614 125.633 43.6631 126.007L41.2962 127.751L40.3619 127.377L42.2305 122.955L42.9779 123.266L42.1682 125.135C41.8568 125.882 41.6699 126.256 41.3585 126.941C41.8568 126.505 42.2305 126.193 42.6665 125.882C43.3516 125.384 44.2237 124.699 45.0334 124.138L45.9677 124.512L44.0991 128.934L43.3516 128.56Z" fill="#FC0000"/>
<path d="M35.9399 125.072L36.2514 124.449L37.5594 125.134L39.428 121.46L40.1754 121.833L38.3068 125.508L39.6149 126.193L39.3034 126.816L35.9399 125.072Z" fill="#FC0000"/>
<path d="M34.3823 124.138L35.4411 122.394C35.8148 121.771 36.1263 121.335 36.5 120.774C35.9394 121.148 35.628 121.335 35.0674 121.646L32.4514 122.954L31.5793 122.394L34.0708 118.283L34.756 118.719L33.6971 120.463C33.2611 121.148 33.0742 121.46 32.6382 122.145C33.1988 121.771 33.6348 121.584 34.0708 121.273C34.8805 120.899 35.8148 120.338 36.6869 119.902L37.5589 120.401L35.0674 124.512L34.3823 124.138Z" fill="#FC0000"/>
<path d="M27.6548 119.654L28.9628 118.034L28.7759 117.91L26.0353 118.408L25.2256 117.723L28.2154 117.287C27.6548 116.726 27.5925 116.041 27.8416 115.107C27.9662 114.795 28.0908 114.297 28.1531 113.861L28.9005 114.422C28.9005 114.671 28.7759 115.044 28.6514 115.48C28.4022 116.29 28.5891 116.851 29.2119 117.349L29.3365 117.474L30.6445 115.792L31.3297 116.352L28.3399 120.152L27.6548 119.654Z" fill="#FC0000"/>
<path d="M20.4919 113.3L20.9902 112.802L22.0491 113.86L24.9143 110.871L25.5372 111.494L22.672 114.483L23.7309 115.542L23.2326 116.041L20.4919 113.3Z" fill="#FC0000"/>
<path d="M18.7479 107.819C20.0559 106.635 21.4885 107.009 22.236 107.881C23.108 108.878 23.0457 110.248 21.9246 111.245C20.7411 112.303 19.3085 112.179 18.4365 111.182C17.5022 110.186 17.6268 108.815 18.7479 107.819ZM21.3017 110.622C22.1114 109.937 22.2983 108.94 21.7377 108.317C21.1771 107.694 20.1805 107.756 19.3708 108.442C18.7479 109.002 18.2496 109.999 18.9348 110.746C19.6199 111.556 20.6165 111.245 21.3017 110.622Z" fill="#FC0000"/>
<path d="M16.1947 108.317C15.9455 108.068 15.5095 107.632 15.1981 107.134C14.6998 106.511 14.0146 105.327 14.8867 104.704C15.3849 104.331 15.9455 104.517 16.3816 104.829C16.0078 104.206 16.0701 103.521 16.6307 103.147C17.6273 102.4 18.7484 103.583 19.309 104.331C19.6205 104.767 19.9319 105.203 20.0565 105.452L16.1947 108.317ZM17.2536 106.448L16.8798 105.95C16.5061 105.452 15.9455 105.016 15.5095 105.327C15.1358 105.639 15.1981 106.075 15.6964 106.76C15.8833 107.009 16.0078 107.134 16.1324 107.258L17.2536 106.448ZM19.0599 105.14C18.9353 104.953 18.8107 104.767 18.6862 104.58C18.3124 104.081 17.6896 103.521 17.129 103.895C16.5684 104.331 16.8798 104.953 17.3781 105.639L17.7518 106.137L19.0599 105.14Z" fill="#FC0000"/>
<path d="M15.6961 99.2232L15.1978 99.5969C15.6338 99.5969 16.1944 99.8461 16.5681 100.469C17.0664 101.279 16.755 102.088 16.1944 102.462C15.1978 103.085 14.1389 102.524 13.1424 100.967L13.0801 101.03C12.7686 101.216 12.208 101.715 12.7063 102.524C12.9555 102.898 13.3292 103.21 13.7029 103.396L13.3292 103.895C12.8932 103.708 12.4572 103.272 12.1458 102.774C11.336 101.528 12.0212 100.656 12.8309 100.158L14.3258 99.1609C14.6995 98.9118 15.011 98.7249 15.2601 98.4758L15.6961 99.2232ZM13.6406 100.656C14.1389 101.466 14.8864 102.275 15.6338 101.777C16.1321 101.466 16.1321 101.03 15.883 100.656C15.5715 100.095 15.0109 100.033 14.5749 100.095C14.5127 100.095 14.3881 100.158 14.3258 100.22L13.6406 100.656Z" fill="#FC0000"/>
<path d="M11.7715 99.0363C11.2109 99.3478 10.7749 99.5969 10.4012 99.7838L10.0275 99.0986L10.7126 98.6626C10.0275 98.6003 9.46688 98.2889 9.09316 97.6037C8.53258 96.5448 9.03087 95.3614 10.3389 94.6762C11.8961 93.8665 13.1418 94.4271 13.6401 95.4237C13.9515 95.9843 13.9515 96.6071 13.6401 97.1054L15.9447 95.8597L16.3184 96.6071L11.7715 99.0363ZM12.5189 97.666C12.6435 97.6037 12.7058 97.5414 12.8304 97.4792C13.2664 97.0431 13.3909 96.4203 13.1418 95.8597C12.7058 95.05 11.7715 94.9254 10.8372 95.4237C9.96517 95.8597 9.46687 96.7317 9.90288 97.5414C10.152 98.102 10.8372 98.3512 11.46 98.2266C11.5846 98.2266 11.7092 98.1643 11.8338 98.102L12.5189 97.666Z" fill="#FC0000"/>
<path d="M7.59859 94.2403L9.84092 92.1848C10.0901 91.9356 10.4015 91.6865 10.6506 91.4996C10.3392 91.4996 9.96548 91.5619 9.59176 91.6242L6.602 91.8734L6.22827 91.0014L9.90319 90.8768C11.6472 90.8145 12.6438 90.8768 13.329 91.2505C13.8273 91.4996 14.1387 91.8111 14.2633 91.9979L13.6404 92.4962C13.5158 92.3094 13.2667 92.1225 12.9553 91.9357C12.7061 91.8111 12.2701 91.6242 11.7718 91.6242C11.6472 91.6242 11.5849 91.6242 11.5227 91.6242C11.4604 91.6242 11.3981 91.6865 11.3358 91.7488L7.91002 95.1123L7.59859 94.2403Z" fill="#FC0000"/>
<path d="M0.248899 61.7263L6.97589 62.0377L6.9136 62.9097L0.934058 62.5983L0.809496 65.7126L6.78901 66.024L6.72674 66.8961L-0.000244141 66.5846L0.248899 61.7263Z" fill="#FC0000"/>
<path d="M4.98273 59.9201C6.16618 60.0447 6.72676 59.3595 6.85134 58.4875C6.91362 57.8647 6.91362 57.4909 6.78905 57.1172L7.41191 57.0549C7.53649 57.3664 7.59878 57.9269 7.4742 58.6744C7.28734 60.1693 6.16619 60.8544 4.73359 60.6676C3.30099 60.4807 2.3044 59.4841 2.49126 58.0515C2.74041 56.4944 4.11072 56.2452 5.04502 56.3698C5.23188 56.3698 5.35646 56.4321 5.41875 56.4321L4.98273 59.9201ZM4.73359 57.2418C4.17301 57.1795 3.30099 57.2418 3.17642 58.2384C3.05185 59.1104 3.79929 59.6087 4.42216 59.7956L4.73359 57.2418Z" fill="#FC0000"/>
<path d="M4.67167 55.1864C4.0488 55.0618 3.55051 54.9372 3.1145 54.875L3.30137 54.1275L4.11109 54.2521C3.6128 53.7538 3.42595 53.1309 3.61281 52.3835C3.86196 51.2623 5.04539 50.6395 6.47799 50.9509C8.15973 51.3246 8.78261 52.5703 8.53346 53.6915C8.40889 54.3144 7.97287 54.8127 7.47458 54.9995L10.0283 55.5601L9.84149 56.4321L4.67167 55.1864ZM6.10428 54.6258C6.22885 54.6258 6.35341 54.6881 6.47799 54.6881C7.10085 54.6881 7.66144 54.2521 7.78601 53.6292C7.97287 52.6949 7.35001 52.0098 6.29113 51.7606C5.35683 51.5738 4.42254 51.8229 4.23568 52.7572C4.1111 53.3178 4.42253 54.0029 4.98311 54.3144C5.10768 54.3767 5.23225 54.4389 5.29454 54.4389L6.10428 54.6258Z" fill="#FC0000"/>
<path d="M7.16344 49.3934C8.2846 49.7671 8.96975 49.1442 9.28119 48.3345C9.46805 47.7116 9.46806 47.3379 9.46806 46.9642L10.0909 47.0265C10.1532 47.3379 10.0909 47.8985 9.90406 48.6459C9.46805 50.0785 8.22232 50.5768 6.85201 50.1408C5.4817 49.7048 4.60968 48.5214 5.04569 47.2133C5.54399 45.7185 6.97658 45.7185 7.8486 46.0299C8.03546 46.0922 8.16004 46.1545 8.22232 46.1545L7.16344 49.3934ZM7.35031 46.715C6.85202 46.5282 5.9177 46.4659 5.60627 47.4625C5.35712 48.3345 5.97999 48.9574 6.54057 49.2065L7.35031 46.715Z" fill="#FC0000"/>
<path d="M4.98327 42.044C5.41928 42.1685 5.793 42.1062 5.91758 41.7325C6.10444 41.3588 5.8553 41.0474 5.48158 40.7982L5.73072 40.2376C6.47817 40.6114 6.66503 41.2342 6.35359 41.9194C6.04216 42.7291 5.357 42.8537 4.73413 42.6045L4.98327 42.044ZM6.54044 43.2897L8.40905 44.0994C9.0942 44.4109 9.53022 44.5977 10.1531 44.9092C9.71708 44.4109 9.46793 44.0994 9.09421 43.6011L7.35018 41.2342L7.72389 40.2999L12.1463 42.1685L11.8348 42.916L9.96622 42.1062C9.21878 41.7948 8.84506 41.608 8.1599 41.2965C8.59591 41.7948 8.90735 42.1685 9.21879 42.6045C9.71708 43.2897 10.4022 44.1617 10.9628 44.9714L10.5891 45.9057L6.16672 44.0371L6.54044 43.2897Z" fill="#FC0000"/>
<path d="M10.0282 35.8772L10.6511 36.1887L9.96591 37.4967L13.6408 39.3653L13.2671 40.1127L9.59219 38.2441L8.90705 39.5522L8.28418 39.2407L10.0282 35.8772Z" fill="#FC0000"/>
<path d="M10.9626 34.3199L12.7066 35.3788C13.3918 35.7525 13.7655 36.064 14.3261 36.4377C13.9524 35.8771 13.7655 35.5657 13.4541 35.0051L12.146 32.389L12.7066 31.517L16.8175 34.0085L16.3816 34.6936L14.6375 33.6348C13.9524 33.1988 13.6409 33.0119 12.9558 32.5759C13.3295 33.1365 13.5164 33.5725 13.8278 34.0085C14.2015 34.8182 14.7621 35.7525 15.1981 36.6245L14.6998 37.4965L10.5889 35.0051L10.9626 34.3199Z" fill="#FC0000"/>
<path d="M15.4475 27.6556L17.067 28.9636L17.1915 28.7768L16.6933 26.0362L17.3784 25.2264L17.8144 28.2162C18.375 27.6556 19.0602 27.5933 19.9945 27.8425C20.3059 27.9671 20.8042 28.0916 21.2402 28.1539L20.6796 28.9014C20.4305 28.9014 20.0567 28.7768 19.6207 28.6522C18.811 28.4031 18.2504 28.5899 17.7521 29.2128L17.6276 29.3374L19.3093 30.6454L18.7487 31.3305L14.9492 28.3408L15.4475 27.6556Z" fill="#FC0000"/>
<path d="M21.8632 20.4304L22.3615 20.9287L21.3026 21.9876L24.2924 24.8528L23.6695 25.4757L20.6797 22.6105L19.6208 23.6693L19.1226 23.171L21.8632 20.4304Z" fill="#FC0000"/>
<path d="M27.281 18.7485C28.4645 20.0566 28.0908 21.4892 27.2187 22.2366C26.2222 23.1086 24.8519 23.0463 23.8553 21.9252C22.7964 20.7417 22.9209 19.3091 23.9175 18.4371C24.9764 17.5028 26.3467 17.6274 27.281 18.7485ZM24.4781 21.3023C25.1633 22.112 26.1599 22.2989 26.7827 21.7383C27.4056 21.1777 27.3433 20.1811 26.6582 19.3714C26.0976 18.7485 25.101 18.2503 24.3536 18.9354C23.5438 19.6206 23.8553 20.6172 24.4781 21.3023Z" fill="#FC0000"/>
<path d="M26.8455 16.1322C27.0946 15.883 27.5306 15.447 28.0289 15.1356C28.6518 14.6373 29.8352 13.9521 30.4581 14.8241C30.8318 15.3224 30.645 15.883 30.3335 16.319C30.9564 15.9453 31.6415 16.0076 32.0153 16.5682C32.7627 17.5648 31.5793 18.6859 30.8318 19.2465C30.3958 19.5579 29.9598 19.8694 29.7107 19.9939L26.8455 16.1322ZM28.6518 17.2533L29.1501 16.8796C29.6484 16.5059 30.0844 15.9453 29.7729 15.5093C29.4615 15.1356 29.0255 15.1979 28.3403 15.6962C28.0912 15.883 27.9666 16.0076 27.8421 16.1322L28.6518 17.2533ZM30.0221 18.9974C30.209 18.8728 30.3958 18.7482 30.5827 18.6236C31.081 18.2499 31.6415 17.627 31.2678 17.0665C30.8318 16.5059 30.2089 16.8173 29.5238 17.3156L29.0255 17.6893L30.0221 18.9974Z" fill="#FC0000"/>
<path d="M35.8773 15.6342L35.5036 15.1359C35.5036 15.5719 35.2545 16.1325 34.6316 16.5062C33.8219 17.0045 33.0121 16.6931 32.6384 16.1325C32.0155 15.1359 32.5761 14.077 34.1333 13.0804L34.071 13.0181C33.8841 12.7067 33.3859 12.1461 32.5761 12.6444C32.2024 12.8936 31.891 13.2673 31.7041 13.641L31.2058 13.2673C31.3927 12.8313 31.8287 12.3953 32.327 12.0838C33.5727 11.2741 34.4447 11.9593 34.943 12.769L35.9396 14.2639C36.1888 14.6376 36.3756 14.949 36.6248 15.1982L35.8773 15.6342ZM34.4447 13.641C33.635 14.1393 32.8253 14.8867 33.3236 15.6342C33.635 16.1325 34.071 16.1325 34.4447 15.8833C35.0053 15.5719 35.0676 15.0113 35.0053 14.5753C35.0053 14.513 34.943 14.3885 34.8807 14.3262L34.4447 13.641Z" fill="#FC0000"/>
<path d="M36.0643 11.71C35.7529 11.1494 35.5038 10.7134 35.3169 10.3397L36.0021 9.96594L36.438 10.6511C36.5003 9.96594 36.8118 9.40536 37.4969 9.03163C38.5558 8.47105 39.7392 8.96935 40.4244 10.2774C41.2341 11.8345 40.6736 13.0803 39.677 13.5786C39.1164 13.89 38.4935 13.89 37.9952 13.5786L39.241 15.8832L38.4935 16.2569L36.0643 11.71ZM37.4346 12.4574C37.4969 12.582 37.5592 12.6443 37.6215 12.7688C38.0575 13.2049 38.6804 13.3294 39.241 13.0803C40.0507 12.6443 40.1753 11.71 39.677 10.7757C39.241 9.90365 38.369 9.40536 37.5592 9.84136C36.9986 10.0905 36.7495 10.7757 36.8741 11.3985C36.8741 11.5231 36.9363 11.6477 36.9986 11.7723L37.4346 12.4574Z" fill="#FC0000"/>
<path d="M40.86 7.59916L42.9155 9.84149C43.1647 10.0906 43.4138 10.4021 43.6007 10.6512C43.6007 10.3398 43.5384 9.96606 43.4761 9.59234L43.2269 6.60257L44.099 6.22885L44.2235 9.90377C44.2858 11.6478 44.2235 12.6444 43.8498 13.3295C43.6007 13.8278 43.2892 14.1393 43.1024 14.2638L42.6041 13.641C42.7909 13.5164 42.9778 13.2673 43.1647 12.9558C43.2892 12.7067 43.4761 12.2707 43.4761 11.7724C43.4761 11.6478 43.4761 11.5855 43.4761 11.5232C43.4761 11.4609 43.4138 11.3987 43.3515 11.3364L39.988 7.91059L40.86 7.59916Z" fill="#FC0000"/>
</svg>
