<svg width="136" height="136" viewBox="0 0 136 136" fill="none" xmlns="http://www.w3.org/2000/svg">
<circle cx="66.9926" cy="66.9928" r="49.2824" fill="#F1F1F1" stroke="#192632" stroke-width="0.5"/>
<path d="M55.7241 56.9623H76.7754V78.0136" stroke="#192632" stroke-width="5"/>
<path d="M55.7241 78.0136L76.7754 56.9623" stroke="#192632" stroke-width="5"/>
<path d="M73.3739 0.249147L73.0625 6.97612L72.1905 6.91384L72.5019 0.934302L69.3875 0.809729L69.0761 6.78926L68.2041 6.72698L68.5778 0L73.3739 0.249147Z" fill="#192632"/>
<path d="M75.2426 4.92075C75.1181 6.1042 75.8032 6.66478 76.6752 6.78936C77.2981 6.85164 77.6718 6.85164 78.0456 6.72707L78.1078 7.34994C77.7964 7.47451 77.2358 7.5368 76.4884 7.41222C74.9935 7.22536 74.3083 6.1042 74.4952 4.6716C74.6821 3.23901 75.6787 2.24242 77.1112 2.42928C78.6684 2.67843 78.9176 4.04874 78.793 4.98304C78.793 5.1699 78.7307 5.29447 78.7307 5.35676L75.2426 4.92075ZM77.8587 4.6716C77.921 4.11102 77.8587 3.23901 76.8621 3.11443C75.9901 2.98986 75.4918 3.7373 75.3049 4.36017L77.8587 4.6716Z" fill="#192632"/>
<path d="M79.976 4.67167C80.1005 4.0488 80.2251 3.55051 80.2874 3.1145L81.0348 3.30136L80.9103 4.11109C81.4086 3.6128 82.0314 3.42594 82.7789 3.6128C83.9 3.86194 84.5229 5.04539 84.2115 6.47799C83.8378 8.15973 82.592 8.7826 81.4709 8.53345C80.848 8.40888 80.3497 7.97287 80.1628 7.47458L79.6023 10.0283L78.7302 9.84148L79.976 4.67167ZM80.5366 6.10427C80.5366 6.22884 80.4743 6.35342 80.4743 6.47799C80.4743 7.10086 80.9103 7.66144 81.5331 7.78601C82.4674 7.97287 83.1526 7.35001 83.4017 6.29113C83.5886 5.35683 83.3395 4.42253 82.4052 4.23566C81.8446 4.11109 81.1594 4.42252 80.848 4.98311C80.7857 5.10768 80.7234 5.23225 80.7234 5.29454L80.5366 6.10427Z" fill="#192632"/>
<path d="M85.7692 7.16317C85.3955 8.28433 86.0183 8.96949 86.8281 9.28092C87.4509 9.46778 87.8247 9.46778 88.1984 9.46778L88.1361 10.0906C87.8247 10.1529 87.2641 10.0906 86.5166 9.90379C85.084 9.46778 84.5857 8.22204 85.0217 6.85173C85.4578 5.48142 86.6412 4.60941 87.9492 5.04542C89.4441 5.54371 89.4441 6.97631 89.1327 7.84832C89.0704 8.03518 89.0081 8.15976 89.0081 8.22204L85.7692 7.16317ZM88.3852 7.35003C88.5721 6.85173 88.6344 5.91743 87.6378 5.606C86.7658 5.35685 86.1429 5.97972 85.8938 6.5403L88.3852 7.35003Z" fill="#192632"/>
<path d="M91.8106 6.54002L91.0009 8.40863C90.6895 9.09378 90.5026 9.52979 90.1912 10.1527C90.6895 9.71665 91.0009 9.4675 91.4992 9.09378L93.8661 7.34975L94.8004 7.72347L92.9318 12.1458L92.1843 11.8344L92.9941 9.9658C93.3055 9.21835 93.4924 8.84463 93.8038 8.15948C93.3055 8.59549 92.9318 8.90692 92.4958 9.21835C91.8106 9.71665 90.9386 10.4018 90.1289 10.9624L89.1946 10.5887L91.0632 6.1663L91.8106 6.54002ZM93.1186 4.92056C92.9941 5.35657 93.0564 5.73029 93.4301 5.85487C93.8038 6.04173 94.1152 5.79258 94.3644 5.41886L94.925 5.66801C94.5512 6.41545 93.9284 6.60231 93.2432 6.29087C92.4335 5.97944 92.3089 5.29429 92.5581 4.67142L93.1186 4.92056Z" fill="#192632"/>
<path d="M99.2228 10.0282L98.9114 10.651L97.6034 9.96589L95.7348 13.6408L94.9873 13.2671L96.8559 9.59217L95.5479 8.90702L95.8593 8.28415L99.2228 10.0282Z" fill="#192632"/>
<path d="M100.781 10.9001L99.722 12.6441C99.3483 13.3293 99.0368 13.703 98.6631 14.2636C99.2237 13.8899 99.5351 13.703 100.096 13.3916L102.712 12.0836L103.584 12.6441L101.092 16.7551L100.407 16.3191L101.466 14.575C101.902 13.8899 102.089 13.5785 102.525 12.8933C101.964 13.267 101.528 13.4539 101.092 13.7653C100.283 14.139 99.3483 14.6996 98.4763 15.1356L97.6042 14.6373L100.096 10.5264L100.781 10.9001Z" fill="#192632"/>
<path d="M107.445 15.4471L106.137 17.0665L106.324 17.1911L109.064 16.6928L109.874 17.3779L106.884 17.814C107.445 18.3745 107.507 19.0597 107.258 19.994C107.133 20.3054 107.009 20.8037 106.946 21.2397L106.199 20.6791C106.199 20.43 106.324 20.0563 106.448 19.6203C106.697 18.8105 106.51 18.25 105.888 17.7517L105.763 17.6271L104.455 19.3088L103.77 18.7483L106.76 14.9488L107.445 15.4471Z" fill="#192632"/>
<path d="M114.67 21.8004L114.172 22.2987L113.113 21.2399L110.248 24.2296L109.625 23.6068L112.49 20.617L111.431 19.5581L111.93 19.0598L114.67 21.8004Z" fill="#192632"/>
<path d="M116.414 27.2819C115.106 28.4654 113.674 28.0917 112.926 27.2196C112.054 26.2231 112.116 24.8527 113.238 23.8562C114.421 22.7973 115.854 22.9219 116.726 23.9184C117.598 24.915 117.473 26.2853 116.414 27.2819ZM113.798 24.479C112.988 25.1642 112.802 26.1608 113.362 26.7836C113.923 27.4065 114.919 27.3442 115.729 26.6591C116.352 26.0985 116.85 25.1019 116.165 24.3545C115.48 23.5447 114.483 23.8562 113.798 24.479Z" fill="#192632"/>
<path d="M118.968 26.7834C119.217 27.0326 119.653 27.4686 119.965 27.9669C120.463 28.5897 121.148 29.7732 120.276 30.3961C119.778 30.7698 119.217 30.5829 118.781 30.2715C119.155 30.8943 119.093 31.5795 118.532 31.9532C117.535 32.7007 116.414 31.5172 115.854 30.7698C115.542 30.3338 115.231 29.8978 115.106 29.6486L118.968 26.7834ZM116.103 29.96C116.227 30.1469 116.352 30.3338 116.476 30.5206C116.85 31.0189 117.473 31.5795 118.034 31.2058C118.594 30.7698 118.283 30.1469 117.785 29.4617L117.411 28.9635L116.103 29.96ZM117.909 28.652L118.283 29.1503C118.657 29.6486 119.217 30.0846 119.653 29.7732C120.027 29.4617 119.965 29.0257 119.466 28.3406C119.279 28.0914 119.155 27.9669 119.03 27.8423L117.909 28.652Z" fill="#192632"/>
<path d="M119.466 35.8773L119.964 35.5036C119.528 35.5036 118.967 35.2544 118.594 34.6316C118.095 33.8218 118.407 33.0121 118.967 32.6384C119.964 32.0155 121.023 32.5761 122.019 34.1333L122.082 34.071C122.393 33.8841 122.954 33.3858 122.455 32.5761C122.206 32.2024 121.833 31.8909 121.459 31.7041L121.833 31.2058C122.269 31.3926 122.705 31.8287 123.016 32.3269C123.826 33.5727 123.141 34.4447 122.331 34.943L120.836 35.9396C120.462 36.1887 120.151 36.3756 119.902 36.6247L119.466 35.8773ZM121.459 34.4447C120.961 33.635 120.213 32.8252 119.466 33.3235C118.967 33.635 118.967 34.071 119.217 34.4447C119.528 35.0053 120.089 35.0676 120.525 35.0053C120.587 35.0053 120.711 34.943 120.774 34.8807L121.459 34.4447Z" fill="#192632"/>
<path d="M123.39 36.0643C123.951 35.7528 124.387 35.5037 124.76 35.3168L125.134 36.002L124.449 36.438C125.134 36.5003 125.695 36.8117 126.068 37.4969C126.629 38.5557 126.131 39.7392 124.823 40.4244C123.265 41.2341 122.02 40.6735 121.521 39.6769C121.21 39.1163 121.21 38.4935 121.521 37.9952L119.217 39.2409L118.843 38.4935L123.39 36.0643ZM122.642 37.4346C122.518 37.4969 122.456 37.5592 122.331 37.6214C121.895 38.0575 121.77 38.6803 122.02 39.2409C122.456 40.0506 123.39 40.1752 124.324 39.6769C125.196 39.2409 125.695 38.3689 125.259 37.5592C125.009 36.9986 124.324 36.7494 123.701 36.874C123.577 36.874 123.452 36.9363 123.328 36.9986L122.642 37.4346Z" fill="#192632"/>
<path d="M127.501 40.7977L125.259 42.8532C125.01 43.1023 124.698 43.3515 124.449 43.5383C124.761 43.5383 125.134 43.476 125.508 43.4138L128.498 43.1646L128.872 44.0366L125.259 44.2235C123.515 44.2858 122.518 44.2235 121.833 43.8498C121.335 43.6006 121.023 43.2892 120.899 43.1023L121.522 42.604C121.646 42.7909 121.896 42.9777 122.207 43.1646C122.456 43.2892 122.892 43.476 123.39 43.476C123.515 43.476 123.577 43.476 123.64 43.476C123.702 43.476 123.764 43.4138 123.826 43.3515L127.252 39.988L127.501 40.7977Z" fill="#192632"/>
<path d="M134.851 73.3741L128.125 73.0626L128.187 72.1906L134.166 72.502L134.291 69.3877L128.311 69.0763L128.374 68.2043L135.101 68.5157L134.851 73.3741Z" fill="#192632"/>
<path d="M130.18 75.1803C128.997 75.0558 128.436 75.7409 128.311 76.6129C128.249 77.2358 128.249 77.6095 128.374 77.9832L127.751 78.0455C127.626 77.7341 127.564 77.1735 127.689 76.4261C127.875 74.9312 128.997 74.246 130.429 74.4329C131.862 74.6198 132.858 75.6163 132.671 77.0489C132.422 78.6061 131.052 78.8553 130.118 78.7307C129.931 78.7307 129.806 78.6684 129.744 78.6684L130.18 75.1803ZM130.429 77.7964C130.99 77.8587 131.862 77.7964 131.986 76.7998C132.111 75.9278 131.363 75.4295 130.741 75.2426L130.429 77.7964Z" fill="#192632"/>
<path d="M130.429 79.9142C131.052 80.0387 131.551 80.1633 131.987 80.2256L131.8 80.973L130.99 80.8485C131.488 81.3468 131.675 81.9696 131.488 82.7171C131.239 83.8382 130.056 84.4611 128.623 84.1497C126.941 83.7759 126.318 82.5302 126.568 81.409C126.692 80.7862 127.128 80.2879 127.626 80.101L125.073 79.5404L125.26 78.6684L130.429 79.9142ZM128.997 80.4747C128.872 80.4747 128.748 80.4125 128.623 80.4125C128 80.4125 127.44 80.8485 127.315 81.4713C127.128 82.4056 127.751 83.0908 128.81 83.3399C129.744 83.5268 130.679 83.2154 130.865 82.3433C130.99 81.7828 130.679 81.0976 130.118 80.7862C129.993 80.7239 129.869 80.6616 129.807 80.6616L128.997 80.4747Z" fill="#192632"/>
<path d="M128 85.7066C126.879 85.3329 126.194 85.9557 125.883 86.7655C125.696 87.3883 125.696 87.7621 125.696 88.1358L125.073 88.0735C125.011 87.7621 125.073 87.2015 125.26 86.454C125.696 85.0214 126.942 84.5231 128.312 84.9592C129.682 85.3952 130.554 86.5786 130.118 87.8866C129.62 89.3815 128.187 89.3815 127.315 89.0701C127.128 89.0078 127.004 88.9455 126.942 88.9455L128 85.7066ZM127.751 88.3849C128.25 88.5718 129.184 88.6341 129.495 87.6375C129.744 86.7655 129.122 86.1426 128.561 85.8935L127.751 88.3849Z" fill="#192632"/>
<path d="M128.561 91.8108L126.692 91.0011C126.007 90.6896 125.571 90.5028 124.948 90.1913C125.384 90.6896 125.633 91.0011 126.007 91.4994L127.751 93.8663L127.377 94.8006L122.955 92.932L123.267 92.1845L125.135 92.9942C125.883 93.3057 126.256 93.4925 126.941 93.804C126.505 93.3057 126.194 92.932 125.883 92.496C125.384 91.8108 124.699 90.9388 124.139 90.1291L124.512 89.1947L128.935 91.0634L128.561 91.8108ZM130.18 93.0565C129.744 92.932 129.371 92.9942 129.246 93.368C129.059 93.7417 129.308 94.0531 129.682 94.3023L129.433 94.8629C128.685 94.4891 128.499 93.8663 128.81 93.1811C129.121 92.3714 129.807 92.2468 130.429 92.496L130.18 93.0565Z" fill="#192632"/>
<path d="M125.072 99.1606L124.449 98.8491L125.134 97.5411L121.459 95.6725L121.833 94.925L125.508 96.7937L126.193 95.4856L126.816 95.7971L125.072 99.1606Z" fill="#192632"/>
<path d="M124.201 100.78L122.457 99.7212C121.771 99.3475 121.398 99.0361 120.837 98.6624C121.211 99.2229 121.398 99.5344 121.709 100.095L123.017 102.711L122.457 103.583L118.346 101.092L118.782 100.406L120.526 101.465C121.211 101.901 121.522 102.088 122.207 102.524C121.834 101.964 121.647 101.528 121.335 101.092C120.962 100.282 120.401 99.3475 119.965 98.4755L120.463 97.6035L124.574 100.095L124.201 100.78Z" fill="#192632"/>
<path d="M119.653 107.445L118.034 106.137L117.909 106.324L118.408 109.065L117.722 109.874L117.286 106.885C116.726 107.445 116.041 107.508 115.106 107.258C114.795 107.134 114.297 107.009 113.861 106.947L114.421 106.2C114.67 106.2 115.044 106.324 115.48 106.449C116.29 106.698 116.85 106.511 117.349 105.888L117.473 105.764L115.791 104.456L116.352 103.77L120.152 106.76L119.653 107.445Z" fill="#192632"/>
<path d="M113.3 114.608L112.802 114.109L113.861 113.051L110.871 110.185L111.494 109.562L114.483 112.428L115.542 111.369L116.041 111.867L113.3 114.608Z" fill="#192632"/>
<path d="M107.819 116.352C106.635 115.044 107.009 113.611 107.881 112.864C108.878 111.992 110.248 112.054 111.245 113.175C112.303 114.359 112.179 115.791 111.182 116.663C110.186 117.598 108.815 117.473 107.819 116.352ZM110.684 113.798C109.999 112.988 109.002 112.802 108.379 113.362C107.756 113.923 107.819 114.919 108.504 115.729C109.064 116.352 110.061 116.85 110.808 116.165C111.556 115.48 111.307 114.483 110.684 113.798Z" fill="#192632"/>
<path d="M108.318 118.906C108.069 119.155 107.633 119.591 107.134 119.902C106.511 120.401 105.328 121.086 104.705 120.214C104.331 119.715 104.518 119.155 104.83 118.719C104.207 119.093 103.522 119.03 103.148 118.47C102.4 117.473 103.584 116.352 104.331 115.791C104.767 115.48 105.203 115.169 105.453 115.044L108.318 118.906ZM105.141 116.103C104.954 116.227 104.767 116.352 104.58 116.477C104.082 116.85 103.522 117.473 103.895 118.034C104.331 118.594 104.954 118.283 105.639 117.785L106.138 117.411L105.141 116.103ZM106.449 117.847L105.951 118.221C105.453 118.594 105.017 119.155 105.328 119.591C105.639 119.965 106.075 119.902 106.761 119.404C107.01 119.217 107.134 119.093 107.259 118.968L106.449 117.847Z" fill="#192632"/>
<path d="M99.286 119.466L99.6597 119.965C99.6597 119.529 99.9089 118.968 100.532 118.594C101.341 118.096 102.151 118.407 102.525 118.968C103.148 119.965 102.587 121.023 101.03 122.02L101.092 122.082C101.279 122.394 101.777 122.954 102.587 122.456C102.961 122.207 103.272 121.833 103.459 121.459L103.958 121.833C103.771 122.269 103.335 122.705 102.836 123.017C101.591 123.826 100.719 123.141 100.22 122.331L99.2237 120.837C98.9746 120.463 98.7877 120.151 98.5386 119.902L99.286 119.466ZM100.719 121.459C101.528 120.961 102.338 120.214 101.84 119.466C101.528 118.968 101.092 118.968 100.719 119.217C100.158 119.529 100.096 120.089 100.158 120.525C100.158 120.587 100.22 120.712 100.283 120.774L100.719 121.459Z" fill="#192632"/>
<path d="M99.099 123.328C99.4104 123.888 99.6595 124.324 99.8464 124.698L99.1612 125.072L98.7252 124.387C98.6629 125.072 98.3515 125.632 97.6664 126.006C96.6075 126.567 95.424 126.068 94.7389 124.76C93.9292 123.203 94.4897 121.957 95.4863 121.459C96.0469 121.148 96.6698 121.148 97.1681 121.459L95.9223 119.155L96.6698 118.781L99.099 123.328ZM97.7286 122.643C97.6664 122.518 97.6041 122.456 97.5418 122.331C97.1058 121.895 96.4829 121.771 95.9223 122.02C95.1126 122.456 94.988 123.39 95.4863 124.324C95.9223 125.196 96.7943 125.695 97.6041 125.259C98.1647 125.009 98.4138 124.324 98.2892 123.701C98.2892 123.577 98.2269 123.452 98.1647 123.328L97.7286 122.643Z" fill="#192632"/>
<path d="M94.3027 127.501L92.2473 125.259C91.9981 125.01 91.749 124.698 91.5621 124.449C91.5621 124.761 91.6244 125.134 91.6867 125.508L91.9358 128.498L91.0638 128.872L90.9393 125.197C90.877 123.453 90.9393 122.456 91.313 121.771C91.5621 121.273 91.8736 120.961 92.0604 120.837L92.5587 121.459C92.3719 121.584 92.185 121.833 91.9981 122.145C91.8736 122.394 91.6867 122.83 91.6867 123.328C91.6867 123.453 91.6867 123.515 91.6867 123.577C91.6867 123.64 91.749 123.702 91.8113 123.764L95.1748 127.19L94.3027 127.501Z" fill="#192632"/>
<path d="M61.7263 134.851L62.0378 128.124L62.9098 128.187L62.5983 134.166L65.7127 134.291L66.0241 128.311L66.8961 128.374L66.5847 135.101L61.7263 134.851Z" fill="#192632"/>
<path d="M59.9202 130.118C60.0448 128.934 59.3596 128.374 58.4876 128.249C57.8647 128.187 57.491 128.187 57.1173 128.311L57.055 127.688C57.3664 127.564 57.927 127.502 58.6744 127.626C60.1693 127.813 60.8545 128.934 60.6676 130.367C60.4808 131.799 59.4842 132.796 58.0516 132.609C56.4944 132.36 56.2453 130.927 56.3698 130.055C56.3698 129.868 56.4321 129.744 56.4321 129.682L59.9202 130.118ZM57.3041 130.429C57.2418 130.99 57.3041 131.862 58.3007 131.986C59.1727 132.111 59.671 131.363 59.8579 130.74L57.3041 130.429Z" fill="#192632"/>
<path d="M55.1861 130.429C55.0615 131.052 54.937 131.55 54.8747 131.986L54.1272 131.799L54.2518 130.989C53.7535 131.488 53.1306 131.675 52.3832 131.488C51.262 131.239 50.6392 130.055 50.9506 128.623C51.3243 126.941 52.5701 126.318 53.6912 126.567C54.3141 126.692 54.8124 127.128 54.9993 127.626L55.5598 125.072L56.4318 125.259L55.1861 130.429ZM54.6255 128.996C54.6255 128.872 54.6878 128.747 54.6878 128.623C54.6878 128 54.2518 127.439 53.6289 127.315C52.6946 127.128 52.0095 127.751 51.7603 128.809C51.5735 129.744 51.8226 130.678 52.7569 130.865C53.3175 130.989 54.0027 130.678 54.3141 130.117C54.3764 129.993 54.4387 129.868 54.4387 129.806L54.6255 128.996Z" fill="#192632"/>
<path d="M49.3933 127.937C49.7671 126.816 49.1442 126.131 48.3345 125.82C47.7116 125.633 47.3379 125.633 46.9641 125.633L47.0264 125.01C47.3379 124.948 47.8985 125.01 48.6459 125.197C50.0785 125.633 50.5768 126.879 50.1408 128.249C49.7048 129.619 48.5213 130.491 47.2133 130.055C45.7184 129.557 45.7184 128.124 46.0298 127.252C46.0921 127.065 46.1544 126.941 46.1544 126.879L49.3933 127.937ZM46.7773 127.751C46.5904 128.249 46.5282 129.183 47.5247 129.495C48.3968 129.744 49.0196 129.121 49.2688 128.56L46.7773 127.751Z" fill="#192632"/>
<path d="M42.0439 130.117C42.1684 129.681 42.1061 129.308 41.7324 129.183C41.3587 128.996 41.0473 129.245 40.7981 129.619L40.2375 129.37C40.6113 128.623 41.2341 128.436 41.9193 128.747C42.729 129.059 42.8536 129.744 42.6044 130.367L42.0439 130.117ZM43.3519 128.56L44.1616 126.692C44.473 126.007 44.6599 125.571 44.9713 124.948C44.4731 125.384 44.1616 125.633 43.6633 126.007L41.2964 127.751L40.3621 127.377L42.2307 122.954L42.9782 123.266L42.1684 125.134C41.857 125.882 41.6701 126.256 41.3587 126.941C41.857 126.505 42.2307 126.193 42.6667 125.882C43.3519 125.384 44.2239 124.698 45.0336 124.138L45.9679 124.512L44.0993 128.934L43.3519 128.56Z" fill="#192632"/>
<path d="M35.9402 125.072L36.2516 124.449L37.5596 125.134L39.4283 121.459L40.1757 121.833L38.3071 125.508L39.6151 126.193L39.3037 126.816L35.9402 125.072Z" fill="#192632"/>
<path d="M34.3825 124.138L35.4414 122.394C35.8151 121.771 36.1265 121.335 36.5002 120.774C35.9397 121.148 35.6282 121.335 35.0677 121.646L32.4516 122.954L31.5796 122.394L34.0711 118.283L34.7562 118.719L33.6973 120.463C33.2613 121.148 33.0745 121.46 32.6385 122.145C33.199 121.771 33.6351 121.584 34.0711 121.273C34.8808 120.899 35.8151 120.338 36.6871 119.902L37.5591 120.401L35.0677 124.512L34.3825 124.138Z" fill="#192632"/>
<path d="M27.655 119.654L28.963 118.034L28.7762 117.91L26.0356 118.408L25.2258 117.723L28.2156 117.287C27.655 116.726 27.5927 116.041 27.8419 115.107C27.9665 114.795 28.091 114.297 28.1533 113.861L28.9007 114.422C28.9007 114.671 28.7762 115.044 28.6516 115.48C28.4025 116.29 28.5893 116.851 29.2122 117.349L29.3368 117.474L30.6448 115.792L31.3299 116.352L28.3402 120.152L27.655 119.654Z" fill="#192632"/>
<path d="M20.4922 113.3L20.9905 112.802L22.0494 113.86L24.9146 110.871L25.5374 111.494L22.6722 114.483L23.7311 115.542L23.2328 116.04L20.4922 113.3Z" fill="#192632"/>
<path d="M18.7482 107.819C20.0562 106.635 21.4888 107.009 22.2362 107.881C23.1082 108.878 23.046 110.248 21.9248 111.244C20.7413 112.303 19.3087 112.179 18.4367 111.182C17.5024 110.186 17.627 108.815 18.7482 107.819ZM21.3019 110.622C22.1117 109.936 22.2985 108.94 21.7379 108.317C21.1773 107.694 20.1808 107.756 19.371 108.442C18.7482 109.002 18.2499 109.999 18.935 110.746C19.6202 111.556 20.6168 111.244 21.3019 110.622Z" fill="#192632"/>
<path d="M16.1949 108.317C15.9458 108.068 15.5098 107.632 15.1983 107.133C14.7 106.511 14.0149 105.327 14.8869 104.704C15.3852 104.331 15.9458 104.517 16.3818 104.829C16.0081 104.206 16.0704 103.521 16.6309 103.147C17.6275 102.4 18.7487 103.583 19.3093 104.331C19.6207 104.767 19.9321 105.203 20.0567 105.452L16.1949 108.317ZM17.2538 106.448L16.8801 105.95C16.5064 105.452 15.9458 105.016 15.5098 105.327C15.136 105.639 15.1983 106.075 15.6966 106.76C15.8835 107.009 16.0081 107.133 16.1326 107.258L17.2538 106.448ZM19.0601 105.14C18.9355 104.953 18.811 104.767 18.6864 104.58C18.3127 104.081 17.6898 103.521 17.1292 103.895C16.5686 104.331 16.8801 104.953 17.3784 105.639L17.7521 106.137L19.0601 105.14Z" fill="#192632"/>
<path d="M15.6964 99.2231L15.1981 99.5969C15.6341 99.5969 16.1946 99.846 16.5684 100.469C17.0667 101.279 16.7552 102.088 16.1946 102.462C15.1981 103.085 14.1392 102.524 13.1426 100.967L13.0803 101.029C12.7689 101.216 12.2083 101.715 12.7066 102.524C12.9557 102.898 13.3295 103.21 13.7032 103.396L13.3294 103.895C12.8934 103.708 12.4574 103.272 12.146 102.773C11.3363 101.528 12.0214 100.656 12.8312 100.157L14.326 99.1609C14.6998 98.9117 15.0112 98.7249 15.2603 98.4757L15.6964 99.2231ZM13.6409 100.656C14.1392 101.465 14.8866 102.275 15.6341 101.777C16.1324 101.465 16.1324 101.029 15.8832 100.656C15.5718 100.095 15.0112 100.033 14.5752 100.095C14.5129 100.095 14.3883 100.157 14.326 100.22L13.6409 100.656Z" fill="#192632"/>
<path d="M11.7717 99.0363C11.2111 99.3477 10.7751 99.5968 10.4014 99.7837L10.0277 99.0986L10.7129 98.6625C10.0277 98.6002 9.46712 98.2888 9.0934 97.6037C8.53282 96.5448 9.03112 95.3613 10.3391 94.6762C11.8963 93.8665 13.142 94.427 13.6403 95.4236C13.9518 95.9842 13.9518 96.6071 13.6403 97.1054L15.945 95.8596L16.3187 96.6071L11.7717 99.0363ZM12.5192 97.666C12.6437 97.6037 12.706 97.5414 12.8306 97.4791C13.2666 97.0431 13.3912 96.4202 13.142 95.8596C12.706 95.0499 11.7717 94.9253 10.8374 95.4236C9.96541 95.8596 9.46712 96.7317 9.90312 97.5414C10.1523 98.102 10.8374 98.3511 11.4603 98.2265C11.5849 98.2265 11.7094 98.1642 11.834 98.102L12.5192 97.666Z" fill="#192632"/>
<path d="M7.59883 94.2402L9.84116 92.1847C10.0903 91.9356 10.4017 91.6864 10.6509 91.4996C10.3394 91.4996 9.96572 91.5619 9.592 91.6242L6.60224 91.8733L6.22852 91.0013L9.90343 90.8767C11.6475 90.8144 12.6441 90.8767 13.3292 91.2504C13.8275 91.4996 14.1389 91.811 14.2635 91.9979L13.6406 92.4962C13.5161 92.3093 13.2669 92.1225 12.9555 91.9356C12.7064 91.811 12.2703 91.6242 11.772 91.6242C11.6475 91.6242 11.5852 91.6242 11.5229 91.6242C11.4606 91.6242 11.3983 91.6864 11.336 91.7487L7.91027 95.1122L7.59883 94.2402Z" fill="#192632"/>
<path d="M0.249143 61.7262L6.97613 62.0376L6.91384 62.9096L0.934302 62.5982L0.80974 65.7126L6.78926 66.024L6.72699 66.896L0 66.5846L0.249143 61.7262Z" fill="#192632"/>
<path d="M4.98298 59.9201C6.16643 60.0446 6.72701 59.3595 6.85158 58.4875C6.91387 57.8646 6.91386 57.4909 6.78929 57.1172L7.41216 57.0549C7.53673 57.3663 7.59902 57.9269 7.47445 58.6743C7.28759 60.1692 6.16643 60.8544 4.73383 60.6675C3.30124 60.4807 2.30464 59.4841 2.4915 58.0515C2.74065 56.4943 4.11097 56.2451 5.04527 56.3697C5.23213 56.3697 5.35671 56.432 5.41899 56.432L4.98298 59.9201ZM4.73383 57.2417C4.17325 57.1795 3.30124 57.2417 3.17666 58.2383C3.05209 59.1103 3.79953 59.6086 4.4224 59.7955L4.73383 57.2417Z" fill="#192632"/>
<path d="M4.67192 55.1863C4.04905 55.0618 3.55075 54.9372 3.11475 54.8749L3.30162 54.1275L4.11134 54.252C3.61304 53.7537 3.42619 53.1309 3.61305 52.3834C3.8622 51.2623 5.04563 50.6394 6.47823 50.9508C8.15997 51.3245 8.78285 52.5703 8.53371 53.6914C8.40913 54.3143 7.97312 54.8126 7.47482 54.9995L10.0286 55.56L9.84173 56.4321L4.67192 55.1863ZM6.10452 54.6257C6.2291 54.6257 6.35366 54.688 6.47823 54.688C7.1011 54.688 7.66168 54.252 7.78626 53.6292C7.97312 52.6949 7.35025 52.0097 6.29138 51.7605C5.35708 51.5737 4.42278 51.8228 4.23592 52.7571C4.11135 53.3177 4.42277 54.0029 4.98335 54.3143C5.10792 54.3766 5.2325 54.4389 5.29478 54.4389L6.10452 54.6257Z" fill="#192632"/>
<path d="M7.16368 49.3933C8.28485 49.767 8.97 49.1442 9.28143 48.3344C9.46829 47.7116 9.4683 47.3379 9.4683 46.9641L10.0912 47.0264C10.1535 47.3379 10.0912 47.8984 9.9043 48.6459C9.46829 50.0785 8.22256 50.5768 6.85225 50.1408C5.48194 49.7048 4.60993 48.5213 5.04594 47.2133C5.54423 45.7184 6.97683 45.7184 7.84884 46.0298C8.0357 46.0921 8.16028 46.1544 8.22257 46.1544L7.16368 49.3933ZM7.35056 46.715C6.85226 46.5281 5.91795 46.4658 5.60651 47.4624C5.35737 48.3344 5.98023 48.9573 6.54082 49.2065L7.35056 46.715Z" fill="#192632"/>
<path d="M4.98352 42.0439C5.41953 42.1685 5.79325 42.1062 5.91782 41.7325C6.10468 41.3587 5.85555 41.0473 5.48182 40.7982L5.73097 40.2376C6.47841 40.6113 6.66527 41.2342 6.35384 41.9193C6.0424 42.7291 5.35724 42.8536 4.73438 42.6045L4.98352 42.0439ZM6.54069 43.2896L8.40929 44.0994C9.09445 44.4108 9.53047 44.5977 10.1533 44.9091C9.71733 44.4108 9.46817 44.0994 9.09445 43.6011L7.35043 41.2342L7.72413 40.2999L12.1465 42.1685L11.8351 42.9159L9.96646 42.1062C9.21902 41.7947 8.8453 41.6079 8.16015 41.2965C8.59616 41.7948 8.9076 42.1685 9.21903 42.6045C9.71733 43.2896 10.4025 44.1616 10.9631 44.9714L10.5893 45.9057L6.16696 44.0371L6.54069 43.2896Z" fill="#192632"/>
<path d="M10.0284 35.8772L10.6513 36.1886L9.96616 37.4966L13.6411 39.3652L13.2674 40.1127L9.59243 38.2441L8.90729 39.5521L8.28442 39.2407L10.0284 35.8772Z" fill="#192632"/>
<path d="M10.9628 34.3199L12.7069 35.3787C13.392 35.7525 13.7657 36.0639 14.3263 36.4376C13.9526 35.877 13.7657 35.5656 13.4543 35.005L12.1463 32.389L12.7069 31.517L16.8178 34.0084L16.3818 34.6936L14.6378 33.6347C13.9526 33.1987 13.6412 33.0118 12.956 32.5758C13.3297 33.1364 13.5166 33.5724 13.828 34.0084C14.2018 34.8182 14.7623 35.7525 15.1983 36.6245L14.7 37.4965L10.5891 35.005L10.9628 34.3199Z" fill="#192632"/>
<path d="M15.4478 27.6556L17.0672 28.9636L17.1918 28.7767L16.6935 26.0361L17.3786 25.2264L17.8147 28.2161C18.3752 27.6556 19.0604 27.5933 19.9947 27.8424C20.3061 27.967 20.8044 28.0916 21.2404 28.1539L20.6799 28.9013C20.4307 28.9013 20.057 28.7767 19.621 28.6522C18.8112 28.403 18.2507 28.5899 17.7524 29.2127L17.6278 29.3373L19.3095 30.6453L18.749 31.3305L14.9495 28.3407L15.4478 27.6556Z" fill="#192632"/>
<path d="M21.8634 20.4304L22.3617 20.9287L21.3028 21.9875L24.2926 24.8527L23.6697 25.4756L20.68 22.6104L19.6211 23.6693L19.1228 23.171L21.8634 20.4304Z" fill="#192632"/>
<path d="M27.2813 18.7485C28.4647 20.0565 28.091 21.4891 27.219 22.2365C26.2224 23.1086 24.8521 23.0463 23.8555 21.9251C22.7966 20.7417 22.9212 19.3091 23.9178 18.4371C24.9767 17.5028 26.347 17.6273 27.2813 18.7485ZM24.4784 21.3022C25.1635 22.112 26.1601 22.2988 26.783 21.7383C27.4058 21.1777 27.3436 20.1811 26.6584 19.3714C26.0978 18.7485 25.1012 18.2502 24.3538 18.9353C23.5441 19.6205 23.8555 20.6171 24.4784 21.3022Z" fill="#192632"/>
<path d="M26.8457 16.1321C27.0949 15.883 27.5309 15.4469 28.0291 15.1355C28.652 14.6372 29.8355 13.9521 30.4583 14.8241C30.8321 15.3224 30.6452 15.883 30.3338 16.319C30.9566 15.9452 31.6418 16.0075 32.0155 16.5681C32.7629 17.5647 31.5795 18.6859 30.8321 19.2464C30.396 19.5579 29.96 19.8693 29.7109 19.9939L26.8457 16.1321ZM28.652 17.2533L29.1503 16.8795C29.6486 16.5058 30.0846 15.9452 29.7732 15.5092C29.4618 15.1355 29.0257 15.1978 28.3406 15.6961C28.0914 15.883 27.9669 16.0075 27.8423 16.1321L28.652 17.2533ZM30.0223 18.9973C30.2092 18.8727 30.3961 18.7481 30.5829 18.6236C31.0812 18.2499 31.6418 17.627 31.2681 17.0664C30.8321 16.5058 30.2092 16.8173 29.524 17.3155L29.0257 17.6893L30.0223 18.9973Z" fill="#192632"/>
<path d="M35.8776 15.6341L35.5038 15.1358C35.5038 15.5718 35.2547 16.1324 34.6318 16.5061C33.8221 17.0044 33.0124 16.693 32.6386 16.1324C32.0158 15.1358 32.5764 14.077 34.1335 13.0804L34.0713 13.0181C33.8844 12.7066 33.3861 12.1461 32.5764 12.6444C32.2027 12.8935 31.8912 13.2672 31.7043 13.6409L31.2061 13.2672C31.3929 12.8312 31.8289 12.3952 32.3272 12.0838C33.5729 11.2741 34.445 11.9592 34.9433 12.7689L35.9399 14.2638C36.189 14.6375 36.3759 14.949 36.625 15.1981L35.8776 15.6341ZM34.445 13.6409C33.6352 14.1392 32.8255 14.8867 33.3238 15.6341C33.6352 16.1324 34.0713 16.1324 34.445 15.8833C35.0056 15.5718 35.0678 15.0113 35.0056 14.5753C35.0056 14.513 34.9433 14.3884 34.881 14.3261L34.445 13.6409Z" fill="#192632"/>
<path d="M36.0646 11.7099C35.7531 11.1493 35.504 10.7133 35.3171 10.3396L36.0023 9.96588L36.4383 10.651C36.5006 9.96588 36.812 9.40529 37.4972 9.03157C38.5561 8.47099 39.7395 8.96929 40.4246 10.2773C41.2344 11.8345 40.6738 13.0802 39.6772 13.5785C39.1166 13.8899 38.4938 13.8899 37.9955 13.5785L39.2412 15.8831L38.4938 16.2568L36.0646 11.7099ZM37.4349 12.4573C37.4972 12.5819 37.5595 12.6442 37.6217 12.7688C38.0577 13.2048 38.6806 13.3294 39.2412 13.0802C40.0509 12.6442 40.1755 11.7099 39.6772 10.7756C39.2412 9.90359 38.3692 9.40529 37.5595 9.8413C36.9989 10.0904 36.7497 10.7756 36.8743 11.3985C36.8743 11.523 36.9366 11.6476 36.9989 11.7722L37.4349 12.4573Z" fill="#192632"/>
<path d="M40.8603 7.5991L42.9157 9.84142C43.1649 10.0906 43.414 10.402 43.6009 10.6512C43.6009 10.3397 43.5386 9.966 43.4763 9.59228L43.2272 6.60251L44.0992 6.22879L44.2238 9.90371C44.2861 11.6477 44.2238 12.6443 43.8501 13.3295C43.6009 13.8278 43.2895 14.1392 43.1026 14.2638L42.6043 13.6409C42.7912 13.5163 42.9781 13.2672 43.1649 12.9558C43.2895 12.7066 43.4763 12.2706 43.4763 11.7723C43.4763 11.6477 43.4763 11.5855 43.4763 11.5232C43.4763 11.4609 43.4141 11.3986 43.3518 11.3363L39.9883 7.91053L40.8603 7.5991Z" fill="#192632"/>
</svg>
