<svg width="49" height="16" viewBox="0 0 49 16" fill="none" xmlns="http://www.w3.org/2000/svg">
<path d="M7.5 6.3C7.5 6.3 9.4 7.1 9.4 9.4C9.4 11.28 7.7 13 5.4 13H0.6V0.399999H5.3C7.4 0.399999 8.9 1.9 8.9 3.8C8.9 5.6 7.5 6.3 7.5 6.3ZM2.2 1.8V5.7H5.3C6.5 5.7 7.4 4.8 7.4 3.8C7.4 2.7 6.5 1.8 5.3 1.8H2.2ZM2.2 11.6H5.4C6.8 11.6 7.8 10.6 7.8 9.3C7.8 8.1 6.8 7.1 5.4 7.1H2.2V11.6ZM17.5914 4H19.0914V13H17.5914V6.3L12.9914 13H11.4914V4H12.9914V10.7L17.5914 4ZM28.5867 11.6H29.7867V15.2H28.3867V13H21.7867V15.2H20.3867V11.6H20.8867C20.8867 11.6 21.9467 10.9 22.0867 9.6L22.6867 4H28.5867V11.6ZM24.0267 5.4L23.5867 9.6C23.4667 10.9 22.6867 11.6 22.6867 11.6H27.0867V5.4H24.0267ZM37.1914 10.6H38.7914C38.1914 11.9 36.9914 13.1 35.0914 13.1C32.7914 13.1 30.8914 11.2 30.8914 8.5C30.8914 5.8 32.7914 3.9 34.9914 3.9C37.1914 3.9 38.9914 5.7 38.9914 8.4C38.9914 8.9 38.8914 9.2 38.8914 9.2H32.4914C32.5914 10.5 33.7914 11.7 35.0914 11.7C36.1914 11.7 36.8914 11 37.1914 10.6ZM34.9914 5.3C33.7914 5.3 32.6914 6.4 32.4914 7.9H37.3914C37.1914 6.3 36.1914 5.3 34.9914 5.3ZM41.8836 8.5C41.8836 10.4 43.1836 11.7 44.5836 11.7C45.9836 11.7 47.2836 10.4 47.2836 8.5C47.2836 6.6 45.9836 5.3 44.5836 5.3C43.1836 5.3 41.8836 6.6 41.8836 8.5ZM48.7836 8.5C48.7836 11.2 46.8836 13.1 44.5836 13.1C42.2836 13.1 40.3836 11.2 40.3836 8.5C40.3836 5.8 42.2836 3.9 44.5836 3.9C46.8836 3.9 48.7836 5.8 48.7836 8.5Z" fill="#F1F1F1"/>
</svg>
