<svg width="270" height="23" viewBox="0 0 270 23" fill="none" xmlns="http://www.w3.org/2000/svg">
<path d="M31.7 4.7C33.6 4.7 34.9 6 35.3 7.6H37C36.3 5.2 34.4 3.3 31.7 3.3C28.6 3.3 25.8 6.1 25.8 9.7C25.8 13.3 28.6 16.1 31.7 16.1C34.5 16.1 36.4 14.2 37.1 11.8H35.4C35 13.4 33.7 14.7 31.7 14.7C29.5 14.7 27.4 12.6 27.4 9.7C27.4 6.8 29.5 4.7 31.7 4.7ZM44.4953 11.3C44.4953 11.3 45.5953 10.8 45.5953 9.5C45.5953 8.1 44.4953 7 42.9953 7H38.9953V16H43.2953C44.7953 16 45.8953 14.9 45.8953 13.4C45.8953 11.8 44.4953 11.3 44.4953 11.3ZM42.7953 8.4C43.5953 8.4 44.0953 8.9 44.0953 9.6C44.0953 10.2 43.5953 10.7 42.7953 10.7H40.4953V8.4H42.7953ZM43.0953 14.6H40.4953V12.1H43.0953C43.7953 12.1 44.3953 12.7 44.3953 13.3C44.3953 14 43.7953 14.6 43.0953 14.6ZM48.8992 11.5C48.8992 9.6 50.1992 8.3 51.5992 8.3C52.9992 8.3 54.2992 9.6 54.2992 11.5C54.2992 13.4 52.9992 14.7 51.5992 14.7C50.1992 14.7 48.8992 13.4 48.8992 11.5ZM55.7992 11.5C55.7992 8.8 53.8992 6.9 51.5992 6.9C49.2992 6.9 47.3992 8.8 47.3992 11.5C47.3992 14.2 49.2992 16.1 51.5992 16.1C53.8992 16.1 55.7992 14.2 55.7992 11.5ZM58.8039 8.8C59.1039 6.1 60.4039 4.8 64.7039 4.6V3.2C59.2039 3.5 57.4039 5.3 57.4039 10.5C57.4039 14.1 59.4039 16.1 61.7039 16.1C64.0039 16.1 65.8039 14.2 65.8039 11.7C65.8039 9.2 63.9039 7.3 61.8039 7.3C59.8039 7.3 58.8039 8.8 58.8039 8.8ZM61.7039 14.7C60.3039 14.7 59.0039 13.4 59.0039 11.7C59.0039 10 60.3039 8.7 61.7039 8.7C63.1039 8.7 64.3039 9.9 64.3039 11.7C64.3039 13.5 63.1039 14.7 61.7039 14.7ZM68.7039 11.5C68.7039 9.6 70.0039 8.3 71.4039 8.3C72.8039 8.3 74.1039 9.6 74.1039 11.5C74.1039 13.4 72.8039 14.7 71.4039 14.7C70.0039 14.7 68.7039 13.4 68.7039 11.5ZM75.6039 11.5C75.6039 8.8 73.7039 6.9 71.4039 6.9C69.1039 6.9 67.2039 8.8 67.2039 11.5C67.2039 14.2 69.1039 16.1 71.4039 16.1C73.7039 16.1 75.6039 14.2 75.6039 11.5ZM84.5086 14.6V7H78.6086L78.0086 12.6C77.8686 13.9 76.8086 14.6 76.8086 14.6H76.3086V18.2H77.7086V16H84.3086V18.2H85.7086V14.6H84.5086ZM79.9486 8.4H83.0086V14.6H78.6086C78.6086 14.6 79.3886 13.9 79.5086 12.6L79.9486 8.4ZM90.8133 6.9C88.8133 6.9 87.6133 8.1 87.4133 9.6H89.0133C89.2133 8.8 89.7133 8.3 90.8133 8.3C91.9133 8.3 92.7133 9.1 92.7133 10V10.5C88.2133 10.5 87.0133 11.7 87.0133 13.4C87.0133 14.9 88.2133 16.1 90.0133 16.1C91.8133 16.1 92.7133 15 92.7133 15L93.1133 16H94.2133V10C94.2133 8.3 92.8133 6.9 90.8133 6.9ZM90.0133 14.7C89.1133 14.7 88.5133 14.1 88.5133 13.5C88.5133 12.5 89.1133 11.9 92.7133 11.9V12.6C92.7133 13.6 91.6133 14.7 90.0133 14.7ZM96.1102 15.1C96.1102 15.7 96.5102 16.1 97.1102 16.1C97.7102 16.1 98.1102 15.7 98.1102 15.1C98.1102 14.5 97.7102 14.1 97.1102 14.1C96.5102 14.1 96.1102 14.5 96.1102 15.1ZM104.705 3.4V16H106.305V11.2H109.005C111.205 11.2 113.005 9.4 113.005 7.3C113.005 5.2 111.205 3.4 109.005 3.4H104.705ZM106.305 9.8V4.8H109.005C110.305 4.8 111.405 5.9 111.405 7.3C111.405 8.7 110.305 9.8 109.005 9.8H106.305ZM118.509 6.9C116.509 6.9 115.309 8.1 115.109 9.6H116.709C116.909 8.8 117.409 8.3 118.509 8.3C119.609 8.3 120.409 9.1 120.409 10V10.5C115.909 10.5 114.709 11.7 114.709 13.4C114.709 14.9 115.909 16.1 117.709 16.1C119.509 16.1 120.409 15 120.409 15L120.809 16H121.909V10C121.909 8.3 120.509 6.9 118.509 6.9ZM117.709 14.7C116.809 14.7 116.209 14.1 116.209 13.5C116.209 12.5 116.809 11.9 120.409 11.9V12.6C120.409 13.6 119.309 14.7 117.709 14.7ZM129.905 11.3C129.905 11.3 131.005 10.8 131.005 9.5C131.005 8.1 129.905 7 128.405 7H124.405V16H128.705C130.205 16 131.305 14.9 131.305 13.4C131.305 11.8 129.905 11.3 129.905 11.3ZM128.205 8.4C129.005 8.4 129.505 8.9 129.505 9.6C129.505 10.2 129.005 10.7 128.205 10.7H125.905V8.4H128.205ZM128.505 14.6H125.905V12.1H128.505C129.205 12.1 129.805 12.7 129.805 13.3C129.805 14 129.205 14.6 128.505 14.6ZM139.109 13.6C138.809 14 138.109 14.7 137.009 14.7C135.709 14.7 134.509 13.5 134.409 12.2H140.809C140.809 12.2 140.909 11.9 140.909 11.4C140.909 8.7 139.109 6.9 136.909 6.9C134.709 6.9 132.809 8.8 132.809 11.5C132.809 14.2 134.709 16.1 137.009 16.1C138.909 16.1 140.109 14.9 140.709 13.6H139.109ZM136.909 8.3C138.109 8.3 139.109 9.3 139.309 10.9H134.409C134.609 9.4 135.709 8.3 136.909 8.3ZM149.002 7V10.7H144.402V7H142.902V16H144.402V12.1H149.002V16H150.502V7H149.002ZM156.697 8.3C157.897 8.3 158.797 9.2 159.097 10.2H160.597C160.197 8.4 158.697 6.9 156.697 6.9C154.397 6.9 152.497 8.8 152.497 11.5C152.497 14.2 154.397 16.1 156.697 16.1C158.697 16.1 160.197 14.6 160.597 12.8H159.097C158.797 13.8 157.897 14.7 156.697 14.7C155.297 14.7 153.997 13.4 153.997 11.5C153.997 9.6 155.297 8.3 156.697 8.3ZM161.491 8.4H164.291V16H165.791V8.4H168.591V7H161.491V8.4ZM175.687 11.3C175.687 11.3 176.787 10.8 176.787 9.5C176.787 8.1 175.687 7 174.187 7H170.187V16H174.487C175.987 16 177.087 14.9 177.087 13.4C177.087 11.8 175.687 11.3 175.687 11.3ZM173.987 8.4C174.787 8.4 175.287 8.9 175.287 9.6C175.287 10.2 174.787 10.7 173.987 10.7H171.687V8.4H173.987ZM174.287 14.6H171.687V12.1H174.287C174.987 12.1 175.587 12.7 175.587 13.3C175.587 14 174.987 14.6 174.287 14.6ZM180.091 11.5C180.091 9.6 181.391 8.3 182.791 8.3C184.191 8.3 185.491 9.6 185.491 11.5C185.491 13.4 184.191 14.7 182.791 14.7C181.391 14.7 180.091 13.4 180.091 11.5ZM186.991 11.5C186.991 8.8 185.091 6.9 182.791 6.9C180.491 6.9 178.591 8.8 178.591 11.5C178.591 14.2 180.491 16.1 182.791 16.1C185.091 16.1 186.991 14.2 186.991 11.5ZM188.395 15.1C188.395 15.7 188.795 16.1 189.395 16.1C189.995 16.1 190.395 15.7 190.395 15.1C190.395 14.5 189.995 14.1 189.395 14.1C188.795 14.1 188.395 14.5 188.395 15.1ZM196.991 16H201.891C204.091 16 205.691 14.4 205.691 12.3C205.691 10.2 204.091 8.6 201.891 8.6H198.591V5H204.791V3.4H196.991V16ZM201.891 10C203.191 10 204.091 10.9 204.091 12.3C204.091 13.7 203.191 14.6 201.891 14.6H198.591V10H201.891ZM209.084 11.5C209.084 9.6 210.384 8.3 211.884 8.3C213.384 8.3 214.684 9.6 214.684 11.5C214.684 13.4 213.384 14.7 211.884 14.7C210.384 14.7 209.084 13.4 209.084 11.5ZM208.884 7H207.784V19.2H209.284V14.9C209.284 14.9 210.184 16.1 211.984 16.1C214.284 16.1 216.184 14.2 216.184 11.5C216.184 8.8 214.284 6.9 211.984 6.9C210.184 6.9 209.284 8 209.284 8L208.884 7ZM221.575 6.9C219.575 6.9 218.375 8.1 218.175 9.6H219.775C219.975 8.8 220.475 8.3 221.575 8.3C222.675 8.3 223.475 9.1 223.475 10V10.5C218.975 10.5 217.775 11.7 217.775 13.4C217.775 14.9 218.975 16.1 220.775 16.1C222.575 16.1 223.475 15 223.475 15L223.875 16H224.975V10C224.975 8.3 223.575 6.9 221.575 6.9ZM220.775 14.7C219.875 14.7 219.275 14.1 219.275 13.5C219.275 12.5 219.875 11.9 223.475 11.9V12.6C223.475 13.6 222.375 14.7 220.775 14.7ZM226.472 8.4H229.272V16H230.772V8.4H233.572V7H226.472V8.4ZM238.767 8.3C239.967 8.3 240.867 9.2 241.167 10.2H242.667C242.267 8.4 240.767 6.9 238.767 6.9C236.467 6.9 234.567 8.8 234.567 11.5C234.567 14.2 236.467 16.1 238.767 16.1C240.767 16.1 242.267 14.6 242.667 12.8H241.167C240.867 13.8 239.967 14.7 238.767 14.7C237.367 14.7 236.067 13.4 236.067 11.5C236.067 9.6 237.367 8.3 238.767 8.3ZM243.562 8.4H246.362V16H247.862V8.4H250.662V7H243.562V8.4ZM257.757 11.3C257.757 11.3 258.857 10.8 258.857 9.5C258.857 8.1 257.757 7 256.257 7H252.257V16H256.557C258.057 16 259.157 14.9 259.157 13.4C259.157 11.8 257.757 11.3 257.757 11.3ZM256.057 8.4C256.857 8.4 257.357 8.9 257.357 9.6C257.357 10.2 256.857 10.7 256.057 10.7H253.757V8.4H256.057ZM256.357 14.6H253.757V12.1H256.357C257.057 12.1 257.657 12.7 257.657 13.3C257.657 14 257.057 14.6 256.357 14.6ZM262.161 11.5C262.161 9.6 263.461 8.3 264.861 8.3C266.261 8.3 267.561 9.6 267.561 11.5C267.561 13.4 266.261 14.7 264.861 14.7C263.461 14.7 262.161 13.4 262.161 11.5ZM269.061 11.5C269.061 8.8 267.161 6.9 264.861 6.9C262.561 6.9 260.661 8.8 260.661 11.5C260.661 14.2 262.561 16.1 264.861 16.1C267.161 16.1 269.061 14.2 269.061 11.5Z" fill="#F1F1F1"/>
<path d="M7.40234 3.43945C8.63932 3.43945 9.847 3.75846 11.0254 4.39648C12.2038 5.02799 13.1217 5.9362 13.7793 7.12109C14.4368 8.29948 14.7656 9.52995 14.7656 10.8125C14.7656 12.082 14.4401 13.3027 13.7891 14.4746C13.1445 15.6465 12.2363 16.5579 11.0645 17.209C9.89909 17.8535 8.67839 18.1758 7.40234 18.1758C6.1263 18.1758 4.90234 17.8535 3.73047 17.209C2.5651 16.5579 1.6569 15.6465 1.00586 14.4746C0.354818 13.3027 0.0292969 12.082 0.0292969 10.8125C0.0292969 9.52995 0.358073 8.29948 1.01562 7.12109C1.67969 5.9362 2.60091 5.02799 3.7793 4.39648C4.95768 3.75846 6.16536 3.43945 7.40234 3.43945ZM7.40234 4.66016C6.36719 4.66016 5.35807 4.92708 4.375 5.46094C3.39844 5.98828 2.63346 6.74674 2.08008 7.73633C1.52669 8.7194 1.25 9.74479 1.25 10.8125C1.25 11.8737 1.52018 12.8926 2.06055 13.8691C2.60742 14.8392 3.36914 15.5977 4.3457 16.1445C5.32227 16.6849 6.34115 16.9551 7.40234 16.9551C8.46354 16.9551 9.48242 16.6849 10.459 16.1445C11.4355 15.5977 12.194 14.8392 12.7344 13.8691C13.2747 12.8926 13.5449 11.8737 13.5449 10.8125C13.5449 9.74479 13.2682 8.7194 12.7148 7.73633C12.168 6.74674 11.403 5.98828 10.4199 5.46094C9.43685 4.92708 8.43099 4.66016 7.40234 4.66016ZM9.76562 12.0039L10.9668 12.3555C10.7715 13.1693 10.3548 13.8203 9.7168 14.3086C9.08529 14.7904 8.31706 15.0312 7.41211 15.0312C6.26628 15.0312 5.33529 14.6602 4.61914 13.918C3.90299 13.1758 3.54492 12.1471 3.54492 10.832C3.54492 9.97266 3.70768 9.22721 4.0332 8.5957C4.35872 7.95768 4.82096 7.47917 5.41992 7.16016C6.02539 6.83464 6.71549 6.67188 7.49023 6.67188C8.35612 6.67188 9.07552 6.88021 9.64844 7.29688C10.2214 7.70703 10.612 8.26693 10.8203 8.97656L9.6582 9.25977C9.46289 8.77799 9.17318 8.41016 8.78906 8.15625C8.41146 7.89583 7.96549 7.76562 7.45117 7.76562C6.70247 7.76562 6.08398 8.03255 5.5957 8.56641C5.11393 9.10026 4.87305 9.86523 4.87305 10.8613C4.87305 11.8574 5.10091 12.6126 5.55664 13.127C6.01888 13.6348 6.61458 13.8887 7.34375 13.8887C7.92969 13.8887 8.44401 13.7194 8.88672 13.3809C9.32943 13.0423 9.6224 12.5833 9.76562 12.0039Z" fill="#F1F1F1"/>
</svg>
